<?xml version="1.0" encoding="utf-8"?>
<!-- Generator: Adobe Illustrator 16.2.0, SVG Export Plug-In . SVG Version: 6.00 Build 0)  -->
<!DOCTYPE svg PUBLIC "-//W3C//DTD SVG 1.1//EN" "http://www.w3.org/Graphics/SVG/1.1/DTD/svg11.dtd">
<svg version="1.1" xmlns="http://www.w3.org/2000/svg" xmlns:xlink="http://www.w3.org/1999/xlink" x="0px" y="0px" width="162px"
	 height="86px" viewBox="0 0 162 86" enable-background="new 0 0 162 86" xml:space="preserve">
<g id="Layer_2">
</g>
<g id="Layer_1">
	<g>
		<g>
			<path fill="#FFFFFF" d="M9.376,49.614c0-3.996,0-4.732-0.052-5.573c-0.053-0.895-0.263-1.314-1.131-1.499
				c-0.21-0.053-0.657-0.079-1.025-0.079c-0.29,0-0.447-0.052-0.447-0.236c0-0.184,0.184-0.236,0.579-0.236
				c1.393,0,3.05,0.079,3.602,0.079c0.894,0,2.892-0.079,3.707-0.079c1.656,0,3.418,0.157,4.838,1.13
				c0.736,0.5,1.788,1.841,1.788,3.603c0,1.945-0.815,3.733-3.47,5.889c2.34,2.945,4.154,5.285,5.705,6.915
				c1.472,1.524,2.55,1.709,2.944,1.787c0.289,0.053,0.526,0.079,0.736,0.079s0.315,0.079,0.315,0.211c0,0.21-0.184,0.263-0.5,0.263
				h-2.498c-1.473,0-2.13-0.132-2.813-0.5c-1.13-0.604-2.129-1.84-3.602-3.864c-1.052-1.446-2.261-3.234-2.603-3.628
				c-0.131-0.158-0.289-0.185-0.473-0.185l-2.287-0.053c-0.132,0-0.21,0.053-0.21,0.211v0.367c0,2.445,0,4.522,0.131,5.627
				c0.079,0.763,0.237,1.341,1.025,1.445c0.395,0.053,0.973,0.105,1.288,0.105c0.21,0,0.316,0.079,0.316,0.211
				c0,0.184-0.184,0.263-0.526,0.263c-1.525,0-3.471-0.079-3.865-0.079c-0.5,0-2.156,0.079-3.208,0.079
				c-0.342,0-0.526-0.079-0.526-0.263c0-0.132,0.105-0.211,0.42-0.211c0.395,0,0.71-0.053,0.947-0.105
				c0.526-0.104,0.657-0.683,0.762-1.445c0.131-1.104,0.131-3.182,0.131-5.601V49.614z M12.479,51.691
				c0,0.289,0.053,0.395,0.237,0.474c0.552,0.184,1.341,0.263,1.998,0.263c1.051,0,1.393-0.105,1.867-0.447
				c0.789-0.578,1.551-1.788,1.551-3.943c0-3.733-2.471-4.812-4.022-4.812c-0.657,0-1.13,0.026-1.393,0.105
				c-0.184,0.053-0.237,0.157-0.237,0.368V51.691z"/>
			<path fill="#FFFFFF" d="M27.385,51.429c0-3.392,0-4.022-0.026-4.732c-0.053-0.763-0.263-0.999-0.999-1.21
				c-0.184-0.052-0.579-0.078-0.92-0.078c-0.237,0-0.395-0.079-0.395-0.237c0-0.157,0.184-0.21,0.526-0.21
				c1.209,0,2.682,0.053,3.339,0.053c0.736,0,5.863,0.026,6.31,0c0.42-0.026,0.789-0.105,0.973-0.132
				c0.131-0.026,0.263-0.104,0.368-0.104c0.131,0,0.158,0.104,0.158,0.21c0,0.157-0.131,0.421-0.184,1.446
				c-0.026,0.236-0.079,1.209-0.131,1.472c-0.026,0.105-0.079,0.368-0.263,0.368c-0.158,0-0.184-0.105-0.184-0.289
				c0-0.158-0.026-0.552-0.158-0.815c-0.184-0.394-0.368-0.709-1.524-0.814c-0.395-0.053-3.155-0.105-3.628-0.105
				c-0.105,0-0.158,0.079-0.158,0.211v5.521c0,0.132,0.026,0.236,0.158,0.236c0.526,0,3.523,0,4.049-0.052
				c0.552-0.053,0.868-0.132,1.104-0.342c0.184-0.158,0.263-0.29,0.368-0.29c0.105,0,0.184,0.105,0.184,0.237
				c0,0.131-0.052,0.499-0.184,1.63c-0.052,0.447-0.105,1.341-0.105,1.498c0,0.185-0.026,0.5-0.237,0.5
				c-0.158,0-0.21-0.079-0.21-0.184c-0.026-0.237-0.026-0.526-0.079-0.815c-0.131-0.447-0.42-0.789-1.288-0.867
				c-0.421-0.053-3.05-0.105-3.628-0.105c-0.105,0-0.131,0.105-0.131,0.236v1.788c0,0.763-0.026,2.655,0,3.313
				c0.053,1.524,0.763,1.866,3.128,1.866c0.605,0,1.578-0.025,2.182-0.289c0.579-0.263,0.842-0.736,1-1.656
				c0.052-0.236,0.105-0.342,0.263-0.342c0.184,0,0.21,0.289,0.21,0.526c0,0.499-0.184,2.024-0.315,2.471
				c-0.158,0.579-0.368,0.579-1.236,0.579c-1.735,0-3.128-0.026-4.259-0.079c-1.13-0.026-1.998-0.053-2.682-0.053
				c-0.263,0-0.762,0.026-1.314,0.026c-0.552,0.026-1.13,0.053-1.604,0.053c-0.29,0-0.447-0.079-0.447-0.237
				c0-0.104,0.079-0.236,0.368-0.236c0.342,0,0.604-0.026,0.815-0.079c0.473-0.104,0.605-0.525,0.684-1.183
				c0.105-0.946,0.105-2.708,0.105-4.759V51.429z"/>
			<path fill="#FFFFFF" d="M42.213,56.214c-0.132,0-0.158,0.025-0.211,0.157l-1.235,3.023c-0.236,0.552-0.342,1.104-0.342,1.367
				c0,0.395,0.21,0.631,0.92,0.631h0.342c0.289,0,0.342,0.105,0.342,0.236c0,0.185-0.131,0.237-0.368,0.237
				c-0.762,0-1.84-0.079-2.576-0.079c-0.236,0-1.473,0.079-2.682,0.079c-0.289,0-0.42-0.053-0.42-0.237
				c0-0.131,0.079-0.236,0.263-0.236c0.21,0,0.473-0.026,0.684-0.026c1.051-0.157,1.446-0.841,1.919-1.972l6.047-13.96
				c0.263-0.632,0.446-0.895,0.684-0.895c0.342,0,0.446,0.211,0.684,0.71c0.552,1.235,4.417,10.28,5.889,13.672
				c0.895,2.023,1.552,2.313,1.972,2.392c0.342,0.053,0.605,0.079,0.868,0.079c0.21,0,0.315,0.079,0.315,0.236
				c0,0.185-0.132,0.237-0.999,0.237c-0.815,0-2.498,0-4.443-0.053c-0.421-0.026-0.684-0.026-0.684-0.185
				c0-0.131,0.053-0.21,0.289-0.236c0.158-0.026,0.315-0.236,0.211-0.499l-1.788-4.522c-0.053-0.132-0.132-0.157-0.236-0.157H42.213
				z M47.155,54.978c0.105,0,0.132-0.053,0.105-0.131l-2.183-5.601c-0.026-0.078-0.053-0.21-0.104-0.21
				c-0.079,0-0.105,0.132-0.132,0.21l-2.234,5.574c-0.053,0.104,0,0.157,0.078,0.157H47.155z"/>
			<path fill="#FFFFFF" d="M59.617,55.372c0,2.866,0,4.285,0.499,4.706c0.395,0.342,1.288,0.474,3.076,0.474
				c1.235,0,2.13-0.026,2.708-0.631c0.289-0.29,0.525-0.921,0.578-1.341c0.026-0.211,0.079-0.342,0.263-0.342
				c0.158,0,0.211,0.236,0.211,0.499s-0.158,1.919-0.342,2.576c-0.158,0.5-0.263,0.605-1.473,0.605
				c-1.656,0-2.997-0.026-4.154-0.079c-1.156-0.026-2.129-0.053-3.075-0.053c-0.264,0-0.763,0.026-1.314,0.026
				c-0.553,0.026-1.131,0.053-1.604,0.053c-0.289,0-0.446-0.079-0.446-0.237c0-0.104,0.078-0.236,0.368-0.236
				c0.341,0,0.604-0.026,0.814-0.079c0.474-0.104,0.604-0.525,0.684-1.183c0.105-0.946,0.105-2.708,0.105-4.759v-3.943
				c0-3.392,0-4.022-0.026-4.732c-0.053-0.763-0.263-0.999-0.999-1.21c-0.185-0.052-0.474-0.078-0.763-0.078
				c-0.263,0-0.395-0.079-0.395-0.237c0-0.157,0.158-0.21,0.5-0.21c1.078,0,2.55,0.053,3.181,0.053c0.553,0,2.445-0.053,3.339-0.053
				c0.342,0,0.5,0.053,0.5,0.21c0,0.158-0.132,0.237-0.421,0.237c-0.263,0-0.631,0.026-0.894,0.078
				c-0.631,0.105-0.815,0.421-0.868,1.21c-0.052,0.71-0.052,1.341-0.052,4.732V55.372z"/>
			<path fill="#FFFFFF" d="M76.811,49.614c0-3.996,0-4.732-0.053-5.573c-0.053-0.895-0.263-1.314-1.13-1.499
				c-0.211-0.053-0.657-0.079-1.025-0.079c-0.289,0-0.447-0.052-0.447-0.236c0-0.184,0.185-0.236,0.578-0.236
				c0.71,0,1.473,0.026,2.13,0.026c0.684,0.026,1.288,0.053,1.656,0.053c0.842,0,6.073,0,6.573-0.026
				c0.499-0.053,0.92-0.105,1.13-0.158c0.132-0.026,0.289-0.105,0.421-0.105s0.157,0.105,0.157,0.237
				c0,0.184-0.131,0.499-0.21,1.709c-0.026,0.263-0.079,1.419-0.131,1.735c-0.026,0.131-0.079,0.289-0.264,0.289
				c-0.184,0-0.236-0.132-0.236-0.368c0-0.185-0.026-0.631-0.158-0.946c-0.184-0.474-0.446-0.789-1.761-0.947
				c-0.447-0.052-3.208-0.104-3.733-0.104c-0.132,0-0.185,0.078-0.185,0.263v6.651c0,0.185,0.026,0.289,0.185,0.289
				c0.578,0,3.602,0,4.206-0.053c0.631-0.052,1.025-0.131,1.263-0.394c0.184-0.211,0.289-0.342,0.42-0.342
				c0.105,0,0.185,0.052,0.185,0.21s-0.105,0.578-0.211,1.919c-0.026,0.526-0.104,1.578-0.104,1.762c0,0.21,0,0.5-0.237,0.5
				c-0.184,0-0.236-0.105-0.236-0.237c-0.026-0.263-0.026-0.604-0.105-0.946c-0.131-0.525-0.499-0.92-1.472-1.025
				c-0.5-0.053-3.103-0.079-3.733-0.079c-0.132,0-0.158,0.105-0.158,0.264v2.076c0,0.895-0.026,3.313,0,4.075
				c0.053,1.814,0.474,2.209,3.155,2.209c0.684,0,1.788,0,2.472-0.315s0.999-0.868,1.183-1.946c0.053-0.289,0.105-0.394,0.289-0.394
				c0.211,0,0.211,0.21,0.211,0.473c0,0.604-0.211,2.393-0.342,2.919c-0.185,0.684-0.421,0.684-1.42,0.684
				c-1.972,0-3.418-0.053-4.549-0.079c-1.13-0.053-1.945-0.079-2.733-0.079c-0.29,0-0.868,0-1.499,0.026
				c-0.604,0-1.288,0.053-1.814,0.053c-0.342,0-0.525-0.079-0.525-0.263c0-0.132,0.105-0.211,0.421-0.211
				c0.394,0,0.71-0.053,0.946-0.105c0.525-0.104,0.657-0.683,0.763-1.445c0.131-1.104,0.131-3.182,0.131-5.601V49.614z"/>
			<path fill="#FFFFFF" d="M90.324,61.577c-0.368-0.158-0.447-0.264-0.447-0.763c0-1.21,0.105-2.603,0.131-2.971
				c0-0.342,0.105-0.579,0.29-0.579c0.21,0,0.236,0.211,0.236,0.368c0,0.289,0.079,0.763,0.21,1.157
				c0.5,1.656,2.235,2.208,3.681,2.208c1.998,0,3.208-1.262,3.208-2.839c0-0.973-0.237-1.945-2.287-3.155l-1.341-0.789
				c-2.734-1.604-3.629-3.102-3.629-5.073c0-2.734,2.63-4.496,5.837-4.496c1.499,0,2.682,0.21,3.286,0.368
				c0.211,0.053,0.315,0.131,0.315,0.289c0,0.289-0.078,0.92-0.078,2.682c0,0.474-0.105,0.71-0.29,0.71
				c-0.157,0-0.236-0.132-0.236-0.395c0-0.21-0.105-0.894-0.604-1.473c-0.342-0.42-1.078-1.051-2.576-1.051
				c-1.657,0-3.155,0.867-3.155,2.392c0,1,0.368,1.788,2.445,2.945l0.946,0.525c3.05,1.683,3.996,3.392,3.996,5.416
				c0,1.656-0.631,2.997-2.313,4.181c-1.104,0.788-2.629,0.92-3.865,0.92C92.742,62.155,91.323,62.023,90.324,61.577z"/>
			<path fill="#FFFFFF" d="M107.544,46.328l-3.444,0.079c-1.341,0.026-1.894,0.184-2.235,0.684
				c-0.236,0.315-0.341,0.604-0.394,0.762c-0.053,0.185-0.105,0.29-0.264,0.29c-0.157,0-0.21-0.132-0.21-0.368
				c0-0.368,0.447-2.524,0.5-2.708c0.052-0.289,0.131-0.421,0.263-0.421c0.184,0,0.421,0.184,0.999,0.263
				c0.684,0.079,1.551,0.105,2.313,0.105h9.386c0.736,0,1.235-0.053,1.577-0.105c0.368-0.053,0.553-0.105,0.631-0.105
				c0.158,0,0.185,0.132,0.185,0.474c0,0.474-0.053,2.13-0.053,2.708c-0.026,0.236-0.079,0.368-0.21,0.368
				c-0.185,0-0.237-0.105-0.263-0.447l-0.026-0.236c-0.053-0.578-0.657-1.262-2.734-1.288l-2.919-0.053v9.044
				c0,2.051,0.026,3.813,0.132,4.785c0.079,0.631,0.21,1.052,0.894,1.156c0.315,0.053,0.842,0.079,1.184,0.079
				c0.263,0,0.368,0.132,0.368,0.236c0,0.158-0.185,0.237-0.447,0.237c-1.524,0-3.076-0.079-3.733-0.079
				c-0.525,0-2.104,0.079-3.023,0.079c-0.289,0-0.447-0.079-0.447-0.237c0-0.104,0.079-0.236,0.368-0.236
				c0.342,0,0.631-0.026,0.815-0.079c0.474-0.104,0.604-0.525,0.684-1.183c0.105-0.946,0.105-2.708,0.105-4.759V46.328z"/>
			<path fill="#FFFFFF" d="M119.217,56.214c-0.132,0-0.158,0.025-0.211,0.157l-1.235,3.023c-0.236,0.552-0.342,1.104-0.342,1.367
				c0,0.395,0.21,0.631,0.92,0.631h0.342c0.289,0,0.342,0.105,0.342,0.236c0,0.185-0.131,0.237-0.368,0.237
				c-0.762,0-1.84-0.079-2.576-0.079c-0.236,0-1.473,0.079-2.682,0.079c-0.289,0-0.421-0.053-0.421-0.237
				c0-0.131,0.079-0.236,0.264-0.236c0.21,0,0.473-0.026,0.683-0.026c1.052-0.157,1.446-0.841,1.92-1.972l6.047-13.96
				c0.263-0.632,0.446-0.895,0.684-0.895c0.342,0,0.446,0.211,0.684,0.71c0.552,1.235,4.417,10.28,5.889,13.672
				c0.895,2.023,1.552,2.313,1.972,2.392c0.342,0.053,0.605,0.079,0.868,0.079c0.21,0,0.315,0.079,0.315,0.236
				c0,0.185-0.132,0.237-0.999,0.237c-0.815,0-2.498,0-4.443-0.053c-0.421-0.026-0.684-0.026-0.684-0.185
				c0-0.131,0.053-0.21,0.289-0.236c0.158-0.026,0.315-0.236,0.211-0.499l-1.788-4.522c-0.053-0.132-0.132-0.157-0.236-0.157
				H119.217z M124.159,54.978c0.105,0,0.132-0.053,0.105-0.131l-2.183-5.601c-0.026-0.078-0.053-0.21-0.104-0.21
				c-0.079,0-0.105,0.132-0.132,0.21l-2.234,5.574c-0.053,0.104,0,0.157,0.078,0.157H124.159z"/>
			<path fill="#FFFFFF" d="M134.887,46.328l-3.444,0.079c-1.341,0.026-1.894,0.184-2.235,0.684
				c-0.236,0.315-0.342,0.604-0.394,0.762c-0.053,0.185-0.105,0.29-0.264,0.29c-0.157,0-0.21-0.132-0.21-0.368
				c0-0.368,0.447-2.524,0.5-2.708c0.052-0.289,0.131-0.421,0.263-0.421c0.184,0,0.421,0.184,0.999,0.263
				c0.684,0.079,1.551,0.105,2.313,0.105h9.386c0.736,0,1.235-0.053,1.577-0.105c0.368-0.053,0.553-0.105,0.632-0.105
				c0.157,0,0.184,0.132,0.184,0.474c0,0.474-0.053,2.13-0.053,2.708c-0.026,0.236-0.079,0.368-0.21,0.368
				c-0.185,0-0.237-0.105-0.263-0.447l-0.026-0.236c-0.053-0.578-0.657-1.262-2.734-1.288l-2.919-0.053v9.044
				c0,2.051,0.026,3.813,0.132,4.785c0.079,0.631,0.21,1.052,0.894,1.156c0.315,0.053,0.842,0.079,1.184,0.079
				c0.263,0,0.368,0.132,0.368,0.236c0,0.158-0.185,0.237-0.447,0.237c-1.524,0-3.076-0.079-3.733-0.079
				c-0.525,0-2.104,0.079-3.023,0.079c-0.289,0-0.447-0.079-0.447-0.237c0-0.104,0.079-0.236,0.368-0.236
				c0.342,0,0.632-0.026,0.815-0.079c0.474-0.104,0.604-0.525,0.684-1.183c0.105-0.946,0.105-2.708,0.105-4.759V46.328z"/>
			<path fill="#FFFFFF" d="M147.138,51.429c0-3.392,0-4.022-0.026-4.732c-0.053-0.763-0.263-0.999-0.999-1.21
				c-0.185-0.052-0.578-0.078-0.92-0.078c-0.237,0-0.395-0.079-0.395-0.237c0-0.157,0.184-0.21,0.525-0.21
				c1.21,0,2.682,0.053,3.339,0.053c0.736,0,5.863,0.026,6.31,0c0.421-0.026,0.789-0.105,0.974-0.132
				c0.131-0.026,0.263-0.104,0.367-0.104c0.132,0,0.158,0.104,0.158,0.21c0,0.157-0.132,0.421-0.184,1.446
				c-0.026,0.236-0.079,1.209-0.132,1.472c-0.026,0.105-0.079,0.368-0.263,0.368c-0.158,0-0.185-0.105-0.185-0.289
				c0-0.158-0.026-0.552-0.157-0.815c-0.185-0.394-0.368-0.709-1.525-0.814c-0.395-0.053-3.154-0.105-3.628-0.105
				c-0.105,0-0.157,0.079-0.157,0.211v5.521c0,0.132,0.025,0.236,0.157,0.236c0.526,0,3.523,0,4.049-0.052
				c0.552-0.053,0.867-0.132,1.104-0.342c0.184-0.158,0.263-0.29,0.368-0.29c0.104,0,0.184,0.105,0.184,0.237
				c0,0.131-0.053,0.499-0.184,1.63c-0.053,0.447-0.105,1.341-0.105,1.498c0,0.185-0.026,0.5-0.236,0.5
				c-0.158,0-0.211-0.079-0.211-0.184c-0.026-0.237-0.026-0.526-0.078-0.815c-0.132-0.447-0.421-0.789-1.289-0.867
				c-0.42-0.053-3.05-0.105-3.628-0.105c-0.105,0-0.131,0.105-0.131,0.236v1.788c0,0.763-0.026,2.655,0,3.313
				c0.052,1.524,0.762,1.866,3.128,1.866c0.604,0,1.578-0.025,2.183-0.289c0.578-0.263,0.841-0.736,0.999-1.656
				c0.053-0.236,0.104-0.342,0.263-0.342c0.184,0,0.21,0.289,0.21,0.526c0,0.499-0.184,2.024-0.315,2.471
				c-0.157,0.579-0.368,0.579-1.235,0.579c-1.735,0-3.129-0.026-4.259-0.079c-1.131-0.026-1.998-0.053-2.682-0.053
				c-0.264,0-0.763,0.026-1.314,0.026c-0.553,0.026-1.131,0.053-1.604,0.053c-0.289,0-0.446-0.079-0.446-0.237
				c0-0.104,0.078-0.236,0.368-0.236c0.341,0,0.604-0.026,0.814-0.079c0.474-0.104,0.604-0.525,0.684-1.183
				c0.105-0.946,0.105-2.708,0.105-4.759V51.429z"/>
		</g>
		<g>
			<polygon fill="#FFFFFF" points="51.7,37.432 48.859,17.858 53.5,14.914 53.5,10.058 57.117,10.131 58.442,12.339 73.696,4.686 
				91.157,14.768 97.482,11.382 110.853,19.624 106.797,38.462 105.408,38.315 106.586,20.654 97.715,13.884 91.087,16.019 
				73.452,7.997 53.571,18.594 53.036,37.211 			"/>
			<polygon fill="#FFFFFF" points="48.334,38 52.492,35.113 56.65,38 			"/>
			<polygon fill="#FFFFFF" points="102.205,39 106.363,36.113 110.521,39 			"/>
			<polygon fill="#FFFFFF" points="67.143,35.581 66.056,21.996 78.147,22.042 77.195,35.718 			"/>
		</g>
		<line fill="none" stroke="#FFFFFF" stroke-miterlimit="10" x1="6.5" y1="67.5" x2="157.5" y2="67.5"/>
		<g>
			<path fill="#FFFFFF" d="M14.683,74.485c-0.116-0.328-0.19-0.54-0.328-0.624c-0.095-0.063-0.275-0.074-0.359-0.074
				c-0.095,0-0.148-0.031-0.148-0.095s0.074-0.085,0.212-0.085c0.476,0,0.994,0.021,1.079,0.021c0.084,0,0.539-0.021,1.079-0.021
				c0.137,0,0.201,0.021,0.201,0.085s-0.074,0.095-0.169,0.095c-0.074,0-0.158,0.011-0.232,0.042
				c-0.084,0.032-0.095,0.085-0.095,0.18c0,0.117,0.084,0.413,0.201,0.825c0.158,0.592,1.004,3.31,1.142,3.723h0.032l1.777-4.601
				c0.095-0.254,0.19-0.327,0.275-0.327c0.105,0,0.19,0.137,0.307,0.423l1.861,4.441h0.032c0.18-0.519,0.888-2.887,1.216-3.934
				c0.063-0.212,0.095-0.392,0.095-0.519c0-0.148-0.085-0.254-0.455-0.254c-0.084,0-0.158-0.042-0.158-0.095
				c0-0.063,0.074-0.085,0.222-0.085c0.487,0,0.91,0.021,0.994,0.021c0.063,0,0.465-0.021,0.772-0.021
				c0.106,0,0.169,0.021,0.169,0.074c0,0.063-0.042,0.105-0.126,0.105c-0.095,0-0.222,0.011-0.328,0.042
				c-0.222,0.085-0.328,0.424-0.518,0.941c-0.434,1.132-1.385,3.986-1.84,5.329c-0.106,0.317-0.159,0.424-0.296,0.424
				c-0.126,0-0.19-0.106-0.328-0.434l-1.893-4.441H19.05c-0.158,0.381-1.406,3.574-1.787,4.398c-0.169,0.37-0.222,0.477-0.359,0.477
				c-0.116,0-0.169-0.096-0.254-0.328L14.683,74.485z"/>
			<path fill="#FFFFFF" d="M25.114,76.209c0-1.364,0-1.618-0.01-1.903c-0.021-0.307-0.116-0.413-0.317-0.477
				c-0.105-0.031-0.222-0.042-0.338-0.042c-0.095,0-0.148-0.021-0.148-0.105c0-0.053,0.074-0.074,0.222-0.074
				c0.349,0,0.983,0.021,1.248,0.021c0.233,0,0.835-0.021,1.195-0.021c0.117,0,0.19,0.021,0.19,0.074
				c0,0.084-0.053,0.105-0.148,0.105s-0.169,0.011-0.275,0.032c-0.254,0.042-0.328,0.169-0.349,0.486
				c-0.021,0.285-0.021,0.539-0.021,1.903v1.586c0,0.867,0,1.586,0.042,1.967c0.032,0.243,0.095,0.381,0.37,0.423
				c0.126,0.021,0.338,0.032,0.476,0.032c0.106,0,0.148,0.053,0.148,0.095c0,0.063-0.074,0.095-0.18,0.095
				c-0.613,0-1.248-0.031-1.501-0.031c-0.211,0-0.846,0.031-1.216,0.031c-0.116,0-0.18-0.031-0.18-0.095
				c0-0.042,0.032-0.095,0.148-0.095c0.138,0,0.244-0.011,0.328-0.032c0.19-0.042,0.243-0.169,0.275-0.434
				c0.042-0.37,0.042-1.089,0.042-1.956V76.209z"/>
			<path fill="#FFFFFF" d="M30.139,77.795c0,1.152,0,1.724,0.201,1.893c0.159,0.138,0.519,0.19,1.237,0.19
				c0.497,0,0.856-0.011,1.089-0.254c0.116-0.116,0.211-0.37,0.232-0.539c0.011-0.085,0.032-0.138,0.106-0.138
				c0.063,0,0.084,0.096,0.084,0.201s-0.063,0.771-0.137,1.036c-0.063,0.201-0.106,0.243-0.592,0.243
				c-0.667,0-1.206-0.011-1.671-0.031c-0.465-0.011-0.856-0.021-1.237-0.021c-0.105,0-0.307,0.011-0.529,0.011
				c-0.222,0.011-0.455,0.021-0.645,0.021c-0.116,0-0.18-0.031-0.18-0.095c0-0.042,0.032-0.095,0.148-0.095
				c0.138,0,0.244-0.011,0.328-0.032c0.19-0.042,0.243-0.211,0.275-0.476c0.042-0.381,0.042-1.089,0.042-1.914v-1.586
				c0-1.364,0-1.618-0.011-1.903c-0.021-0.307-0.106-0.402-0.402-0.486c-0.074-0.021-0.19-0.032-0.307-0.032
				c-0.106,0-0.159-0.031-0.159-0.095s0.063-0.085,0.201-0.085c0.433,0,1.025,0.021,1.279,0.021c0.222,0,0.983-0.021,1.343-0.021
				c0.138,0,0.201,0.021,0.201,0.085s-0.053,0.095-0.169,0.095c-0.105,0-0.254,0.011-0.359,0.032
				c-0.254,0.042-0.328,0.169-0.349,0.486c-0.021,0.285-0.021,0.539-0.021,1.903V77.795z"/>
			<path fill="#FFFFFF" d="M35.45,77.795c0,1.152,0,1.724,0.201,1.893c0.159,0.138,0.519,0.19,1.237,0.19
				c0.497,0,0.857-0.011,1.089-0.254c0.116-0.116,0.211-0.37,0.232-0.539c0.011-0.085,0.032-0.138,0.105-0.138
				c0.063,0,0.085,0.096,0.085,0.201s-0.063,0.771-0.138,1.036c-0.063,0.201-0.105,0.243-0.592,0.243
				c-0.667,0-1.206-0.011-1.671-0.031c-0.465-0.011-0.856-0.021-1.237-0.021c-0.105,0-0.307,0.011-0.529,0.011
				c-0.222,0.011-0.455,0.021-0.645,0.021c-0.116,0-0.18-0.031-0.18-0.095c0-0.042,0.032-0.095,0.148-0.095
				c0.138,0,0.244-0.011,0.328-0.032c0.19-0.042,0.243-0.211,0.275-0.476c0.042-0.381,0.042-1.089,0.042-1.914v-1.586
				c0-1.364,0-1.618-0.01-1.903c-0.021-0.307-0.106-0.402-0.402-0.486c-0.074-0.021-0.19-0.032-0.307-0.032
				c-0.106,0-0.159-0.031-0.159-0.095s0.063-0.085,0.201-0.085c0.434,0,1.026,0.021,1.28,0.021c0.222,0,0.983-0.021,1.343-0.021
				c0.138,0,0.201,0.021,0.201,0.085s-0.053,0.095-0.169,0.095c-0.105,0-0.254,0.011-0.359,0.032
				c-0.254,0.042-0.328,0.169-0.349,0.486c-0.021,0.285-0.021,0.539-0.021,1.903V77.795z"/>
			<path fill="#FFFFFF" d="M42.158,76.209c0-1.364,0-1.618-0.011-1.903c-0.021-0.307-0.105-0.402-0.401-0.486
				c-0.074-0.021-0.232-0.032-0.37-0.032c-0.095,0-0.158-0.031-0.158-0.095s0.073-0.085,0.211-0.085
				c0.486,0,1.079,0.021,1.343,0.021c0.286,0,0.952-0.021,1.513-0.021c1.163,0,2.728,0,3.743,1.025
				c0.465,0.466,0.878,1.217,0.878,2.284c0,1.132-0.487,1.988-1.016,2.506c-0.423,0.424-1.406,1.058-3.119,1.058
				c-0.339,0-0.74-0.031-1.11-0.053c-0.37-0.031-0.709-0.053-0.941-0.053c-0.105,0-0.307,0.011-0.528,0.011
				c-0.223,0.011-0.455,0.021-0.646,0.021c-0.116,0-0.18-0.031-0.18-0.095c0-0.042,0.032-0.095,0.148-0.095
				c0.137,0,0.243-0.011,0.327-0.032c0.19-0.042,0.243-0.211,0.275-0.476c0.042-0.381,0.042-1.089,0.042-1.914V76.209z
				 M43.406,77.203c0,0.951,0.011,1.639,0.021,1.818c0.01,0.222,0.031,0.539,0.105,0.635c0.116,0.169,0.486,0.359,1.216,0.359
				c0.846,0,1.47-0.148,2.03-0.613c0.603-0.497,0.793-1.301,0.793-2.231c0-1.142-0.454-1.882-0.867-2.241
				c-0.856-0.762-1.871-0.857-2.601-0.857c-0.19,0-0.497,0.021-0.571,0.063c-0.085,0.032-0.116,0.074-0.116,0.18
				c-0.011,0.308-0.011,1.047-0.011,1.756V77.203z"/>
			<path fill="#FFFFFF" d="M49.406,77.002c0-1.533,1.078-3.521,3.901-3.521c2.348,0,3.807,1.301,3.807,3.362
				c0,2.063-1.501,3.681-3.901,3.681C50.506,80.523,49.406,78.599,49.406,77.002z M55.729,77.171c0-1.988-1.195-3.215-2.696-3.215
				c-1.036,0-2.253,0.55-2.253,2.771c0,1.851,1.058,3.311,2.813,3.311C54.249,80.037,55.729,79.729,55.729,77.171z"/>
			<path fill="#FFFFFF" d="M62.523,74.157l-1.385,0.032c-0.54,0.01-0.762,0.073-0.899,0.274c-0.095,0.127-0.138,0.243-0.158,0.307
				c-0.021,0.074-0.042,0.116-0.105,0.116s-0.085-0.053-0.085-0.147c0-0.148,0.18-1.016,0.201-1.09
				c0.021-0.116,0.053-0.169,0.105-0.169c0.074,0,0.169,0.074,0.401,0.105c0.275,0.032,0.624,0.043,0.931,0.043h3.775
				c0.296,0,0.497-0.021,0.635-0.043c0.147-0.021,0.222-0.042,0.254-0.042c0.063,0,0.073,0.053,0.073,0.19
				c0,0.19-0.021,0.856-0.021,1.089c-0.011,0.096-0.032,0.148-0.085,0.148c-0.074,0-0.095-0.042-0.105-0.18l-0.011-0.096
				c-0.021-0.232-0.265-0.507-1.1-0.518l-1.174-0.021v3.638c0,0.825,0.011,1.533,0.053,1.925c0.031,0.254,0.085,0.423,0.359,0.465
				c0.127,0.021,0.339,0.032,0.476,0.032c0.106,0,0.148,0.053,0.148,0.095c0,0.063-0.074,0.095-0.18,0.095
				c-0.613,0-1.237-0.031-1.502-0.031c-0.211,0-0.846,0.031-1.216,0.031c-0.116,0-0.18-0.031-0.18-0.095
				c0-0.042,0.032-0.095,0.148-0.095c0.137,0,0.254-0.011,0.327-0.032c0.19-0.042,0.243-0.211,0.275-0.476
				c0.042-0.381,0.042-1.089,0.042-1.914V74.157z"/>
			<path fill="#FFFFFF" d="M72.277,76.536c0.021,0,0.053-0.01,0.053-0.063v-0.189c0-1.364-0.011-1.692-0.021-1.978
				c-0.021-0.307-0.105-0.402-0.401-0.486c-0.074-0.021-0.232-0.032-0.359-0.032c-0.106,0-0.159-0.031-0.159-0.095
				s0.063-0.085,0.201-0.085c0.497,0,1.152,0.021,1.396,0.021c0.223,0,0.836-0.021,1.195-0.021c0.138,0,0.201,0.021,0.201,0.085
				s-0.063,0.095-0.17,0.095c-0.073,0-0.158,0.011-0.274,0.032c-0.243,0.042-0.317,0.169-0.339,0.486
				c-0.021,0.285-0.021,0.539-0.021,1.903v1.586c0,0.825,0,1.533,0.042,1.925c0.032,0.254,0.085,0.423,0.37,0.465
				c0.127,0.021,0.328,0.032,0.476,0.032c0.096,0,0.148,0.053,0.148,0.095c0,0.063-0.074,0.095-0.19,0.095
				c-0.603,0-1.216-0.031-1.47-0.031c-0.212,0-0.867,0.031-1.227,0.031c-0.127,0-0.201-0.031-0.201-0.095
				c0-0.042,0.042-0.095,0.148-0.095c0.147,0,0.254-0.011,0.338-0.032c0.19-0.042,0.243-0.211,0.275-0.476
				c0.042-0.381,0.042-1.068,0.042-1.893v-0.688c0-0.032-0.031-0.053-0.053-0.053h-3.511c-0.032,0-0.063,0.01-0.063,0.053v0.688
				c0,0.824,0.011,1.512,0.053,1.903c0.032,0.254,0.085,0.423,0.359,0.465c0.127,0.021,0.339,0.032,0.477,0.032
				c0.105,0,0.147,0.053,0.147,0.095c0,0.063-0.074,0.095-0.19,0.095c-0.603,0-1.248-0.031-1.512-0.031
				c-0.212,0-0.825,0.031-1.195,0.031c-0.116,0-0.18-0.031-0.18-0.095c0-0.042,0.032-0.095,0.148-0.095
				c0.137,0,0.243-0.011,0.327-0.032c0.19-0.042,0.243-0.211,0.275-0.476c0.042-0.381,0.042-1.089,0.042-1.914v-1.586
				c0-1.364,0-1.618-0.011-1.903c-0.021-0.307-0.105-0.402-0.401-0.486c-0.074-0.021-0.232-0.032-0.37-0.032
				c-0.095,0-0.158-0.031-0.158-0.095s0.073-0.085,0.2-0.085c0.497,0,1.11,0.021,1.364,0.021c0.222,0,0.867-0.021,1.237-0.021
				c0.127,0,0.19,0.021,0.19,0.085s-0.053,0.095-0.169,0.095c-0.074,0-0.159,0.011-0.265,0.032
				c-0.254,0.042-0.328,0.169-0.349,0.486c-0.021,0.285-0.021,0.613-0.021,1.978v0.189c0,0.054,0.031,0.063,0.063,0.063H72.277z"/>
			<path fill="#FFFFFF" d="M76.099,76.209c0-1.364,0-1.618-0.011-1.903c-0.021-0.307-0.105-0.402-0.401-0.486
				c-0.074-0.021-0.232-0.032-0.37-0.032c-0.095,0-0.158-0.031-0.158-0.095s0.073-0.085,0.211-0.085
				c0.486,0,1.079,0.021,1.343,0.021c0.296,0,2.358,0.01,2.538,0c0.169-0.011,0.317-0.043,0.392-0.053
				c0.053-0.011,0.105-0.043,0.147-0.043c0.053,0,0.063,0.043,0.063,0.085c0,0.063-0.053,0.169-0.074,0.581
				c-0.01,0.096-0.031,0.486-0.053,0.593c-0.011,0.042-0.031,0.147-0.105,0.147c-0.063,0-0.074-0.042-0.074-0.116
				c0-0.063-0.011-0.222-0.063-0.327c-0.074-0.159-0.147-0.286-0.613-0.328c-0.158-0.021-1.269-0.042-1.459-0.042
				c-0.042,0-0.063,0.031-0.063,0.084v2.221c0,0.053,0.011,0.096,0.063,0.096c0.211,0,1.417,0,1.628-0.021
				c0.223-0.021,0.35-0.053,0.444-0.138c0.074-0.063,0.106-0.116,0.148-0.116s0.074,0.042,0.074,0.095
				c0,0.054-0.021,0.201-0.074,0.656c-0.021,0.18-0.042,0.539-0.042,0.603c0,0.074-0.011,0.201-0.096,0.201
				c-0.063,0-0.085-0.032-0.085-0.074c-0.01-0.095-0.01-0.212-0.031-0.328c-0.053-0.18-0.169-0.317-0.519-0.349
				c-0.169-0.021-1.227-0.042-1.459-0.042c-0.042,0-0.053,0.042-0.053,0.095v0.719c0,0.307-0.011,1.068,0,1.333
				c0.021,0.613,0.307,0.751,1.259,0.751c0.243,0,0.634-0.011,0.877-0.117c0.232-0.105,0.339-0.296,0.402-0.666
				c0.021-0.095,0.042-0.137,0.105-0.137c0.074,0,0.085,0.116,0.085,0.211c0,0.201-0.074,0.814-0.127,0.994
				c-0.063,0.232-0.148,0.232-0.497,0.232c-0.698,0-1.259-0.011-1.713-0.031c-0.455-0.011-0.804-0.021-1.079-0.021
				c-0.105,0-0.307,0.011-0.528,0.011c-0.223,0.011-0.455,0.021-0.646,0.021c-0.116,0-0.18-0.031-0.18-0.095
				c0-0.042,0.032-0.095,0.148-0.095c0.138,0,0.243-0.011,0.327-0.032c0.19-0.042,0.243-0.211,0.275-0.476
				c0.042-0.381,0.042-1.089,0.042-1.914V76.209z"/>
			<path fill="#FFFFFF" d="M84.309,76.209c0-1.364,0-1.618-0.011-1.903c-0.021-0.307-0.105-0.402-0.401-0.486
				c-0.074-0.021-0.232-0.032-0.37-0.032c-0.095,0-0.158-0.031-0.158-0.095s0.073-0.085,0.211-0.085
				c0.486,0,1.079,0.021,1.259,0.021c0.465,0,1.078-0.021,1.396-0.021c1.682,0,1.978,0.867,1.978,1.343
				c0,0.698-0.519,1.237-1.047,1.576c0.761,0.243,1.713,0.888,1.713,1.945c0,0.962-0.762,1.956-2.475,1.956
				c-0.105,0-0.423-0.011-0.74-0.031c-0.317-0.011-0.645-0.021-0.793-0.021c-0.105,0-0.307,0.011-0.528,0.011
				c-0.223,0.011-0.455,0.021-0.646,0.021c-0.116,0-0.18-0.031-0.18-0.095c0-0.042,0.032-0.095,0.148-0.095
				c0.137,0,0.243-0.011,0.327-0.032c0.19-0.042,0.243-0.211,0.275-0.476c0.042-0.381,0.042-1.089,0.042-1.914V76.209z
				 M85.515,76.356c0,0.074,0.031,0.085,0.063,0.096c0.084,0.021,0.222,0.031,0.434,0.031c0.307,0,0.57-0.031,0.729-0.158
				c0.243-0.19,0.423-0.519,0.423-0.952c0-0.603-0.359-1.354-1.163-1.354c-0.127,0-0.307,0-0.402,0.021
				c-0.063,0.011-0.084,0.053-0.084,0.148V76.356z M85.515,79c0,0.593,0.031,0.772,0.327,0.889c0.243,0.095,0.455,0.105,0.666,0.105
				c0.497,0,1.143-0.274,1.143-1.269c0-0.412-0.18-1.121-0.878-1.597c-0.19-0.138-0.444-0.232-0.804-0.232h-0.401
				c-0.032,0-0.053,0.01-0.053,0.063V79z"/>
			<path fill="#FFFFFF" d="M90.127,76.209c0-1.364,0-1.618-0.011-1.903c-0.021-0.307-0.105-0.402-0.401-0.486
				c-0.074-0.021-0.232-0.032-0.37-0.032c-0.095,0-0.158-0.031-0.158-0.095s0.073-0.085,0.211-0.085
				c0.486,0,1.079,0.021,1.343,0.021c0.296,0,2.358,0.01,2.538,0c0.169-0.011,0.317-0.043,0.392-0.053
				c0.053-0.011,0.105-0.043,0.147-0.043c0.053,0,0.063,0.043,0.063,0.085c0,0.063-0.053,0.169-0.074,0.581
				c-0.01,0.096-0.031,0.486-0.053,0.593c-0.011,0.042-0.031,0.147-0.105,0.147c-0.063,0-0.074-0.042-0.074-0.116
				c0-0.063-0.011-0.222-0.063-0.327c-0.074-0.159-0.147-0.286-0.613-0.328c-0.158-0.021-1.269-0.042-1.459-0.042
				c-0.042,0-0.063,0.031-0.063,0.084v2.221c0,0.053,0.011,0.096,0.063,0.096c0.212,0,1.417,0,1.628-0.021
				c0.223-0.021,0.35-0.053,0.444-0.138c0.074-0.063,0.106-0.116,0.148-0.116s0.074,0.042,0.074,0.095
				c0,0.054-0.021,0.201-0.074,0.656c-0.021,0.18-0.042,0.539-0.042,0.603c0,0.074-0.011,0.201-0.096,0.201
				c-0.063,0-0.085-0.032-0.085-0.074c-0.01-0.095-0.01-0.212-0.031-0.328c-0.053-0.18-0.169-0.317-0.519-0.349
				c-0.169-0.021-1.227-0.042-1.459-0.042c-0.042,0-0.053,0.042-0.053,0.095v0.719c0,0.307-0.011,1.068,0,1.333
				c0.021,0.613,0.307,0.751,1.259,0.751c0.243,0,0.634-0.011,0.877-0.117c0.232-0.105,0.339-0.296,0.402-0.666
				c0.021-0.095,0.042-0.137,0.105-0.137c0.074,0,0.085,0.116,0.085,0.211c0,0.201-0.074,0.814-0.127,0.994
				c-0.063,0.232-0.148,0.232-0.497,0.232c-0.698,0-1.259-0.011-1.713-0.031c-0.455-0.011-0.804-0.021-1.079-0.021
				c-0.105,0-0.307,0.011-0.528,0.011c-0.223,0.011-0.455,0.021-0.646,0.021c-0.116,0-0.18-0.031-0.18-0.095
				c0-0.042,0.032-0.095,0.148-0.095c0.137,0,0.243-0.011,0.327-0.032c0.19-0.042,0.243-0.211,0.275-0.476
				c0.042-0.381,0.042-1.089,0.042-1.914V76.209z"/>
			<path fill="#FFFFFF" d="M95.186,80.29c-0.148-0.063-0.181-0.105-0.181-0.307c0-0.486,0.043-1.047,0.054-1.194
				c0-0.138,0.042-0.232,0.116-0.232c0.084,0,0.095,0.084,0.095,0.147c0,0.116,0.032,0.307,0.085,0.466
				c0.2,0.666,0.898,0.888,1.48,0.888c0.804,0,1.29-0.508,1.29-1.142c0-0.392-0.096-0.783-0.92-1.27l-0.54-0.316
				c-1.1-0.646-1.459-1.248-1.459-2.041c0-1.1,1.058-1.809,2.348-1.809c0.603,0,1.078,0.085,1.322,0.148
				c0.084,0.021,0.126,0.053,0.126,0.116c0,0.116-0.031,0.37-0.031,1.078c0,0.19-0.042,0.286-0.116,0.286
				c-0.063,0-0.096-0.054-0.096-0.159c0-0.084-0.042-0.359-0.243-0.592c-0.137-0.169-0.434-0.423-1.036-0.423
				c-0.666,0-1.269,0.349-1.269,0.962c0,0.401,0.147,0.719,0.983,1.185l0.381,0.211c1.227,0.677,1.607,1.364,1.607,2.179
				c0,0.666-0.254,1.205-0.931,1.682c-0.444,0.316-1.058,0.37-1.555,0.37C96.158,80.523,95.587,80.47,95.186,80.29z"/>
			<path fill="#FFFFFF" d="M102.113,74.157l-1.385,0.032c-0.54,0.01-0.762,0.073-0.899,0.274c-0.095,0.127-0.138,0.243-0.158,0.307
				c-0.021,0.074-0.042,0.116-0.105,0.116s-0.085-0.053-0.085-0.147c0-0.148,0.18-1.016,0.201-1.09
				c0.021-0.116,0.053-0.169,0.105-0.169c0.074,0,0.169,0.074,0.401,0.105c0.275,0.032,0.624,0.043,0.931,0.043h3.775
				c0.296,0,0.497-0.021,0.635-0.043c0.147-0.021,0.222-0.042,0.254-0.042c0.063,0,0.073,0.053,0.073,0.19
				c0,0.19-0.021,0.856-0.021,1.089c-0.011,0.096-0.032,0.148-0.085,0.148c-0.074,0-0.095-0.042-0.105-0.18l-0.011-0.096
				c-0.021-0.232-0.265-0.507-1.1-0.518l-1.174-0.021v3.638c0,0.825,0.011,1.533,0.053,1.925c0.031,0.254,0.085,0.423,0.359,0.465
				c0.127,0.021,0.339,0.032,0.476,0.032c0.106,0,0.148,0.053,0.148,0.095c0,0.063-0.074,0.095-0.18,0.095
				c-0.613,0-1.237-0.031-1.502-0.031c-0.211,0-0.846,0.031-1.216,0.031c-0.116,0-0.18-0.031-0.18-0.095
				c0-0.042,0.032-0.095,0.148-0.095c0.137,0,0.254-0.011,0.327-0.032c0.19-0.042,0.243-0.211,0.275-0.476
				c0.042-0.381,0.042-1.089,0.042-1.914V74.157z"/>
			<path fill="#FFFFFF" d="M110.938,77.826c0,0.867,0.011,1.502,0.053,1.883c0.032,0.265,0.096,0.434,0.37,0.476
				c0.127,0.021,0.328,0.032,0.455,0.032c0.116,0,0.158,0.053,0.158,0.095c0,0.063-0.063,0.095-0.201,0.095
				c-0.592,0-1.247-0.031-1.49-0.031s-0.836,0.031-1.185,0.031c-0.127,0-0.19-0.021-0.19-0.095c0-0.042,0.031-0.095,0.138-0.095
				c0.137,0,0.243-0.011,0.327-0.032c0.19-0.042,0.243-0.211,0.275-0.476c0.042-0.381,0.042-1.047,0.042-1.914v-1.586
				c0-1.364,0-1.618-0.011-1.903c-0.021-0.307-0.105-0.413-0.401-0.486c-0.074-0.021-0.232-0.032-0.37-0.032
				c-0.085,0-0.158-0.031-0.158-0.095s0.073-0.085,0.222-0.085c0.476,0,1.068,0.021,1.332,0.021c0.359,0,2.422,0.01,2.644,0
				c0.17-0.011,0.286-0.021,0.381-0.043c0.053-0.01,0.096-0.053,0.148-0.053c0.031,0,0.063,0.043,0.063,0.085
				c0,0.063-0.043,0.169-0.074,0.401c-0.011,0.096-0.032,0.624-0.042,0.729c-0.011,0.074-0.032,0.181-0.096,0.181
				s-0.116-0.043-0.116-0.148c0-0.074,0.011-0.212-0.053-0.339s-0.243-0.264-0.592-0.274l-1.544-0.032
				c-0.054,0-0.085,0.021-0.085,0.127v2.179c0,0.053,0.011,0.085,0.063,0.085l1.301-0.011c0.158,0,0.285,0,0.423-0.011
				c0.169-0.011,0.307-0.042,0.392-0.159c0.053-0.053,0.073-0.095,0.126-0.095c0.032,0,0.054,0.032,0.054,0.085
				s-0.043,0.296-0.074,0.581c-0.021,0.18-0.032,0.593-0.032,0.656c0,0.073-0.01,0.2-0.105,0.2c-0.053,0-0.085-0.063-0.085-0.127
				s-0.021-0.169-0.063-0.274c-0.042-0.127-0.158-0.307-0.443-0.328c-0.233-0.021-1.333-0.031-1.491-0.031
				c-0.042,0-0.063,0.01-0.063,0.073V77.826z"/>
			<path fill="#FFFFFF" d="M114.145,77.002c0-1.533,1.078-3.521,3.901-3.521c2.348,0,3.807,1.301,3.807,3.362
				c0,2.063-1.501,3.681-3.901,3.681C115.244,80.523,114.145,78.599,114.145,77.002z M120.468,77.171
				c0-1.988-1.195-3.215-2.696-3.215c-1.036,0-2.253,0.55-2.253,2.771c0,1.851,1.058,3.311,2.813,3.311
				C118.987,80.037,120.468,79.729,120.468,77.171z"/>
			<path fill="#FFFFFF" d="M123.063,76.209c0-1.364,0-1.618-0.011-1.903c-0.021-0.307-0.105-0.402-0.401-0.486
				c-0.074-0.021-0.232-0.032-0.37-0.032c-0.095,0-0.158-0.031-0.158-0.095s0.073-0.085,0.211-0.085
				c0.486,0,1.079,0.021,1.269,0.021c0.317,0,1.164-0.021,1.449-0.021c0.592,0,1.269,0.053,1.766,0.381
				c0.265,0.18,0.656,0.635,0.656,1.237c0,0.666-0.381,1.258-1.29,1.987c0.824,1.016,1.479,1.83,2.04,2.391
				c0.519,0.518,0.847,0.56,0.994,0.592c0.096,0.021,0.148,0.021,0.223,0.021c0.073,0,0.116,0.053,0.116,0.095
				c0,0.074-0.063,0.095-0.18,0.095h-0.889c-0.519,0-0.771-0.053-1.015-0.18c-0.402-0.2-0.751-0.623-1.27-1.321
				c-0.37-0.486-0.761-1.089-0.878-1.227c-0.053-0.053-0.105-0.063-0.169-0.063l-0.835-0.021c-0.043,0-0.074,0.021-0.074,0.074
				v0.127c0,0.835,0.011,1.533,0.053,1.914c0.032,0.265,0.074,0.434,0.359,0.476c0.138,0.021,0.339,0.032,0.455,0.032
				c0.074,0,0.116,0.053,0.116,0.095c0,0.063-0.074,0.095-0.19,0.095c-0.539,0-1.312-0.031-1.448-0.031
				c-0.18,0-0.772,0.031-1.143,0.031c-0.116,0-0.18-0.031-0.18-0.095c0-0.042,0.032-0.095,0.148-0.095
				c0.137,0,0.243-0.011,0.327-0.032c0.19-0.042,0.243-0.211,0.275-0.476c0.042-0.381,0.042-1.089,0.042-1.914V76.209z
				 M124.247,76.906c0,0.096,0.021,0.127,0.085,0.159c0.2,0.063,0.476,0.084,0.708,0.084c0.37,0,0.497-0.031,0.655-0.147
				c0.286-0.201,0.604-0.593,0.604-1.333c0-1.269-0.867-1.597-1.417-1.597c-0.233,0-0.455,0.011-0.55,0.032
				c-0.063,0.021-0.085,0.053-0.085,0.127V76.906z"/>
			<path fill="#FFFFFF" d="M133.44,78.069c0-0.486-0.085-0.677-0.212-0.94c-0.063-0.138-1.332-2.115-1.66-2.591
				c-0.232-0.328-0.423-0.539-0.603-0.635c-0.116-0.063-0.274-0.116-0.392-0.116c-0.073,0-0.137-0.031-0.137-0.095
				s0.063-0.085,0.18-0.085c0.158,0,0.856,0.021,1.163,0.021c0.201,0,0.635-0.021,1.058-0.021c0.084,0,0.137,0.021,0.137,0.085
				c0,0.073-0.063,0.073-0.211,0.116c-0.074,0.021-0.127,0.063-0.127,0.137c0,0.074,0.042,0.181,0.116,0.308
				c0.169,0.274,1.386,2.379,1.544,2.633c0.116-0.212,1.248-2.137,1.385-2.411c0.096-0.201,0.138-0.359,0.138-0.476
				c0-0.085-0.042-0.17-0.2-0.201c-0.085-0.021-0.17-0.032-0.17-0.105c0-0.063,0.053-0.085,0.159-0.085
				c0.307,0,0.634,0.021,0.909,0.021c0.201,0,0.814-0.021,0.994-0.021c0.105,0,0.169,0.021,0.169,0.074
				c0,0.063-0.074,0.105-0.18,0.105c-0.096,0-0.265,0.042-0.402,0.105c-0.2,0.096-0.285,0.18-0.486,0.423
				c-0.307,0.36-1.639,2.496-1.808,2.877c-0.138,0.327-0.116,0.603-0.116,0.898v0.719c0,0.148,0,0.519,0.021,0.899
				c0.021,0.265,0.106,0.434,0.381,0.476c0.138,0.021,0.339,0.032,0.466,0.032c0.105,0,0.158,0.053,0.158,0.095
				c0,0.063-0.074,0.095-0.201,0.095c-0.581,0-1.205-0.031-1.459-0.031c-0.232,0-0.856,0.031-1.205,0.031
				c-0.127,0-0.201-0.021-0.201-0.095c0-0.042,0.042-0.095,0.147-0.095c0.127,0,0.243-0.011,0.328-0.032
				c0.19-0.042,0.265-0.211,0.285-0.476c0.032-0.381,0.032-0.751,0.032-0.899V78.069z"/>
			<path fill="#FFFFFF" d="M136.976,77.002c0-1.533,1.078-3.521,3.901-3.521c2.348,0,3.807,1.301,3.807,3.362
				c0,2.063-1.501,3.681-3.901,3.681C138.075,80.523,136.976,78.599,136.976,77.002z M143.299,77.171
				c0-1.988-1.195-3.215-2.696-3.215c-1.036,0-2.253,0.55-2.253,2.771c0,1.851,1.058,3.311,2.813,3.311
				C141.818,80.037,143.299,79.729,143.299,77.171z"/>
			<path fill="#FFFFFF" d="M145.81,76.209c0-1.364,0.011-1.618-0.011-1.903c-0.021-0.317-0.105-0.402-0.402-0.486
				c-0.073-0.021-0.232-0.032-0.359-0.032c-0.105,0-0.158-0.031-0.158-0.095s0.063-0.085,0.201-0.085
				c0.497,0,1.12,0.021,1.396,0.021c0.232,0,0.856-0.021,1.195-0.021c0.137,0,0.2,0.021,0.2,0.085s-0.053,0.095-0.147,0.095
				c-0.106,0-0.159,0.011-0.275,0.032c-0.243,0.042-0.317,0.169-0.338,0.486c-0.021,0.285-0.021,0.539-0.021,1.903v1.258
				c0,1.312,0.254,1.819,0.708,2.179c0.413,0.328,0.857,0.359,1.174,0.359c0.402,0,0.878-0.116,1.248-0.476
				c0.519-0.486,0.539-1.27,0.539-2.189v-1.131c0-1.364-0.01-1.618-0.021-1.903c-0.021-0.307-0.096-0.402-0.392-0.486
				c-0.074-0.021-0.232-0.032-0.338-0.032c-0.106,0-0.159-0.031-0.159-0.095s0.063-0.085,0.19-0.085c0.476,0,1.1,0.021,1.11,0.021
				c0.105,0,0.729-0.021,1.089-0.021c0.127,0,0.19,0.021,0.19,0.085s-0.053,0.095-0.158,0.095c-0.106,0-0.159,0.011-0.275,0.032
				c-0.254,0.042-0.317,0.169-0.338,0.486c-0.011,0.285-0.021,0.539-0.021,1.903v0.962c0,1.005-0.105,2.063-0.888,2.707
				c-0.656,0.55-1.364,0.646-1.968,0.646c-0.486,0-1.448-0.021-2.125-0.613c-0.476-0.413-0.846-1.079-0.846-2.38V76.209z"/>
		</g>
		<g>
			<polygon fill="#FFFFFF" points="93.5,27 97.945,27 97.977,23.977 93.5,23.922 			"/>
			<polygon fill="#FFFFFF" points="92.5,27 92.5,23.917 88.403,23.951 88.715,27 			"/>
			<polygon fill="#FFFFFF" points="93.5,29 93.5,31.541 97.199,31.801 97.779,29 			"/>
			<polygon fill="#FFFFFF" points="92.5,29 88.905,29 89.293,31.725 92.5,31.525 			"/>
		</g>
	</g>
</g>
</svg>
