<?xml version="1.0" encoding="utf-8"?>
<!-- Generator: Adobe Illustrator 14.0.0, SVG Export Plug-In  -->
<!DOCTYPE svg PUBLIC "-//W3C//DTD SVG 1.1//EN" "http://www.w3.org/Graphics/SVG/1.1/DTD/svg11.dtd" [
	<!ENTITY ns_flows "http://ns.adobe.com/Flows/1.0/">
]>
<svg version="1.1"
	 xmlns="http://www.w3.org/2000/svg" xmlns:xlink="http://www.w3.org/1999/xlink" xmlns:a="http://ns.adobe.com/AdobeSVGViewerExtensions/3.0/"
	 x="0px" y="0px" width="1013px" height="786px" viewBox="148.64 99.835 1013 786" enable-background="new 148.64 99.835 1013 786"
	 xml:space="preserve">
<defs>
</defs>
<g>
	<defs>
		<rect id="SVGID_16_" width="1190.56" height="1683.78"/>
	</defs>
	<clipPath id="SVGID_17_">
		<use xlink:href="#SVGID_16_"  overflow="visible"/>
	</clipPath>
	<path clip-path="url(#SVGID_17_)" fill="none" stroke="#000000" stroke-width="0.5" stroke-miterlimit="10" d="M165.999,377.335
		c29.596-10.616,69.662-7.475,100.002-0.032c27.464,6.738,56.488-2.388,82.6,9.106c5.292,2.33,9.95,0.237,15.061,2.518
		c9.846,4.396,10.476,9.658,23.147,5.588c24.246-7.788,49.824-1.58,75.418-1.25c9.005,0.118,18.482,0.912,27.15,3.469
		c8.724,2.571,16.994,10.195,26.092,9.659c10.15-0.6,22.975-10.804,32.641-14.368c12.138-4.478,24.87-7.787,37.916-6.686
		c15.581,1.318,28.478,9.006,43.296,12.752c14.674,3.712,24.395-1.138,38.471-5.34c16.479-4.916,34.115-5.912,50.953-2.25
		c16.414,3.572,27.447,12.958,43.801,11.928c31.309-1.97,62.828-2.107,93.762,3.786c10.063,1.918,15.047,3.068,18.867,1.978"/>
	<path clip-path="url(#SVGID_17_)" fill="none" stroke="#000000" stroke-width="0.5" stroke-miterlimit="10" d="M165.999,383.004
		c29.596-10.616,69.662-7.474,100.002-0.032c27.464,6.738,56.488-2.388,82.6,9.106c5.292,2.33,9.95,0.237,15.061,2.518
		c9.846,4.396,10.476,9.658,23.147,5.588c24.246-7.788,49.824-1.579,75.418-1.25c9.005,0.118,18.482,0.912,27.15,3.469
		c8.724,2.571,16.994,10.195,26.092,9.659c10.15-0.6,22.975-10.804,32.641-14.367c12.138-4.479,24.87-7.788,37.916-6.687
		c15.581,1.318,28.478,9.006,43.296,12.752c14.674,3.712,24.395-1.138,38.471-5.34c16.479-4.916,34.115-5.912,50.953-2.25
		c16.414,3.572,27.447,12.958,43.801,11.928c31.309-1.97,62.828-2.107,93.762,3.786c9.58,1.826,14.555,2.954,18.307,2.12"/>
	<path clip-path="url(#SVGID_17_)" fill="none" stroke="#000000" stroke-width="0.5" stroke-miterlimit="10" d="M165.999,388.673
		c29.596-10.616,69.662-7.474,100.002-0.032c27.464,6.738,56.488-2.388,82.6,9.106c5.292,2.33,9.95,0.238,15.061,2.518
		c9.846,4.396,10.476,9.658,23.147,5.588c24.246-7.787,49.824-1.58,75.418-1.25c9.005,0.118,18.482,0.912,27.15,3.469
		c8.724,2.571,16.994,10.195,26.092,9.66c10.15-0.601,22.975-10.805,32.641-14.368c12.138-4.479,24.87-7.788,37.916-6.687
		c15.581,1.318,28.478,9.006,43.296,12.752c14.674,3.712,24.395-1.138,38.471-5.34c16.479-4.916,34.115-5.912,50.953-2.25
		c16.414,3.572,27.447,12.958,43.801,11.928c31.309-1.97,62.828-2.107,93.762,3.786c9.088,1.734,14.033,2.838,17.719,2.234"/>
	<path clip-path="url(#SVGID_17_)" fill="none" stroke="#000000" stroke-width="0.5" stroke-miterlimit="10" d="M165.999,394.342
		c29.596-10.616,69.662-7.474,100.002-0.032c27.464,6.738,56.488-2.388,82.6,9.106c5.292,2.33,9.95,0.238,15.061,2.518
		c9.846,4.396,10.476,9.658,23.147,5.589c24.246-7.788,49.824-1.58,75.418-1.25c9.005,0.117,18.482,0.911,27.15,3.468
		c8.724,2.571,16.994,10.196,26.092,9.66c10.15-0.601,22.975-10.805,32.641-14.368c12.138-4.479,24.87-7.788,37.916-6.687
		c15.581,1.318,28.478,9.006,43.296,12.752c14.674,3.712,24.395-1.138,38.471-5.34c16.479-4.916,34.115-5.912,50.953-2.25
		c16.414,3.572,27.447,12.958,43.801,11.929c31.309-1.971,62.828-2.108,93.762,3.785c9.488,1.811,14.461,2.935,18.199,2.145"/>
	<path clip-path="url(#SVGID_17_)" fill="none" stroke="#000000" stroke-width="0.5" stroke-miterlimit="10" d="M165.999,400.011
		c29.596-10.616,69.662-7.475,100.002-0.032c27.464,6.738,56.488-2.388,82.6,9.106c5.292,2.33,9.95,0.237,15.061,2.518
		c9.846,4.396,10.476,9.658,23.147,5.588c24.246-7.788,49.824-1.58,75.418-1.25c9.005,0.118,18.482,0.912,27.15,3.469
		c8.724,2.571,16.994,10.195,26.092,9.659c10.15-0.6,22.975-10.804,32.641-14.368c12.138-4.478,24.87-7.787,37.916-6.686
		c15.581,1.318,28.478,9.006,43.296,12.752c14.674,3.712,24.395-1.138,38.471-5.34c16.479-4.916,34.115-5.912,50.953-2.25
		c16.414,3.572,27.447,12.958,43.801,11.928c31.309-1.97,62.828-2.107,93.762,3.786c9.604,1.83,14.582,2.96,18.336,2.114"/>
	<path clip-path="url(#SVGID_17_)" fill="none" stroke="#000000" stroke-width="0.5" stroke-miterlimit="10" d="M165.999,405.68
		c29.596-10.616,69.662-7.474,100.002-0.032c27.464,6.738,56.488-2.388,82.6,9.106c5.292,2.33,9.95,0.237,15.061,2.518
		c9.846,4.396,10.476,9.658,23.147,5.588c24.246-7.788,49.824-1.579,75.418-1.25c9.005,0.118,18.482,0.912,27.15,3.469
		c8.724,2.571,16.994,10.195,26.092,9.659c10.15-0.6,22.975-10.804,32.641-14.367c12.138-4.479,24.87-7.788,37.916-6.687
		c15.581,1.318,28.478,9.006,43.296,12.752c14.674,3.712,24.395-1.138,38.471-5.34c16.479-4.916,34.115-5.912,50.953-2.25
		c16.414,3.572,27.447,12.958,43.801,11.928c31.309-1.97,62.828-2.107,93.762,3.786c9.963,1.9,14.949,3.044,18.756,2.01"/>
	<path clip-path="url(#SVGID_17_)" fill="none" stroke="#000000" stroke-width="0.5" stroke-miterlimit="10" d="M165.999,411.349
		c29.596-10.616,69.662-7.474,100.002-0.032c27.464,6.738,56.488-2.388,82.6,9.106c5.292,2.33,9.95,0.238,15.061,2.518
		c9.846,4.396,10.476,9.658,23.147,5.588c24.246-7.787,49.824-1.58,75.418-1.25c9.005,0.118,18.482,0.912,27.15,3.469
		c8.724,2.571,16.994,10.195,26.092,9.66c10.15-0.601,22.975-10.805,32.641-14.368c12.138-4.479,24.87-7.788,37.916-6.687
		c15.581,1.318,28.478,9.006,43.296,12.752c14.674,3.712,24.395-1.138,38.471-5.34c16.479-4.916,34.115-5.912,50.953-2.25
		c16.414,3.572,27.447,12.958,43.801,11.928c31.309-1.97,62.828-2.107,93.762,3.786c9.613,1.834,14.596,2.964,18.352,2.112"/>
	<path clip-path="url(#SVGID_17_)" fill="none" stroke="#000000" stroke-width="0.5" stroke-miterlimit="10" d="M165.999,417.018
		c29.596-10.616,69.662-7.474,100.002-0.032c27.464,6.738,56.488-2.388,82.6,9.106c5.292,2.33,9.95,0.238,15.061,2.518
		c9.846,4.396,10.476,9.658,23.147,5.589c24.246-7.788,49.824-1.58,75.418-1.25c9.005,0.117,18.482,0.911,27.15,3.468
		c8.724,2.571,16.994,10.196,26.092,9.66c10.15-0.601,22.975-10.805,32.641-14.368c12.138-4.479,24.87-7.788,37.916-6.687
		c15.581,1.318,28.478,9.006,43.296,12.752c14.674,3.712,24.395-1.138,38.471-5.34c16.479-4.916,34.115-5.912,50.953-2.25
		c16.414,3.572,27.447,12.958,43.801,11.929c31.309-1.971,62.828-2.108,93.762,3.785c9.727,1.856,14.709,2.99,18.48,2.08"/>
	<path clip-path="url(#SVGID_17_)" fill="none" stroke="#000000" stroke-width="0.448" stroke-miterlimit="10" d="M874.952,408.193
		c3.43-1.214,5.691-5.218,11.162-14.054c7.295-11.774,15.92-22.528,25.434-31.553c9.18-8.695,21.105-10.228,30.709-17.033
		c12.391-8.778,26.66-22.748,37.107-34.887c6.223-7.228,14.123-13.396,20.113-14.666"/>
	<path clip-path="url(#SVGID_17_)" fill="none" stroke="#000000" stroke-width="0.448" stroke-miterlimit="10" d="M874.499,414.005
		c3.693-1.02,5.906-4.98,11.617-14.196c7.291-11.773,15.92-22.527,25.43-31.552c9.18-8.698,21.105-10.228,30.713-17.034
		c12.387-8.779,26.658-22.75,37.107-34.886c6.223-7.23,14.119-13.396,20.109-14.666"/>
	<path clip-path="url(#SVGID_17_)" fill="none" stroke="#000000" stroke-width="0.448" stroke-miterlimit="10" d="M874.028,419.787
		c3.984-0.812,6.139-4.708,12.088-14.31c7.291-11.774,15.92-22.528,25.432-31.553c9.18-8.695,21.105-10.228,30.709-17.033
		c12.391-8.778,26.66-22.748,37.109-34.887c6.221-7.228,14.119-13.396,20.111-14.666"/>
	<path clip-path="url(#SVGID_17_)" fill="none" stroke="#000000" stroke-width="0.448" stroke-miterlimit="10" d="M874.413,425.366
		c3.744-0.983,5.951-4.932,11.703-14.22c7.291-11.774,15.92-22.528,25.43-31.552c9.18-8.696,21.105-10.229,30.713-17.034
		c12.387-8.778,26.658-22.748,37.107-34.886c6.223-7.229,14.119-13.396,20.109-14.666"/>
	<path clip-path="url(#SVGID_17_)" fill="none" stroke="#000000" stroke-width="0.448" stroke-miterlimit="10" d="M874.521,431.005
		c3.682-1.03,5.898-4.992,11.596-14.189c7.291-11.772,15.92-22.528,25.432-31.553c9.18-8.695,21.104-10.228,30.709-17.034
		c12.391-8.777,26.66-22.747,37.109-34.886c6.221-7.228,14.119-13.396,20.111-14.666"/>
	<path clip-path="url(#SVGID_17_)" fill="none" stroke="#000000" stroke-width="0.448" stroke-miterlimit="10" d="M874.858,436.57
		c3.482-1.176,5.734-5.172,11.258-14.086c7.291-11.774,15.92-22.528,25.432-31.552c9.18-8.696,21.104-10.229,30.709-17.034
		c12.391-8.78,26.66-22.748,37.109-34.886c6.221-7.23,14.119-13.396,20.111-14.666"/>
	<path clip-path="url(#SVGID_17_)" fill="none" stroke="#000000" stroke-width="0.448" stroke-miterlimit="10" d="M874.536,442.34
		c3.672-1.036,5.887-5,11.578-14.186c7.295-11.774,15.922-22.528,25.434-31.553c9.18-8.697,21.105-10.228,30.709-17.034
		c12.391-8.779,26.66-22.75,37.107-34.886c6.223-7.229,14.123-13.396,20.113-14.668"/>
	<path clip-path="url(#SVGID_17_)" fill="none" stroke="#000000" stroke-width="0.448" stroke-miterlimit="10" d="M874.64,447.978
		c3.609-1.082,5.84-5.056,11.475-14.156c7.295-11.771,15.92-22.527,25.432-31.552c9.182-8.696,21.107-10.228,30.713-17.034
		c12.389-8.777,26.66-22.748,37.105-34.884c6.225-7.23,14.123-13.398,20.113-14.668"/>
	<path clip-path="url(#SVGID_17_)" fill="none" stroke="#000000" stroke-width="0.448" stroke-miterlimit="10" d="M874.448,453.701
		c3.723-0.998,5.934-4.952,11.666-14.21c7.293-11.774,15.922-22.528,25.434-31.552c9.18-8.696,21.105-10.229,30.709-17.034
		c12.391-8.78,26.66-22.748,37.107-34.886c6.223-7.23,14.123-13.396,20.113-14.666"/>
	<path clip-path="url(#SVGID_17_)" fill="none" stroke="#000000" stroke-width="0.5" stroke-miterlimit="10" d="M165.999,422.687
		c29.596-10.616,69.662-7.474,100.002-0.032c27.464,6.738,56.488-2.388,82.6,9.106c5.292,2.33,9.95,0.238,15.061,2.518
		c9.846,4.396,10.476,9.658,23.147,5.588c24.246-7.787,49.824-1.58,75.418-1.25c9.005,0.118,18.482,0.912,27.15,3.469
		c8.724,2.571,16.994,10.195,26.092,9.66c10.15-0.601,22.975-10.805,32.641-14.368c12.138-4.479,24.87-7.788,37.916-6.687
		c15.581,1.318,28.478,9.006,43.296,12.752c14.674,3.712,24.395-1.138,38.471-5.34c16.479-4.916,34.115-5.912,50.953-2.25
		c16.414,3.572,27.447,12.958,43.801,11.928c31.309-1.97,62.828-2.107,93.762,3.786c9.525,1.816,14.5,2.942,18.244,2.134"/>
	<path clip-path="url(#SVGID_17_)" fill="none" stroke="#000000" stroke-width="0.25" stroke-miterlimit="10" d="M635.954,398.311
		c0.549-0.344,1.117-0.696,1.697-1.054"/>
	
		<path clip-path="url(#SVGID_17_)" fill="none" stroke="#000000" stroke-width="0.25" stroke-miterlimit="10" stroke-dasharray="2.036,2.036" d="
		M641.122,395.135c35.695-21.63,112.623-63.674,117.146-104.254"/>
	<path clip-path="url(#SVGID_17_)" fill="none" stroke="#000000" stroke-width="0.25" stroke-miterlimit="10" d="M758.437,288.853
		c0.033-0.666,0.045-1.33,0.041-1.994"/>
	<path clip-path="url(#SVGID_17_)" fill="none" stroke="#000000" stroke-width="0.25" stroke-miterlimit="10" d="M513.117,404.977
		c0.5-0.448,0.994-0.898,1.476-1.351"/>
	
		<path clip-path="url(#SVGID_17_)" fill="none" stroke="#000000" stroke-width="0.25" stroke-miterlimit="10" stroke-dasharray="2.02,2.02" d="
		M517.476,400.793c4.974-5.106,9.182-10.504,14.122-15.89c7.042-7.677,15.754-10.963,24.474-16.58
		c12.99-8.37,19.498-19.612,28.9-30.83c7.308-8.723,19.332-14.042,28.191-21.57c6.188-5.258,9.479-11.57,13.879-17.662"/>
	<path clip-path="url(#SVGID_17_)" fill="none" stroke="#000000" stroke-width="0.25" stroke-miterlimit="10" d="M628.245,296.639
		c0.402-0.526,0.814-1.048,1.242-1.568"/>
	<path clip-path="url(#SVGID_17_)" fill="none" stroke="#000000" stroke-width="0.25" stroke-miterlimit="10" d="M755.917,399.948
		c0.648-0.184,1.281-0.398,1.895-0.638"/>
	
		<path clip-path="url(#SVGID_17_)" fill="none" stroke="#000000" stroke-width="0.25" stroke-miterlimit="10" stroke-dasharray="1.955,1.955" d="
		M761.3,397.553c8.615-5.332,13.785-16.104,21.516-22.065c12.908-9.952,28.578-12.475,40.086-25.265
		c4.914-5.462,8.547-13.228,13.994-17.796c6.654-5.582,15.889-8.072,23.178-13.11c10.617-7.34,16.137-15.558,22.883-25.308"/>
	<path clip-path="url(#SVGID_17_)" fill="none" stroke="#000000" stroke-width="0.25" stroke-miterlimit="10" d="M884.071,292.401
		c0.375-0.542,0.76-1.088,1.145-1.64"/>
	<path clip-path="url(#SVGID_17_)" fill="none" stroke="#000000" stroke-width="0.516" stroke-miterlimit="10" d="M1001.411,296.402
		c-6.855-0.972-24.191-7.448-31.098-7.976c-22.924-1.755-45.969-1.263-68.9,0.094c-17.41,1.027-29.16-8.358-46.637-11.928
		c-17.932-3.662-36.707-2.668-54.254,2.248c-14.99,4.201-25.338,9.052-40.967,5.342c-15.773-3.746-29.506-11.437-46.098-12.752
		c-13.891-1.104-27.447,2.205-40.371,6.684c-10.291,3.566-23.949,13.77-34.752,14.368c-9.691,0.538-18.494-7.088-27.783-9.66
		c-9.23-2.554-19.321-3.35-28.909-3.466c-27.252-0.33-54.484,5.462-80.303,13.25c-13.491,4.07-14.164,4.806-24.647,0.41
		c-5.44-2.28-10.4-6.188-16.034-8.519c-27.804-11.494-60.338-13.254-89.58-19.992c-6.974-3.113-21.806,0.206-29.61,1.076
		c-11.405,1.272-17.094,1.389-28.044-1.777c-15.651-0.206-26.72,5.743-38.985,13.731c-13.437,25.13-36.256,29.648-57.055,43.424
		c-17.903,11.858-47.016,32.937-51.386,56.784"/>
</g>
<g>
	<defs>
		<path id="SVGID_15_" d="M247.15,143.935l-1.883,11.302l64.024,150.424c9.692-9.048,32.52,0,32.52,0s15.108-5.34,23.32-4.518
			l-86.714-157.208H247.15z"/>
	</defs>
	<clipPath id="SVGID_18_">
		<use xlink:href="#SVGID_15_"  overflow="visible"/>
	</clipPath>
	<path clip-path="url(#SVGID_18_)" fill="#D3D5D6" d="M408.871,664.99c12.324-2.794,8.126,44.61,7.716,44.517
		c-0.124-0.028,3.076,6.825,21.804-23.835c9.307-15.268,6.2-60.817-5.155-108.226c-10.67-47.32-29.595-96.496-36.051-116.948
		c-5.29-17.95-25.115-89.086-56.77-158.241c-29.936-69.356-71.702-136.73-81.226-151.734c9.495,15,47.779,82.742,73.424,152.941
		c27.382,69.998,42.12,142.459,44.688,162.252c3.232,21.261,6.21,68.813,4.916,115.108c-0.678,46.376-5.63,91.496-4.058,109.762
		c2.628,31.874,19.102,23.387,19.229,23.418C397.775,714.095,397.337,667.954,408.871,664.99"/>
	<path clip-path="url(#SVGID_18_)" fill="none" stroke="#000000" stroke-width="0.886" stroke-miterlimit="10" d="M408.871,664.99
		c12.324-2.794,8.126,44.61,7.716,44.517c-0.124-0.028,3.076,6.825,21.804-23.835c9.307-15.268,6.2-60.817-5.155-108.226
		c-10.67-47.32-29.595-96.496-36.051-116.948c-5.29-17.95-25.115-89.086-56.77-158.241c-29.936-69.356-71.702-136.73-81.226-151.734
		c9.495,15,47.779,82.742,73.424,152.941c27.382,69.998,42.12,142.459,44.688,162.252c3.232,21.261,6.21,68.813,4.916,115.108
		c-0.678,46.376-5.63,91.496-4.058,109.762c2.628,31.874,19.102,23.387,19.229,23.418
		C397.775,714.095,397.337,667.954,408.871,664.99z"/>
</g>
<g>
	<defs>
		<rect id="SVGID_14_" width="1190.56" height="1683.78"/>
	</defs>
	<clipPath id="SVGID_19_">
		<use xlink:href="#SVGID_14_"  overflow="visible"/>
	</clipPath>
	<path clip-path="url(#SVGID_19_)" fill="none" stroke="#000000" stroke-width="0.886" stroke-miterlimit="10" d="M311.292,307.66
		c9.692-9.048,32.521,0,32.521,0s15.106-5.34,23.318-4.519"/>
</g>
<g>
	<defs>
		<path id="SVGID_13_" d="M322.76,157.646l-0.676,11.439l79.592,142.798c8.679-10.025,32.338-3.443,32.338-3.443
			s14.458-6.908,26.71-6.962L357.85,154.336L322.76,157.646z"/>
	</defs>
	<clipPath id="SVGID_20_">
		<use xlink:href="#SVGID_13_"  overflow="visible"/>
	</clipPath>
	<path clip-path="url(#SVGID_20_)" fill="#D3D5D6" d="M538.628,660.281c12.24-3.95,13.66,42.168,13.262,42.078
		c-0.136-0.032,4.021,6.276,19.456-25.198c7.658-15.682-1.149-59.354-17.979-104.504c-16.2-45.072-40.424-91.62-49.036-111.218
		c-7.238-17.204-34.482-85.683-72.972-152.286c-36.849-66.796-84.942-131.722-95.931-146.232
		c10.956,14.502,55.772,80.181,88.426,148.282c34.341,67.908,56.521,138.238,61.185,157.536
		c5.454,20.724,13.386,67.352,17.052,112.634c4.28,45.364,4.29,89.382,8.044,106.774c6.428,30.352,22.437,20.479,22.55,20.508
		C533.048,708.741,527.144,664.394,538.628,660.281"/>
	<path clip-path="url(#SVGID_20_)" fill="none" stroke="#000000" stroke-width="0.886" stroke-miterlimit="10" d="M538.628,660.281
		c12.24-3.95,13.66,42.168,13.262,42.078c-0.136-0.032,4.021,6.276,19.456-25.198c7.658-15.682-1.149-59.354-17.979-104.504
		c-16.2-45.072-40.424-91.62-49.036-111.218c-7.238-17.204-34.482-85.683-72.972-152.286
		c-36.849-66.796-84.942-131.722-95.931-146.232c10.956,14.502,55.772,80.181,88.426,148.282
		c34.341,67.908,56.521,138.238,61.185,157.536c5.454,20.724,13.386,67.352,17.052,112.634c4.28,45.364,4.29,89.382,8.044,106.774
		c6.428,30.352,22.437,20.479,22.55,20.508C533.048,708.741,527.144,664.394,538.628,660.281z"/>
</g>
<g>
	<defs>
		<rect id="SVGID_12_" width="1190.56" height="1683.78"/>
	</defs>
	<clipPath id="SVGID_21_">
		<use xlink:href="#SVGID_12_"  overflow="visible"/>
	</clipPath>
	<path clip-path="url(#SVGID_21_)" fill="none" stroke="#000000" stroke-width="0.886" stroke-miterlimit="10" d="M403.875,313.661
		c8.68-10.023,32.338-3.444,32.338-3.444s14.458-6.909,22.71-6.962"/>
</g>
<g>
	<defs>
		<path id="SVGID_11_" d="M407.12,181.338l-1.884,11.303l64.023,150.422c9.694-9.048,32.522,0,32.522,0s15.107-5.338,23.319-4.517
			l-86.714-157.208H407.12z"/>
	</defs>
	<clipPath id="SVGID_22_">
		<use xlink:href="#SVGID_11_"  overflow="visible"/>
	</clipPath>
	<path clip-path="url(#SVGID_22_)" fill="#D3D5D6" d="M568.84,702.393c12.324-2.792,8.126,44.612,7.716,44.519
		c-0.122-0.03,3.076,6.825,21.805-23.834c9.305-15.271,6.199-60.818-5.156-108.227c-10.67-47.322-29.595-96.498-36.051-116.948
		c-5.289-17.951-25.113-89.088-56.77-158.243c-29.936-69.354-71.702-136.73-81.226-151.734
		c9.495,15.002,47.779,82.742,73.424,152.941c27.382,70,42.12,142.461,44.688,162.253c3.232,21.26,6.21,68.813,4.918,115.107
		c-0.68,46.376-5.632,91.496-4.06,109.765c2.628,31.873,19.102,23.386,19.231,23.418
		C557.742,751.499,557.304,705.356,568.84,702.393"/>
	<path clip-path="url(#SVGID_22_)" fill="none" stroke="#000000" stroke-width="0.886" stroke-miterlimit="10" d="M568.84,702.393
		c12.324-2.792,8.126,44.612,7.716,44.519c-0.122-0.03,3.076,6.825,21.805-23.834c9.305-15.271,6.199-60.818-5.156-108.227
		c-10.67-47.322-29.595-96.498-36.051-116.948c-5.289-17.951-25.113-89.088-56.77-158.243
		c-29.936-69.354-71.702-136.73-81.226-151.734c9.495,15.002,47.779,82.742,73.424,152.941c27.382,70,42.12,142.461,44.688,162.253
		c3.232,21.26,6.21,68.813,4.918,115.107c-0.68,46.376-5.632,91.496-4.06,109.765c2.628,31.873,19.102,23.386,19.231,23.418
		C557.742,751.499,557.304,705.356,568.84,702.393z"/>
</g>
<g>
	<defs>
		<rect id="SVGID_10_" width="1190.56" height="1683.78"/>
	</defs>
	<clipPath id="SVGID_23_">
		<use xlink:href="#SVGID_10_"  overflow="visible"/>
	</clipPath>
	<path clip-path="url(#SVGID_23_)" fill="none" stroke="#000000" stroke-width="0.886" stroke-miterlimit="10" d="M471.261,345.063
		c9.692-9.048,32.522,0,32.522,0s15.107-5.34,23.317-4.518"/>
	<polyline clip-path="url(#SVGID_23_)" fill="none" stroke="#000000" stroke-width="0.513" stroke-miterlimit="10" points="
		1001.411,296.402 1001.411,758.763 878.003,885.364 	"/>
	<path clip-path="url(#SVGID_23_)" fill="#F2C7C7" d="M999.97,341.818c-5.99,1.27-13.889,7.438-20.113,14.666
		c-10.445,12.138-24.717,26.108-37.105,34.886c-9.605,6.807-21.531,8.338-30.713,17.034c-9.512,9.024-18.137,19.78-25.432,31.552
		c-5.734,9.26-8.268,13.674-11.992,14.672c-3.744,0.809-9.043,0.146-18.57-1.672c-30.932-5.894-62.451-5.758-93.762-3.784
		c-16.352,1.026-27.385-8.359-43.799-11.93c-16.838-3.662-34.473-2.668-50.953,2.25c-14.078,4.2-23.797,9.05-38.471,5.34
		c-14.816-3.746-27.715-11.434-43.299-12.752c-13.044-1.104-25.776,2.206-37.914,6.687c-9.666,3.565-22.492,13.768-32.64,14.365
		c-9.099,0.54-17.366-7.086-26.092-9.659c-8.666-2.555-18.146-3.349-27.15-3.464c-25.594-0.332-51.172-6.541-75.416,1.25
		c-12.672,4.069-13.304-1.196-23.15-5.591c-5.109-2.281-9.766-0.189-15.06-2.52c-26.112-11.494-55.136-2.368-82.6-9.106
		c-30.341-7.439-70.404-10.584-100.002,0.032v46.974c0,0,17.502,15.92,46.071,10.816c28.572-5.102,99.986-33.08,107.391-9.194
		c7.403,23.889,7.47,49.046-21.104,45.236c-28.572-3.81-41.386-0.014-40.828,13.332c0.838,19.984,26.849,7.246,29.4,11.43
		c2.552,4.185-35.712-5.934-29.4,20.216c7.834,32.444,33.122-14.472,37.223-13.104c4.102,1.368-44.872,45.252-12.036,52.476
		c19.146,4.212,12.676-19.054,20.828-43.794c7.14-21.674,14.609-32.602,18.802-26.462c8.978,13.152,20.722,47.62,17.13,81.906
		c-3.594,34.286-6.09,111.976-2.938,139.178c3.154,27.202,26.851,23.99,26.851,23.99s-17.47-92.21,4.008-88.872
		c21.476,3.338,13.67,84.252,13.67,84.252s36.722-9.596,42.437-51.502c5.714-41.904-21.956-142.229-33.836-168.448
		c-11.881-26.218-16.32-71.252,14.472-70.64c30.941,0.62,64.512,7.566,86.03,7.566c20.951,0,63.747-20.272,81.397-21.566
		c17.65-1.292,46.888,29.184,64.649,25.374c17.762-3.808,34.904-8.176,50.143-11.374c15.24-3.196,36.191,19.662,47.619,17.756
		c11.43-1.906,17.141-19.66,36.191-17.756c19.047,1.906,15.238,12.04,38.096,15.85c0,0,11.426-28.569,24.76-28.569
		s42.416,28.569,42.416,28.569s7.107-24.762,20.441-38.094c13.334-13.334,35.572-14.354,41.596-17.654
		c6.025-3.298,21.264-34.069,28.881-45.352c7.619-11.28,35.875-13.388,35.875-13.388L999.97,341.818z"/>
	<path clip-path="url(#SVGID_23_)" fill="none" stroke="#000000" stroke-width="0.448" stroke-miterlimit="10" d="M999.97,341.818
		c-5.99,1.27-13.889,7.438-20.113,14.666c-10.445,12.138-24.717,26.108-37.105,34.886c-9.605,6.807-21.531,8.338-30.713,17.034
		c-9.512,9.024-18.137,19.78-25.432,31.552c-5.734,9.26-8.268,13.674-11.992,14.672c-3.744,0.809-9.043,0.146-18.57-1.672
		c-30.932-5.894-62.451-5.758-93.762-3.784c-16.352,1.026-27.385-8.359-43.799-11.93c-16.838-3.662-34.473-2.668-50.953,2.25
		c-14.078,4.2-23.797,9.05-38.471,5.34c-14.816-3.746-27.715-11.434-43.299-12.752c-13.044-1.104-25.776,2.206-37.914,6.687
		c-9.666,3.565-22.492,13.768-32.64,14.365c-9.099,0.54-17.366-7.086-26.092-9.659c-8.666-2.555-18.146-3.349-27.15-3.464
		c-25.594-0.332-51.172-6.541-75.416,1.25c-12.672,4.069-13.304-1.196-23.15-5.591c-5.109-2.281-9.766-0.189-15.06-2.52
		c-26.112-11.494-55.136-2.368-82.6-9.106c-30.341-7.439-70.404-10.584-100.002,0.032v46.974c0,0,17.502,15.92,46.071,10.816
		c28.572-5.102,99.986-33.08,107.391-9.194c7.403,23.889,7.47,49.046-21.104,45.236c-28.572-3.81-41.386-0.014-40.828,13.332
		c0.838,19.984,26.849,7.246,29.4,11.43c2.552,4.185-35.712-5.934-29.4,20.216c7.834,32.444,33.122-14.472,37.223-13.104
		c4.102,1.368-44.872,45.252-12.036,52.476c19.146,4.212,12.676-19.054,20.828-43.794c7.14-21.674,14.609-32.602,18.802-26.462
		c8.978,13.152,20.722,47.62,17.13,81.906c-3.594,34.286-6.09,111.976-2.938,139.178c3.154,27.202,26.851,23.99,26.851,23.99
		s-17.47-92.21,4.008-88.872c21.476,3.338,13.67,84.252,13.67,84.252s36.722-9.596,42.437-51.502
		c5.714-41.904-21.956-142.229-33.836-168.448c-11.881-26.218-16.32-71.252,14.472-70.64c30.941,0.62,64.512,7.566,86.03,7.566
		c20.951,0,63.747-20.272,81.397-21.566c17.65-1.292,46.888,29.184,64.649,25.374c17.762-3.808,34.904-8.176,50.143-11.374
		c15.24-3.196,36.191,19.662,47.619,17.756c11.43-1.906,17.141-19.66,36.191-17.756c19.047,1.906,15.238,12.04,38.096,15.85
		c0,0,11.426-28.569,24.76-28.569s42.416,28.569,42.416,28.569s7.107-24.762,20.441-38.094
		c13.334-13.334,35.572-14.354,41.596-17.654c6.025-3.298,21.264-34.069,28.881-45.352c7.619-11.28,35.875-13.388,35.875-13.388
		L999.97,341.818z"/>
	<path clip-path="url(#SVGID_23_)" fill="#D1D3D4" d="M374.949,726.09c12.322-2.792,8.124,44.61,7.716,44.516
		c-0.124-0.027,3.076,6.828,21.804-23.832c9.307-15.268,6.2-60.819-5.157-108.228c-10.67-47.32-29.593-96.496-36.049-116.948
		c-5.897-20.264-26.449-92.51-58.302-161.612c-30.138-69.31-71.574-135.474-79.693-148.363
		c8.107,12.88,46.476,79.932,72.428,150.354c27.712,70.21,43.008,143.788,45.684,164.842c3.232,21.259,6.21,68.813,4.916,115.106
		c-0.678,46.376-5.63,91.498-4.058,109.764c2.628,31.874,19.102,23.385,19.229,23.416
		C363.852,775.194,363.415,729.054,374.949,726.09"/>
	<path clip-path="url(#SVGID_23_)" fill="none" stroke="#000000" stroke-width="0.886" stroke-miterlimit="10" d="M374.949,726.09
		c12.322-2.792,8.124,44.61,7.716,44.516c-0.124-0.027,3.076,6.828,21.804-23.832c9.307-15.268,6.2-60.819-5.157-108.228
		c-10.67-47.32-29.593-96.496-36.049-116.948c-5.897-20.264-26.449-92.51-58.302-161.612
		c-30.138-69.31-71.574-135.474-79.693-148.363c8.107,12.88,46.476,79.932,72.428,150.354
		c27.712,70.21,43.008,143.788,45.684,164.842c3.232,21.259,6.21,68.813,4.916,115.106c-0.678,46.376-5.63,91.498-4.058,109.764
		c2.628,31.874,19.102,23.385,19.229,23.416C363.852,775.194,363.415,729.054,374.949,726.09z"/>
	<polyline clip-path="url(#SVGID_23_)" fill="none" stroke="#000000" stroke-width="0.513" stroke-miterlimit="10" points="
		165.999,377.745 165.999,885.364 878.001,885.364 878.001,407.025 	"/>
	<path clip-path="url(#SVGID_23_)" fill="none" stroke="#DD2726" stroke-width="2" stroke-miterlimit="10" d="M378.789,773.664
		c0,0,36.722-9.598,42.436-51.5c5.715-41.906-21.956-142.229-33.836-168.45c-11.88-26.218-16.319-71.252,14.473-70.64
		c30.941,0.62,64.512,7.565,86.029,7.565c20.952,0,63.748-20.271,81.398-21.565c17.649-1.292,46.888,29.184,64.649,25.376
		c17.762-3.811,34.904-8.176,50.143-11.376c15.24-3.196,36.191,19.66,47.619,17.756c11.43-1.904,17.141-19.66,36.191-17.756
		c19.047,1.906,15.238,12.042,38.096,15.852c0,0,11.428-28.571,24.76-28.571c13.334,0,42.416,28.571,42.416,28.571
		s7.107-24.762,20.441-38.096s35.572-14.354,41.596-17.654c6.025-3.298,21.264-34.069,28.881-45.352
		c7.619-11.282,35.873-13.388,35.873-13.388"/>
	<path clip-path="url(#SVGID_23_)" fill="none" stroke="#DD2726" stroke-width="2" stroke-miterlimit="10" d="M163.724,472.258
		c0,0,17.5,15.92,46.072,10.816c28.571-5.103,99.985-33.08,107.39-9.192c7.404,23.886,7.468,49.044-21.104,45.236
		c-28.572-3.813-41.389-0.017-40.828,13.332c0.838,19.981,26.848,7.244,29.399,11.43c2.553,4.182-35.714-5.936-29.399,20.214
		c7.834,32.446,33.122-14.47,37.222-13.104c4.1,1.368-44.872,45.252-12.036,52.476c19.146,4.212,12.676-19.052,20.826-43.794
		c7.142-21.672,14.612-32.603,18.804-26.46c8.979,13.152,20.723,47.62,17.128,81.906c-3.592,34.283-6.09,111.976-2.936,139.178
		c3.154,27.2,26.85,23.99,26.85,23.99"/>
</g>
<g>
	<defs>
		<rect id="SVGID_9_" width="1190.56" height="1683.78"/>
	</defs>
	<clipPath id="SVGID_24_">
		<use xlink:href="#SVGID_9_"  overflow="visible"/>
	</clipPath>
	<path clip-path="url(#SVGID_24_)" fill="none" stroke="#000000" stroke-width="0.448" stroke-miterlimit="10" d="M427.63,448.345
		c-5.198,8.114-14.222,8.122-20.876,13.918"/>
	<path clip-path="url(#SVGID_24_)" fill="none" stroke="#000000" stroke-width="0.448" stroke-miterlimit="10" d="M405.015,448.345
		c4.962-0.204,12.486-1.288,15.656-5.218"/>
	<path clip-path="url(#SVGID_24_)" fill="none" stroke="#000000" stroke-width="0.448" stroke-miterlimit="10" d="M395.784,437.037
		c0.41,4.166,5.376,14.46,7.828,17.396"/>
	<path clip-path="url(#SVGID_24_)" fill="none" stroke="#000000" stroke-width="0.448" stroke-miterlimit="10" d="M405.106,448.315
		c-0.874,0.344-1.608,0.146-2.464,0.08c-0.19-0.148,0.02-0.028,0.086-0.08"/>
	<path clip-path="url(#SVGID_24_)" fill="none" stroke="#000000" stroke-width="0.448" stroke-miterlimit="10" d="M413.379,438.801
		c-0.96,0.908-1.382,2.324-2.09,3.39c-0.422,0.637-1.076,1.396-1.092,2.19c-0.015,0.756,0.384,1.19,0.388,1.97
		c0.002,0.692-0.426,1.256-0.542,1.95"/>
	<path clip-path="url(#SVGID_24_)" fill="none" stroke="#000000" stroke-width="0.448" stroke-miterlimit="10" d="M422.687,453.382
		c-0.172,1.178,2.36,0.588,2.974,0.442c1.354-0.322,2.301-1.126,3.416-1.895c1.671-1.149,3.561-1.6,5.326-2.58
		c1.174-0.651,2.296-1.478,3.252-2.38c0.944-0.888,1.98-1.436,3.13-2.068c1.334-0.731,2.96-1.649,3.723-2.997"/>
	<path clip-path="url(#SVGID_24_)" fill="none" stroke="#000000" stroke-width="0.448" stroke-miterlimit="10" d="M425.582,451.004
		c-1.076-0.894-0.378-2.18-0.206-3.312c0.178-1.152-0.05-2.374,0.23-3.511c0.191-0.79,0.357-1.794,0.672-2.489
		c0.416-0.925,1.292-1.809,1.58-2.685"/>
	<path clip-path="url(#SVGID_24_)" fill="none" stroke="#000000" stroke-width="0.448" stroke-miterlimit="10" d="M433.855,442.11
		c-0.603,0.926-1.65,2.018-2.648,2.804c-1.436,1.132-2.468,2.55-3.754,3.786c0.154-0.308-0.038-0.09,0.095-0.592"/>
	<path clip-path="url(#SVGID_24_)" fill="none" stroke="#000000" stroke-width="0.448" stroke-miterlimit="10" d="M420.671,443.126
		c1.516-2.242,3-4.981,2.17-3.412"/>
	<path clip-path="url(#SVGID_24_)" fill="none" stroke="#000000" stroke-width="0.448" stroke-miterlimit="10" d="M418.239,455.347
		c0.128-1.072-0.872-1.822-0.626-2.898c0.144-0.621,0.794-0.995,1.044-1.548c0.452-0.991-0.092-1.796-0.108-2.792"/>
	<path clip-path="url(#SVGID_24_)" fill="none" stroke="#000000" stroke-width="0.448" stroke-miterlimit="10" d="M406.754,438.777
		c-10.22,12.842,1.313,31.27,14.786,35.878c3.382,10.04,3.189,20.778,6.59,30.682c2.706,7.876,8.874,13.486,12.522,20.799
		c5.735,11.498,11.832,23.025,18.502,34.016c7.954,13.109,18.777,23.778,28.031,35.784c4.988,6.472,8.299,14.233,13,20.894
		c4.385,6.21,9.96,11.236,15.314,16.67c19.64,19.944,33.928,40.608,60.018,53.202c57.858,27.935,126.899,21.13,188.966,26.596
		c25.336,2.23,50.797,3.83,76.184,2.702c12.578-0.56,25,0.61,37.248-0.813c-0.184-0.748-0.498-0.563-1.248-1.185"/>
	
		<path clip-path="url(#SVGID_24_)" fill="none" stroke="#000000" stroke-width="0.5" stroke-linecap="round" stroke-miterlimit="10" d="
		M484.959,443.659c-4.138,2.234-8.726,7.522-12.208,8.174"/>
	
		<path clip-path="url(#SVGID_24_)" fill="none" stroke="#000000" stroke-width="0.5" stroke-linecap="round" stroke-miterlimit="10" d="
		M475.638,461.297c4.656-6.397,13.67-7.924,19.104-12.952"/>
	
		<path clip-path="url(#SVGID_24_)" fill="none" stroke="#000000" stroke-width="0.5" stroke-linecap="round" stroke-miterlimit="10" d="
		M476.609,477.487c3.11-2.848,3.282-2.146,6.476-1.936c3.774,0.248,7.408-0.652,11.08-1.313c2.74-0.492,6.404-0.441,8.925-1.674
		c2.271-1.114,2.615-3.566,4.338-5.044c4.146-3.558,10.456,0.214,12.823-5.002c1.242-2.738,3.87-6.738,3.706-9.906
		c0.454-0.582,0.104,0.04,0.252,0.264"/>
	
		<path clip-path="url(#SVGID_24_)" fill="none" stroke="#000000" stroke-width="0.5" stroke-linecap="round" stroke-miterlimit="10" d="
		M509.699,453.327c-1.456,3.256-1.424,3.21-1.988,6.689c-0.346,2.143-0.41,5.555-0.962,7.608"/>
	
		<path clip-path="url(#SVGID_24_)" fill="none" stroke="#000000" stroke-width="0.5" stroke-linecap="round" stroke-miterlimit="10" d="
		M503.809,451.259c-1.996,5.462-4.418,9.632-8.508,13.853c-1.172,1.21-2.942,2.844-3.725,4.354
		c-0.821,1.582-0.523,4.508-1.367,5.433"/>
	
		<path clip-path="url(#SVGID_24_)" fill="none" stroke="#000000" stroke-width="0.5" stroke-linecap="round" stroke-miterlimit="10" d="
		M458.152,441.221c2.43,4.33,2.946,7.714,6.806,10.624c2.717,2.042,4.96,5.208,8.736,5.242"/>
	
		<path clip-path="url(#SVGID_24_)" fill="none" stroke="#000000" stroke-width="3" stroke-linecap="round" stroke-miterlimit="10" d="
		M456,442.334c1.042-0.401,1.99-1.388,3.084-1.584"/>
	
		<path clip-path="url(#SVGID_24_)" fill="none" stroke="#000000" stroke-width="3" stroke-linecap="round" stroke-miterlimit="10" d="
		M482.667,443.834c0.88,0.306,1.964,0.11,2.75,0.416"/>
	
		<path clip-path="url(#SVGID_24_)" fill="none" stroke="#000000" stroke-width="3" stroke-linecap="round" stroke-miterlimit="10" d="
		M492.667,447.001c0.708,1.603,1.792,1.106,2.916,1.916"/>
	
		<path clip-path="url(#SVGID_24_)" fill="none" stroke="#000000" stroke-width="3" stroke-linecap="round" stroke-miterlimit="10" d="
		M501.167,450.918c0.746,0.616,1.838,1.95,2.834,1.5"/>
	
		<path clip-path="url(#SVGID_24_)" fill="none" stroke="#000000" stroke-width="3" stroke-linecap="round" stroke-miterlimit="10" d="
		M507.417,453.668c1.162,0.35,2.232,0.53,3.25,0.666"/>
	
		<path clip-path="url(#SVGID_24_)" fill="none" stroke="#000000" stroke-width="3" stroke-linecap="round" stroke-miterlimit="10" d="
		M520.834,454.084c1.397-0.118,3.316-0.752,4.334-1.75"/>
	
		<path clip-path="url(#SVGID_24_)" fill="none" stroke="#000000" stroke-width="3" stroke-linecap="round" stroke-miterlimit="10" d="
		M467.417,441.834c1.16,0,2.364-0.069,3.416-0.416"/>
	
		<path clip-path="url(#SVGID_24_)" fill="none" stroke="#000000" stroke-width="0.5" stroke-linecap="round" stroke-miterlimit="10" d="
		M877.335,710.001c-3.238,2.521-29.75,2.256-35.336,2.019c-12.664-0.542-25.955-2.904-38.504-4.834
		c-12.426-1.91-24.533-3.931-36.977-4.519c-14.107-0.664-25.498-3.338-39.318-6.182c-19.002-3.908-39.432-3.214-57.865-8.486
		c-12.707-3.634-26.176-8.32-38.832-12.816c-11.891-4.224-24.014-5.869-35.871-10.016c-9.282-3.248-17.016-7.752-23.298-15.166
		c-4.516-5.326-6.422-12.288-10.67-17.498c-5.406-6.63-13.706-10.458-19.182-17.302c-7.087-8.856-27.898-19.096-31.631-29.366
		c-3.348-9.212-5.88-18.88-10.002-27.828c-3.05-6.617-8.624-11.67-13.22-17.34c-7.264-8.96-17.712-25-19.578-35.348
		c2.73-11.454,7.28-5.771,11.67-16.7c-3.052-4.61-1.726-9.074-2.184-14.298c-0.402-4.588-0.479-9.334-1.952-13.754
		c-1.348-4.038-1.802-8.42-3.726-12.223c-1.433-2.83-2.322-3.748-2.347-7.123"/>
	<path clip-path="url(#SVGID_24_)" fill="#FEEAE8" d="M625.038,588.129c1.787,0.958,2.828,2.784,4.508,3.856
		c0.098-2.53-1.293-3.696,0.828-6c1.578-1.717,3.914-2.622,5.752-4.017c4.066-3.084,7.766-6.262,12.605-7.987
		c5.541-1.979,8.652-4.066,11.961-8.971c4.318-6.397,12.754-9.556,13.6-18.008c0.539-5.416-5.609-5.884-9.684-6.316
		c-2.459-2.067-8.314-0.832-11.838-0.724c-3.941,0.124-7.674,0.88-11.537,1.402c-10.238,1.384-20.344-1.774-30.539,0.306
		c-7.4,1.512-14.871,2.496-22.031,4.858c-6.434,2.122-9.974,6.968-11.086,13.76c-0.644,3.932,0.418,7.452,4.048,9.479
		c2.143,1.194,4.559,2.099,6.798,3.051c3.223,1.369,5.398,3.418,8.379,5.147c4.799,2.786,10.438,3.872,15.607,5.692
		C616.511,585.101,621.202,586.077,625.038,588.129"/>
	
		<path clip-path="url(#SVGID_24_)" fill="none" stroke="#000000" stroke-width="0.5" stroke-linecap="round" stroke-miterlimit="10" d="
		M625.038,588.129c1.787,0.958,2.828,2.784,4.508,3.856c0.098-2.53-1.293-3.696,0.828-6c1.578-1.717,3.914-2.622,5.752-4.017
		c4.066-3.084,7.766-6.262,12.605-7.987c5.541-1.979,8.652-4.066,11.961-8.971c4.318-6.397,12.754-9.556,13.6-18.008
		c0.539-5.416-5.609-5.884-9.684-6.316c-2.459-2.067-8.314-0.832-11.838-0.724c-3.941,0.124-7.674,0.88-11.537,1.402
		c-10.238,1.384-20.344-1.774-30.539,0.306c-7.4,1.512-14.871,2.496-22.031,4.858c-6.434,2.122-9.974,6.968-11.086,13.76
		c-0.644,3.932,0.418,7.452,4.048,9.479c2.143,1.194,4.559,2.099,6.798,3.051c3.223,1.369,5.398,3.418,8.379,5.147
		c4.799,2.786,10.438,3.872,15.607,5.692C616.511,585.101,621.202,586.077,625.038,588.129z"/>
	
		<path clip-path="url(#SVGID_24_)" fill="none" stroke="#000000" stroke-width="0.5" stroke-linecap="round" stroke-miterlimit="10" d="
		M629.546,591.985c8.986,21.992,20.504,46.992,43.209,54.45c21.238,6.974,47.178,11.172,70.061,14.18
		c24.246,3.188,50.727,2.888,74.805,9.044c15.125,3.868,45.662,16.271,59.801,19.952"/>
	
		<path clip-path="url(#SVGID_24_)" fill="none" stroke="#000000" stroke-width="0.5" stroke-linecap="round" stroke-miterlimit="10" d="
		M628.636,590.368c-4.471-2.304-4.275-8.46-0.592-11.52c4.471-3.713,9.721-3.946,11.979-10.15c0.988-2.71,1.6-4.402,3.252-6.692
		c0.686-0.95,3.094-3.514,3.006-4.71c-0.125-1.686-3.289-2.688-4.631-3.414c-4.264-2.308-8.629-4.438-12.754-6.988"/>
	
		<path clip-path="url(#SVGID_24_)" fill="none" stroke="#000000" stroke-width="0.5" stroke-linecap="round" stroke-miterlimit="10" d="
		M662.995,544.552c-3.113,2.238-5.313,4.032-7.807,6.494c-0.906,0.894-2.047,2.176-3.139,2.826c-1.43,0.852-3.473,1.836-5.191,1.874
		"/>
	
		<path clip-path="url(#SVGID_24_)" fill="none" stroke="#000000" stroke-width="0.5" stroke-linecap="round" stroke-miterlimit="10" d="
		M599.22,563.815c-5.717,2.032-5.979-5.188-5.989-8.59c-0.01-3.874,0.582-6.102,4.687-6.768"/>
	
		<path clip-path="url(#SVGID_24_)" fill="none" stroke="#000000" stroke-width="0.5" stroke-linecap="round" stroke-miterlimit="10" d="
		M607.288,543.251c-0.117,0.9-0.588,1.814-1.225,2.162c1.531,2.566,3.459,2.729,6.158,3.362c3.021,0.708,3.492,2.164,5.797,4.107
		c2.553,2.15,4.734,3.139,8.02,2.798c2.598-0.268,6.953-1.604,7.803-4.359"/>
	
		<path clip-path="url(#SVGID_24_)" fill="none" stroke="#000000" stroke-width="0.5" stroke-linecap="round" stroke-miterlimit="10" d="
		M610.413,557.568c-2.068,7.94,16.375,5.342,19.984,6.964c1.807,0.811,5.883,5.94,7.07,7.468"/>
	
		<path clip-path="url(#SVGID_24_)" fill="none" stroke="#000000" stroke-width="0.5" stroke-linecap="round" stroke-miterlimit="10" d="
		M642.171,564.857c2.248,1.562,5.334,3.126,8.273,2.362c2.236-0.58,3.678-3.026,5.004-4.706"/>
	
		<path clip-path="url(#SVGID_24_)" fill="none" stroke="#000000" stroke-width="0.5" stroke-linecap="round" stroke-miterlimit="10" d="
		M619.005,563.295c-3.637,2.106-8.203,4.448-11.902,2.33c-2.5-1.43-5.701-5.512-8.143-1.81"/>
	
		<path clip-path="url(#SVGID_24_)" fill="none" stroke="#000000" stroke-width="0.5" stroke-linecap="round" stroke-miterlimit="10" d="
		M617.44,552.361c0.631-1.852,2.086-3.58,3.633-4.692c0.637-0.455,4.035-1.861,3.398-1.815"/>
	
		<path clip-path="url(#SVGID_24_)" fill="none" stroke="#000000" stroke-width="0.5" stroke-linecap="round" stroke-miterlimit="10" d="
		M600.521,563.035c-1.977,1.124-1.377,7.072-0.014,8.654c1.461,1.689,5.021,2.325,7.043,2.54"/>
	
		<path clip-path="url(#SVGID_24_)" fill="none" stroke="#000000" stroke-width="2" stroke-linecap="round" stroke-miterlimit="10" d="
		M597.917,550.019c-0.133-0.996,0.48-2.466,0-2.864"/>
	
		<path clip-path="url(#SVGID_24_)" fill="none" stroke="#000000" stroke-width="2" stroke-linecap="round" stroke-miterlimit="10" d="
		M607.028,571.625c-0.596,1.67-0.404,4.072,1.043,4.946"/>
	
		<path clip-path="url(#SVGID_24_)" fill="none" stroke="#000000" stroke-width="2" stroke-linecap="round" stroke-miterlimit="10" d="
		M605.468,556.267c1.846,1.687,5.84,1.446,7.807,1.302"/>
	
		<path clip-path="url(#SVGID_24_)" fill="none" stroke="#000000" stroke-width="2" stroke-linecap="round" stroke-miterlimit="10" d="
		M603.903,544.552c1.363,0.72,5.713,0.182,7.291-0.26"/>
	
		<path clip-path="url(#SVGID_24_)" fill="none" stroke="#000000" stroke-width="2" stroke-linecap="round" stroke-miterlimit="10" d="
		M622.128,544.552c0.482,1.494,3.414,2.292,3.643,1.822"/>
	
		<path clip-path="url(#SVGID_24_)" fill="none" stroke="#000000" stroke-width="2" stroke-linecap="round" stroke-miterlimit="10" d="
		M630.456,546.374c0.602,1.148,1.598,1.35,2.605,0.782"/>
	
		<path clip-path="url(#SVGID_24_)" fill="none" stroke="#000000" stroke-width="2" stroke-linecap="round" stroke-miterlimit="10" d="
		M660.396,543.251c1.504,1.298,3.605,1.43,4.945,2.603"/>
	
		<path clip-path="url(#SVGID_24_)" fill="none" stroke="#000000" stroke-width="2" stroke-linecap="round" stroke-miterlimit="10" d="
		M654.929,561.473c-0.684,1.28-0.889,2.93,1.041,2.864"/>
	<path clip-path="url(#SVGID_24_)" fill="#FEEAE8" d="M764.925,508.796c-0.363,4.076-3.193,10.542-1.84,13.564
		c5.785,12.896,21.596-1.564,21.596-5.528c0-3.966-6.893-7.14-8.273-11.502c-1.379-4.364,0-4.364,0-8.726
		c0-4.362-4.592-7.534-10.105-6.74c-5.51,0.794-10.566,2.378-7.809,7.93C761.249,503.346,765.237,505.254,764.925,508.796"/>
	
		<path clip-path="url(#SVGID_24_)" fill="none" stroke="#000000" stroke-width="0.5" stroke-linecap="round" stroke-miterlimit="10" d="
		M764.925,508.796c-0.363,4.076-3.193,10.542-1.84,13.564c5.785,12.896,21.596-1.564,21.596-5.528c0-3.966-6.893-7.14-8.273-11.502
		c-1.379-4.364,0-4.364,0-8.726c0-4.362-4.592-7.534-10.105-6.74c-5.51,0.794-10.566,2.378-7.809,7.93
		C761.249,503.346,765.237,505.254,764.925,508.796z"/>
	<path clip-path="url(#SVGID_24_)" fill="#FEEAE8" d="M688.845,490.775c5.191-4.334,13.707-2.05,15.193,4.561
		c0.99,4.407-3.439,11.52-4.381,16.168c-0.758,3.746,0.082,3.636,0.799,7.008c0.502,2.366-0.389,6.392-2.195,8.012
		c-3.717,3.33-16.102,4.03-20.236,1.054c-3.389-2.438-2.006-7.748-1.047-11.155c0.574-2.03,1.633-3.704,2.996-5.278
		c0.975-1.122,3.684-2.472,4.225-3.582c1.418-2.924-1.893-7.724-0.359-11.25C685.319,492.909,685.884,491.854,688.845,490.775"/>
	
		<path clip-path="url(#SVGID_24_)" fill="none" stroke="#000000" stroke-width="0.5" stroke-linecap="round" stroke-miterlimit="10" d="
		M688.845,490.775c5.191-4.334,13.707-2.05,15.193,4.561c0.99,4.407-3.439,11.52-4.381,16.168c-0.758,3.746,0.082,3.636,0.799,7.008
		c0.502,2.366-0.389,6.392-2.195,8.012c-3.717,3.33-16.102,4.03-20.236,1.054c-3.389-2.438-2.006-7.748-1.047-11.155
		c0.574-2.03,1.633-3.704,2.996-5.278c0.975-1.122,3.684-2.472,4.225-3.582c1.418-2.924-1.893-7.724-0.359-11.25
		C685.319,492.909,685.884,491.854,688.845,490.775"/>
	<path clip-path="url(#SVGID_24_)" fill="#FEEAE8" d="M569.396,477.426c4.975-3.032,19.914-4.142,19.948,4.216
		c0.021,5.498-4.206,9.061-2.811,14.832c1.492,6.168,4.053,11.652-1.688,16.532c-4.398,3.738-13.656,1.886-18.2-1.494
		c-3.99-2.968-2.788-6.964-1.191-10.897c1.371-3.38,4.489-6.183,2.598-10.034c-0.842-1.716-0.557-1.604-1.122-3.668
		c-0.3-1.088,0.008-4.528,0.358-5.62c1.109-3.446,4.949-6.874,9.134-6.326"/>
	
		<path clip-path="url(#SVGID_24_)" fill="none" stroke="#000000" stroke-width="0.5" stroke-linecap="round" stroke-miterlimit="10" d="
		M569.396,477.426c4.975-3.032,19.914-4.142,19.948,4.216c0.021,5.498-4.206,9.061-2.811,14.832
		c1.492,6.168,4.053,11.652-1.688,16.532c-4.398,3.738-13.656,1.886-18.2-1.494c-3.99-2.968-2.788-6.964-1.191-10.897
		c1.371-3.38,4.489-6.183,2.598-10.034c-0.842-1.716-0.557-1.604-1.122-3.668c-0.3-1.088,0.008-4.528,0.358-5.62
		c1.109-3.446,4.949-6.874,9.134-6.326"/>
	<path clip-path="url(#SVGID_24_)" fill="#FEEAE8" d="M837.573,484.74c8.971-2.666,15.008,3.826,20.217,10.284
		c3.941,4.886,5.494,16.82,1.568,21.844c-2.961,3.784-5.859,3.826-6.164,8.966c-0.25,4.218,2.084,7.782-0.885,11.599
		c-6.705,8.63-17.104,1.008-22.783-4.912c-10.285-10.71,9.91-16.803,8.938-28.479c-0.652-7.872-7.611-15.412,3.131-19.748"/>
	
		<path clip-path="url(#SVGID_24_)" fill="none" stroke="#000000" stroke-width="0.5" stroke-linecap="round" stroke-miterlimit="10" d="
		M837.573,484.74c8.971-2.666,15.008,3.826,20.217,10.284c3.941,4.886,5.494,16.82,1.568,21.844
		c-2.961,3.784-5.859,3.826-6.164,8.966c-0.25,4.218,2.084,7.782-0.885,11.599c-6.705,8.63-17.104,1.008-22.783-4.912
		c-10.285-10.71,9.91-16.803,8.938-28.479c-0.652-7.872-7.611-15.412,3.131-19.748"/>
	
		<path clip-path="url(#SVGID_24_)" fill="none" stroke="#000000" stroke-width="0.5" stroke-linecap="round" stroke-miterlimit="10" d="
		M683.374,527.308c0.023,5.988,14.018,14.232,15.203,20.158c1.199,6,1.773,12.914,2.691,19.176c0.992,6.78,0.623,13.66-2.105,19.774
		c-2.805,6.271-1.859,10.094-1.918,17.098c7.844,6.366,21.531,4.86,31.256,7.072c5.75,1.308,12.322,2.188,17.797,4.323
		c4.955,1.935,8.477,6.07,12.605,9.274c8.725,6.774,18.506,14.374,29.439,16.814c8.402,1.872,16.49,3.228,24.816,5.51
		c7.957,2.178,15.543,5.078,23.758,5.718c8.111,0.63,15.973,3.888,23.975,4.584c3.256,0.284,6.828,0.114,9.9,0.468
		c1.408,0.162,2.801,0.341,4.08,0.572c1.389,0.25,4.105,1.26,3.299,0.468"/>
	
		<path clip-path="url(#SVGID_24_)" fill="none" stroke="#000000" stroke-width="0.5" stroke-linecap="round" stroke-miterlimit="10" d="
		M770.128,527.821c-7.438,9.926-6.102,16.736-5.043,28.064c0.729,7.762-5.387,15.281-4.334,23.399
		c1.174,9.099,11.102,13.152,18.262,17.422c9.553,5.694,17.682,13.326,28.068,17.307c6.1,2.336,11.143,4.124,16.344,7.8
		c7.662,5.412,16.104,11.118,25.748,11.714c5.803,0.358,10.158,0.998,15.434,2.91c3.605,1.304,9.355,2.868,12.162,2.704"/>
	
		<path clip-path="url(#SVGID_24_)" fill="none" stroke="#000000" stroke-width="0.5" stroke-linecap="round" stroke-miterlimit="10" d="
		M843.095,540.45c-5.83,10.358-8.881,17.758-8.422,29.362c0.309,7.786,1.389,18.189-0.867,25.735
		c2.086,3.171,3.459,7.358,6.012,10.826c3.156,4.282,6.572,6.137,11.23,8.34c3.73,1.769,7.695,4.024,11.689,4.793
		c4.072,0.785,10.779,0.625,14.629,1.859"/>
	
		<path clip-path="url(#SVGID_24_)" fill="none" stroke="#000000" stroke-width="0.5" stroke-linecap="round" stroke-miterlimit="10" d="
		M604.491,824.723c-12.789,2.59-24.688-18.992-30.451-47.422c-5.762-28.435-3.206-52.948,9.578-55.54
		c12.787-2.59,27.738,11.136,33.5,39.568C622.882,789.761,617.276,822.133,604.491,824.723z"/>
	
		<path clip-path="url(#SVGID_24_)" fill="none" stroke="#000000" stroke-width="0.5" stroke-linecap="round" stroke-miterlimit="10" d="
		M602.403,814.427c-10.229,2.072-19.121-15.322-23.73-38.068c-4.61-22.744-3.194-42.228,7.031-44.302
		c10.232-2.072,22.174,7.464,26.785,30.21S612.628,812.351,602.403,814.427z"/>
	
		<path clip-path="url(#SVGID_24_)" fill="none" stroke="#000000" stroke-width="0.5" stroke-linecap="round" stroke-miterlimit="10" d="
		M600.733,806.188c-8.181,1.66-14.669-12.382-18.357-30.58c-3.688-18.196-3.182-33.656,5-35.312
		c8.181-1.66,17.721,4.527,21.406,22.72C612.47,781.213,608.917,804.53,600.733,806.188z"/>
	
		<path clip-path="url(#SVGID_24_)" fill="none" stroke="#000000" stroke-width="0.5" stroke-linecap="round" stroke-miterlimit="10" d="
		M599.396,799.601c-6.541,1.326-11.105-10.034-14.055-24.59c-2.952-14.561-3.175-26.8,3.369-28.128
		c6.549-1.324,14.156,2.18,17.109,16.733C608.772,778.175,605.944,798.272,599.396,799.601z"/>
	
		<path clip-path="url(#SVGID_24_)" fill="none" stroke="#000000" stroke-width="0.5" stroke-linecap="round" stroke-miterlimit="10" d="
		M597.472,790.112c-4.186,0.848-5.978-6.652-7.867-15.968c-1.888-9.316-3.16-16.924,1.032-17.772
		c4.186-0.848,9.032-1.206,10.917,8.112C603.442,773.8,601.663,789.263,597.472,790.112z"/>
	
		<path clip-path="url(#SVGID_24_)" fill="none" stroke="#000000" stroke-width="0.5" stroke-linecap="round" stroke-miterlimit="10" d="
		M601.554,764.483c1.52,7.49-0.537,24.91-4.082,25.628"/>
	
		<path clip-path="url(#SVGID_24_)" fill="none" stroke="#000000" stroke-width="0.5" stroke-linecap="round" stroke-miterlimit="10" d="
		M546.104,852.952c-7.248,10.846-30.897,3.914-55.02-12.204c-24.12-16.116-39.576-35.313-32.33-46.162
		c7.248-10.846,34.449-3.464,58.569,12.654C541.443,823.356,553.352,842.106,546.104,852.952z"/>
	
		<path clip-path="url(#SVGID_24_)" fill="none" stroke="#000000" stroke-width="0.5" stroke-linecap="round" stroke-miterlimit="10" d="
		M537.369,847.116c-5.798,8.678-24.364,2.598-43.66-10.296s-32.016-27.72-26.22-36.396c5.798-8.679,27.914-2.152,47.21,10.741
		C533.995,824.061,543.165,838.438,537.369,847.116z"/>
	
		<path clip-path="url(#SVGID_24_)" fill="none" stroke="#000000" stroke-width="0.5" stroke-linecap="round" stroke-miterlimit="10" d="
		M530.381,842.446c-4.638,6.941-19.134,1.547-34.572-8.768c-15.438-10.316-25.97-21.646-21.332-28.586
		c4.639-6.94,22.687-1.097,38.12,9.218C528.035,824.624,535.017,835.507,530.381,842.446z"/>
	
		<path clip-path="url(#SVGID_24_)" fill="none" stroke="#000000" stroke-width="0.5" stroke-linecap="round" stroke-miterlimit="10" d="
		M524.791,838.712c-3.71,5.553-14.952,0.706-27.302-7.548c-12.353-8.254-21.132-16.784-17.422-22.336
		c3.712-5.555,18.504-0.256,30.85,7.996C523.267,825.076,528.501,833.16,524.791,838.712z"/>
	
		<path clip-path="url(#SVGID_24_)" fill="none" stroke="#000000" stroke-width="0.5" stroke-linecap="round" stroke-miterlimit="10" d="
		M516.74,833.333c-2.374,3.552-8.93-0.508-16.834-5.79c-7.902-5.28-14.164-9.782-11.79-13.336s12.479,0.954,20.386,6.234
		C516.406,825.723,519.116,829.779,516.74,833.333z"/>
	
		<path clip-path="url(#SVGID_24_)" fill="none" stroke="#000000" stroke-width="0.5" stroke-linecap="round" stroke-miterlimit="10" d="
		M488.117,814.206c2.374-3.552,14.06,2.01,20.384,6.236c6.324,4.224,10.614,9.336,8.24,12.89"/>
	
		<path clip-path="url(#SVGID_24_)" fill="none" stroke="#000000" stroke-width="2" stroke-linecap="round" stroke-miterlimit="10" d="
		M474.428,803.668c1.956,0.782,5.084-0.01,5.792-0.724"/>
	
		<path clip-path="url(#SVGID_24_)" fill="none" stroke="#000000" stroke-width="2" stroke-linecap="round" stroke-miterlimit="10" d="
		M503.381,808.011c1.59,0.656,6.954,4.689,6.876,4.706"/>
	
		<path clip-path="url(#SVGID_24_)" fill="none" stroke="#000000" stroke-width="2" stroke-linecap="round" stroke-miterlimit="10" d="
		M496.143,830.087c3.212,1.06,6.87,3.16,9.41,4.342"/>
	
		<path clip-path="url(#SVGID_24_)" fill="none" stroke="#000000" stroke-width="2" stroke-linecap="round" stroke-miterlimit="10" d="
		M510.98,842.392c3.17-0.586,5.37,1.76,7.962,1.447"/>
	
		<path clip-path="url(#SVGID_24_)" fill="none" stroke="#000000" stroke-width="2" stroke-linecap="round" stroke-miterlimit="10" d="
		M527.267,823.572c2.776,1.312,4.02,5.33,6.514,6.514"/>
	
		<path clip-path="url(#SVGID_24_)" fill="none" stroke="#000000" stroke-width="2" stroke-linecap="round" stroke-miterlimit="10" d="
		M474.79,819.954c-1.868-1.01-4.264-2.994-4.706-5.068"/>
	
		<path clip-path="url(#SVGID_24_)" fill="none" stroke="#000000" stroke-width="2" stroke-linecap="round" stroke-miterlimit="10" d="
		M578.295,741.42c-2.072,1.408-5.49,7.55-2.896,9.41"/>
	
		<path clip-path="url(#SVGID_24_)" fill="none" stroke="#000000" stroke-width="2" stroke-linecap="round" stroke-miterlimit="10" d="
		M595.305,734.906c5.634,1.238,5.274,4.912,9.046,8.324"/>
	
		<path clip-path="url(#SVGID_24_)" fill="none" stroke="#000000" stroke-width="2" stroke-linecap="round" stroke-miterlimit="10" d="
		M612.675,763.858c1.568,2.718-1.596,11.11,2.174,12.304"/>
	
		<path clip-path="url(#SVGID_24_)" fill="none" stroke="#000000" stroke-width="2" stroke-linecap="round" stroke-miterlimit="10" d="
		M607.972,797.153c3.031-2.54,2.34-5.992,2.172-9.048"/>
	
		<path clip-path="url(#SVGID_24_)" fill="none" stroke="#000000" stroke-width="2" stroke-linecap="round" stroke-miterlimit="10" d="
		M585.896,789.191c2.064,1.716,1.942,5.246,3.618,7.238"/>
	
		<path clip-path="url(#SVGID_24_)" fill="none" stroke="#000000" stroke-width="2" stroke-linecap="round" stroke-miterlimit="10" d="
		M578.657,772.906c-0.822,2.972-0.67,11.5,2.17,13.752"/>
	
		<path clip-path="url(#SVGID_24_)" fill="none" stroke="#000000" stroke-width="2" stroke-linecap="round" stroke-miterlimit="10" d="
		M524.369,813.816c2.422,1.552,8.052,4.04,8.94,6.502"/>
	
		<path clip-path="url(#SVGID_24_)" fill="none" stroke="#000000" stroke-width="2" stroke-linecap="round" stroke-miterlimit="10" d="
		M581.664,802.877c0.754,2.42,1.134,5.063,2.844,6.908"/>
	<path clip-path="url(#SVGID_24_)" fill="none" stroke="#000000" stroke-linecap="round" stroke-miterlimit="10" d="
		M594.617,765.813c-4.2,8.736,1.136,13.244,2.81,21.17c1.672,7.926,2.379,15.242,4.719,23.054
		c2.402,8.026,1.824,17.752,10.35,22.112c10.59,5.414,24.449,2.972,35.508,0.356c15.172-3.593,29.631-9.038,44.473-13.883
		c7.648-2.495,14.559-5.491,22.48-7.277c9.123-2.061,18.309-3.542,27.484-5.426c7.535-1.547,15.645-2.704,22.488-6.336
		c8.164-4.337,15.514-9.584,24.135-13.104c18.682-7.634,35.848-19.594,55.045-26.206c6.529-2.248,12.967-3.37,19.725-4.444
		c3.039-0.483,11.471-1.065,12.719-1.777"/>
	<path clip-path="url(#SVGID_24_)" fill="none" stroke="#000000" stroke-linecap="round" stroke-miterlimit="10" d="
		M500.521,823.211c11.88,4.642,31.146,8.768,36.226,22.11c3.074,8.07,6.652,12.801,15.986,13.176
		c11.776,0.473,23.716-3.287,35.274-4.693c8.429-1.025,16.72-1.17,24.628-4.586c5.273-2.279,9.467-5.77,14.443-8.482
		c6.389-3.484,15.357-6.553,22.115-8.704"/>
	
		<line clip-path="url(#SVGID_24_)" fill="none" stroke="#000000" stroke-width="2" stroke-linecap="round" stroke-miterlimit="10" x1="891.913" y1="633.559" x2="893.683" y2="633.559"/>
	
		<path clip-path="url(#SVGID_24_)" fill="none" stroke="#000000" stroke-width="2" stroke-linecap="round" stroke-miterlimit="10" d="
		M897.222,670.727c1.77-1.771,3.541-3.54,5.309-5.31"/>
	
		<path clip-path="url(#SVGID_24_)" fill="none" stroke="#000000" stroke-width="2" stroke-linecap="round" stroke-miterlimit="10" d="
		M916.688,683.116c1.182-3.54,2.363-7.08,3.543-10.62"/>
	
		<path clip-path="url(#SVGID_24_)" fill="none" stroke="#000000" stroke-width="2" stroke-linecap="round" stroke-miterlimit="10" d="
		M907.839,647.718c-0.59-1.18-1.18-2.36-1.77-3.54"/>
	
		<path clip-path="url(#SVGID_24_)" fill="none" stroke="#000000" stroke-width="2" stroke-linecap="round" stroke-miterlimit="10" d="
		M884.831,691.966c-0.59-0.59-1.18-1.18-1.77-1.77"/>
	
		<path clip-path="url(#SVGID_24_)" fill="none" stroke="#000000" stroke-width="2" stroke-linecap="round" stroke-miterlimit="10" d="
		M907.839,734.443c2.361-3.54,4.721-7.08,7.08-10.62"/>
	
		<line clip-path="url(#SVGID_24_)" fill="none" stroke="#000000" stroke-width="2" stroke-linecap="round" stroke-miterlimit="10" x1="909.612" y1="679.576" x2="909.612" y2="676.036"/>
	
		<path clip-path="url(#SVGID_24_)" fill="none" stroke="#000000" stroke-width="2" stroke-linecap="round" stroke-miterlimit="10" d="
		M891.913,707.895c0.59,1.18,1.18,2.36,1.77,3.54"/>
	
		<line clip-path="url(#SVGID_24_)" fill="none" stroke="#000000" stroke-width="2" stroke-linecap="round" stroke-miterlimit="10" x1="906.071" y1="688.426" x2="904.3" y2="688.426"/>
	
		<line clip-path="url(#SVGID_24_)" fill="none" stroke="#000000" stroke-width="2" stroke-linecap="round" stroke-miterlimit="10" x1="923.771" y1="706.125" x2="923.771" y2="704.355"/>
	
		<line clip-path="url(#SVGID_24_)" fill="none" stroke="#000000" stroke-width="2" stroke-linecap="round" stroke-miterlimit="10" x1="911.38" y1="700.815" x2="911.38" y2="704.355"/>
	
		<line clip-path="url(#SVGID_24_)" fill="none" stroke="#000000" stroke-width="2" stroke-linecap="round" stroke-miterlimit="10" x1="902.53" y1="624.709" x2="906.071" y2="624.709"/>
	<path clip-path="url(#SVGID_24_)" fill="#E4E5E6" d="M400.699,645.297c-10.962,2.09-21.304,6.208-31.438,10.756
		c-5.792,2.603-11.55,4.86-17.708,6.398c-2.472,0.523-4.968,0.886-7.487,1.082c-0.874,0.029-1.75,0.06-2.624,0.09
		c-5.838,0.735-8.288-2.645-7.354-10.138c3.028-2.318,0.046-7.534-3.025-5.183c-3.696,2.83-9.36,7.992-5.628,13.216
		c5.279,7.396,12.474,8.614,21.197,7.763c10.185-0.992,19.427-5.248,28.641-9.385c3.136-1.407,42.952-16.18,41.534-6.403
		c-0.551,3.784,5.229,5.412,5.783,1.596C424.646,640.935,410.142,643.497,400.699,645.297"/>
	<path clip-path="url(#SVGID_24_)" fill="none" stroke="#000000" stroke-width="0.5" stroke-miterlimit="10" d="M400.699,645.297
		c-10.962,2.09-21.304,6.208-31.438,10.756c-5.792,2.603-11.55,4.86-17.708,6.398c-2.472,0.523-4.968,0.886-7.487,1.082
		c-0.874,0.029-1.75,0.06-2.624,0.09c-5.838,0.735-8.288-2.645-7.354-10.138c3.028-2.318,0.046-7.534-3.025-5.183
		c-3.696,2.83-9.36,7.992-5.628,13.216c5.279,7.396,12.474,8.614,21.197,7.763c10.185-0.992,19.427-5.248,28.641-9.385
		c3.136-1.407,42.952-16.18,41.534-6.403c-0.551,3.784,5.229,5.412,5.783,1.596C424.646,640.935,410.142,643.497,400.699,645.297z"
		/>
	<path clip-path="url(#SVGID_24_)" fill="#E4E5E6" d="M431.678,672.996c-5.704-6.17-19.2-2.156-26.397-1.028
		c-13.301,2.084-26.229,6.511-38.872,10.992c-4.998,1.772-9.918,3.746-14.931,5.484c-2.644,0.916-5.34,1.594-8.063,2.224
		c-1.479,0.198-2.954,0.395-4.433,0.592c-3.714,0.712-5.748-1.443-6.105-6.47c3.366-1.904,0.344-7.088-3.028-5.18
		c-4.338,2.454-8.888,8.443-3.93,13.065c6.941,6.475,16.06,4.754,24.485,2.4c13.009-3.634,25.45-9.328,38.444-13.138
		c8.008-2.351,16.185-4.055,24.462-5.101c3.57-0.452,7.164-0.546,10.756-0.618c4.73-0.094-0.744,6.404-1.378,7.379
		c-2.118,3.254,3.08,6.258,5.183,3.027C429.888,683.522,435.275,676.888,431.678,672.996"/>
	<path clip-path="url(#SVGID_24_)" fill="none" stroke="#000000" stroke-width="0.5" stroke-miterlimit="10" d="M431.678,672.996
		c-5.704-6.17-19.2-2.156-26.397-1.028c-13.301,2.084-26.229,6.511-38.872,10.992c-4.998,1.772-9.918,3.746-14.931,5.484
		c-2.644,0.916-5.34,1.594-8.063,2.224c-1.479,0.198-2.954,0.395-4.433,0.592c-3.714,0.712-5.748-1.443-6.105-6.47
		c3.366-1.904,0.344-7.088-3.028-5.18c-4.338,2.454-8.888,8.443-3.93,13.065c6.941,6.475,16.06,4.754,24.485,2.4
		c13.009-3.634,25.45-9.328,38.444-13.138c8.008-2.351,16.185-4.055,24.462-5.101c3.57-0.452,7.164-0.546,10.756-0.618
		c4.73-0.094-0.744,6.404-1.378,7.379c-2.118,3.254,3.08,6.258,5.183,3.027C429.888,683.522,435.275,676.888,431.678,672.996z"/>
	<path clip-path="url(#SVGID_24_)" fill="#E4E5E6" d="M877.335,727.001c-26.207,2.154-51.836,8.248-77.92,11.326
		c-25.646,3.028-51.926,0.868-77.506-1.95c-26.09-2.872-52-8.176-76.744-17.002c-24.596-8.773-48.098-19.01-73.567-25.332
		c-48.325-11.996-98.104-9.344-145.728,4.4c-13.786,3.976-28.252,6.136-42.272,9.166c-7.642,1.651-15.021,3.712-22.808,4.438
		c-6.292,0.586-12.622,0.826-18.938,0.656c-4.22-0.114-15.079,0.204-9.063-5.246c2.874-2.604-1.382-6.834-4.242-4.244
		c-8.098,7.336-3.218,13.408,6.103,14.87c11.29,1.769,23.644,0.708,34.888-1.08c28.914-4.598,57.094-13.786,85.736-19.668
		c29.5-6.056,60.285-6.754,90.065-2.416c28.426,4.141,56.097,13.248,82.647,23.982c25.77,10.416,51.758,17.49,79.279,21.586
		c26.52,3.945,54.123,6.388,80.928,4.85c29.992-1.72,59.215-9.876,89.143-12.336C881.161,732.688,881.194,726.683,877.335,727.001"
		/>
	<path clip-path="url(#SVGID_24_)" fill="none" stroke="#000000" stroke-width="0.5" stroke-miterlimit="10" d="M877.335,727.001
		c-26.207,2.154-51.836,8.248-77.92,11.326c-25.646,3.028-51.926,0.868-77.506-1.95c-26.09-2.872-52-8.176-76.744-17.002
		c-24.596-8.773-48.098-19.01-73.567-25.332c-48.325-11.996-98.104-9.344-145.728,4.4c-13.786,3.976-28.252,6.136-42.272,9.166
		c-7.642,1.651-15.021,3.712-22.808,4.438c-6.292,0.586-12.622,0.826-18.938,0.656c-4.22-0.114-15.079,0.204-9.063-5.246
		c2.874-2.604-1.382-6.834-4.242-4.244c-8.098,7.336-3.218,13.408,6.103,14.87c11.29,1.769,23.644,0.708,34.888-1.08
		c28.914-4.598,57.094-13.786,85.736-19.668c29.5-6.056,60.285-6.754,90.065-2.416c28.426,4.141,56.097,13.248,82.647,23.982
		c25.77,10.416,51.758,17.49,79.279,21.586c26.52,3.945,54.123,6.388,80.928,4.85c29.992-1.72,59.215-9.876,89.143-12.336
		C881.161,732.688,881.194,726.683,877.335,727.001z"/>
	
		<path clip-path="url(#SVGID_24_)" fill="none" stroke="#000000" stroke-width="0.5" stroke-linecap="round" stroke-miterlimit="10" d="
		M572.236,480.222c1.906-0.512,3.542-1.142,5.554-1.226c1.79-0.074,4.252-0.212,5.805,0.77c1.231,0.78,0.746,2.358-0.526,2.792
		c-1.484,0.508-2.672,0.118-4.12-0.229c-1.298-0.313-2.731-0.414-4.032-0.54c-1.243-0.12-2.956,0.164-3.338,1.636
		c-0.277,1.074,0.931,2.498,1.769,3.056c1.649,1.099,3.828,0.504,5.569,0.096c0.796-0.186,1.603-0.287,2.402-0.424
		c0.83-0.14,1.708-0.615,2.552-0.571c2.017,0.104,0.771,2.186,0.196,3.142c-1.098,1.822-3.37,1.076-5.096,0.6
		c-1.511-0.414-3.156-1.357-4.706-1.455c-1.685-0.104-2.854,0.002-2.742,1.964c0.068,1.182,1.346,2.43,2.414,3.02
		c1.374,0.76,2.434,1.185,4,0.688c1.424-0.45,2.664-1.314,4.038-1.748c0.62-0.196,0.966-0.256,1.452,0.191
		c0.5,0.462,0.89,1.049,0.642,1.702c-0.134,0.349-0.426,0.58-0.656,0.854c-0.308,0.369-0.458,0.768-0.718,1.162
		c-0.558,0.85-1.45,1.012-2.42,0.926c-0.996-0.088-1.578-0.61-2.35-1.162c-0.74-0.53-1.612-0.73-2.486-0.932
		c-1.098-0.257-2.708-0.488-3.446,0.462c-0.938,1.208-0.336,3.13,0.372,4.327c0.536,0.91,1.984,1.916,3.074,1.883
		c1.1-0.036,2.402-0.856,3.284-1.438c1.368-0.899,2.552-1.574,4.147-1.916c1.234-0.262,1.924,0.994,1.458,2.174
		c-0.481,1.223-2.405,0.683-3.399,0.782c-1.122,0.112-2.21,0.426-3.336,0.588c-1.599,0.232-3.196,0.116-4.836,0.198
		c-1.803,0.09-2.927,0.88-3.2,2.76c-0.12,0.836-0.172,1.358,0.638,1.734c0.668,0.312,1.468,0.594,2.172,0.357
		c1.692-0.565,2.746-2.216,4.395-2.956c1.35-0.605,4.502-1.525,5.806-0.457c1.32,1.081-0.828,2.93-1.834,3.283
		c-1,0.351-2.13,0.606-3.204,0.885c-0.855,0.224-1.24,0.813-1.616,1.584c-0.704,1.438,0.101,3.277,0.776,4.407
		c-0.052,0.158-0.032,0.009,0,0c1.95,8.479,18.726,7.948,25.061,8.552c11.152,1.064,21.996-0.632,32.834,1.389
		c8.992,1.676,18.736,1.638,27.031,5.162c6.996,2.968,12.639,8.128,17.783,13.212c6.295,6.214,9.004,15.868,10.643,24.308
		c1.182,6.09-0.07,12.258,1.861,18.252c1.17,3.635,1.646,9.801,4.324,12.515"/>
	
		<path clip-path="url(#SVGID_24_)" fill="none" stroke="#000000" stroke-width="2" stroke-linecap="round" stroke-miterlimit="10" d="
		M578.566,478.824c0.632-0.074,1.28,0.152,1.88,0.278c0.554,0.118,1.212,0.107,1.74,0.277"/>
	
		<path clip-path="url(#SVGID_24_)" fill="none" stroke="#000000" stroke-width="2" stroke-linecap="round" stroke-miterlimit="10" d="
		M577.871,486.759c0.792-0.132,1.374-0.304,2.158-0.342c0.695-0.034,1.518-0.116,2.157-0.354"/>
	
		<path clip-path="url(#SVGID_24_)" fill="none" stroke="#000000" stroke-width="2" stroke-linecap="round" stroke-miterlimit="10" d="
		M573.138,492.05c0.644,0.346,0.926,0.893,1.616,1.166c0.577,0.229,1.218,0.426,1.863,0.366"/>
	
		<path clip-path="url(#SVGID_24_)" fill="none" stroke="#000000" stroke-width="2" stroke-linecap="round" stroke-miterlimit="10" d="
		M584.136,498.036c0.616,0.85-0.702,1.946-0.836,2.506"/>
	
		<path clip-path="url(#SVGID_24_)" fill="none" stroke="#000000" stroke-width="0.5" stroke-linecap="round" stroke-miterlimit="10" d="
		M687.96,494.641c0.766-1.262,3.436-1.474,4.758-1.682c1.389-0.218,2.691-0.282,4.029,0.128c1.699,0.521,2.537,2.189,0.688,3.248
		c-1.369,0.786-2.986,0.16-4.369-0.236c-1.084-0.308-3.824-0.736-4.73,0.172c-0.891,0.893-0.074,2.54,0.752,3.139
		c1.982,1.43,5.016,0.17,7.299,0.613c0.656,0.13,2.014,0.296,2.498,0.846c0.412,0.467,0.01,0.921-0.252,1.444
		c-0.729,1.458-1.691,1.61-3.201,1.006c-1.545-0.616-3.162-1.762-4.881-1.128c-1.137,0.42-2.799,2.021-3.035,3.248
		c-0.709,3.732,4.115,3.746,6.533,3.842c1.592,0.066,2.717-0.016,4.064-0.878c0.576-0.37,0.824-0.624,0.537-1.284
		c-0.648-1.483-2.422-1.523-3.834-1.43c-1.475,0.101-2.994,0.872-4.285,1.557c-2.561,1.359-7.67,2.405-6.086,6.308
		c0.873,2.146,3.516,1.902,5.436,1.446c0.842-0.202,1.453-0.456,2.143-0.96c0.791-0.572,1.479-1.38,2.34-1.807
		c0.949-0.466,3.396-1.53,3.313,0.44c-0.084,1.948-2.715,3.794-4.205,4.582c-1.205,0.636-2.361,0.897-3.695,0.565
		c-1.377-0.342-2.631-0.525-4.047-0.688c-1.027-0.116-1.631-0.271-2.617,0.058c-0.719,0.242-1.598,0.41-1.887,1.183
		c-0.234,0.624-0.109,1.474,0.125,2.086c0.395,1.025,1.303,1.277,2.352,1.226c0.984-0.048,1.975-0.388,2.945-0.55
		c0.975-0.164,1.934-0.42,2.84-0.804c1.01-0.429,2.785-0.845,3.828-0.269c0.576,0.318,1.168,1.168,1.006,1.838
		c-0.191,0.784-1.109,1.013-1.791,1.164c-1.133,0.254-2.301,0.343-3.424,0.645c-0.938,0.252-1.857,0.563-2.793,0.798
		c-1.264,0.315-1.916,0.481-2.635,1.525c-0.361,0.526-0.584,1.221-0.176,1.629"/>
	
		<path clip-path="url(#SVGID_24_)" fill="none" stroke="#000000" stroke-width="2" stroke-linecap="round" stroke-miterlimit="10" d="
		M694.425,496.335c0.623,0.648,2.742,0.686,3.455,0.126"/>
	
		<path clip-path="url(#SVGID_24_)" fill="none" stroke="#000000" stroke-width="2" stroke-linecap="round" stroke-miterlimit="10" d="
		M690.472,502.048c-0.955,0.372-2.039,1.676-2.701,2.448"/>
	
		<path clip-path="url(#SVGID_24_)" fill="none" stroke="#000000" stroke-width="2" stroke-linecap="round" stroke-miterlimit="10" d="
		M686.138,514.98c1.406,0.142,3.107,0.18,4.332-0.502"/>
	
		<path clip-path="url(#SVGID_24_)" fill="none" stroke="#000000" stroke-width="0.5" stroke-linecap="round" stroke-miterlimit="10" d="
		M693.046,519.752c0.348,0.106,1.029,0.876,1.178,1.206c0.172,0.386-0.078,1.152-0.174,1.556"/>
	<path clip-path="url(#SVGID_24_)" fill="none" stroke="#000000" stroke-width="0.5" stroke-miterlimit="10" d="M762.101,494.892
		c1.832-0.298,3.545-0.512,5.396-0.328c1.021,0.101,4.736-0.021,3.582,1.771c-1.098,1.708-3.287,3.206-5.273,3.691
		c-0.398,0.099-1.486,0.232-1.748-0.25c-0.197-0.367,0.336-1.134,0.602-1.323c1.414-0.996,6.27-2.274,6.668,0.206
		c0.205,1.26,0.398,2.308-0.018,3.594c-0.342,1.065-1.586,1.75-2.557,2.294c-0.51,0.284-1.338,0.232-1.758,0.574
		c-0.592,0.479-0.416,1.47-0.004,1.998c0.625,0.8,2.211,1.938,3.289,1.604c0.615-0.191,1.156-0.992,1.535-1.476
		c0.379-0.484,0.572-1.068,1.004-1.496c0.561-0.554,0.711-0.302,0.957,0.254c0.512,1.154,1.924,2.434,0.508,3.452
		c-1.703,1.224-3.367,1.622-5.34,1.319c-0.541-0.082-1.203-0.197-1.699,0.168c-0.455,0.341-0.547,0.994-0.676,1.526
		c-0.297,1.25-0.563,2.588,0.486,3.578c2.053,1.938,6.314,1.95,8.555,0.392c0.49-0.342,1.59-0.97,1.232-1.712
		c-0.281-0.586-1.59-0.628-2.137-0.626c-2.143,0.008-4.242,0.616-6.094,1.634c-1.449,0.795-2.734,1.988-2.445,3.814
		c0.527,3.3,4.775,1.862,6.545,0.438c1.611-1.3,3.057-2.42,5.227-2.056c0.678,0.114,1.193,0.521,1.053,1.302
		c-0.184,1.04-1.738,1.542-2.566,1.836c-1.785,0.635-4.256,1.036-5.303,2.824c-0.502,0.86-1.033,2.006-1.252,3
		c-0.119,0.532-0.279,1.198-0.486,1.584"/>
	
		<path clip-path="url(#SVGID_24_)" fill="none" stroke="#000000" stroke-width="2" stroke-linecap="round" stroke-miterlimit="10" d="
		M771.644,498.972c0.801,1.229-0.693,2.042-0.504,3.202"/>
	
		<path clip-path="url(#SVGID_24_)" fill="none" stroke="#000000" stroke-width="2" stroke-linecap="round" stroke-miterlimit="10" d="
		M766.62,506.819c0.566,0.354,1.256,0.484,1.816,0.816c0.527,0.31,1.096,0.993,1.699,1.13"/>
	
		<path clip-path="url(#SVGID_24_)" fill="none" stroke="#000000" stroke-width="2" stroke-linecap="round" stroke-miterlimit="10" d="
		M771.39,514.478c0.799-0.094,1.537-0.298,2.324-0.376c0.707-0.07,1.418,0.042,2.07,0"/>
	
		<path clip-path="url(#SVGID_24_)" fill="none" stroke="#000000" stroke-width="2" stroke-linecap="round" stroke-miterlimit="10" d="
		M766.116,519.123c0.451,0.778,0.5,1.442,1.383,1.806c0.557,0.229,1.297,0.475,1.822,0.202"/>
	
		<path clip-path="url(#SVGID_24_)" fill="none" stroke="#000000" stroke-width="0.5" stroke-linecap="round" stroke-miterlimit="10" d="
		M761.722,495.079c0.691,0.328,2.27-0.154,3.016-0.314"/>
	
		<path clip-path="url(#SVGID_24_)" fill="none" stroke="#000000" stroke-width="0.5" stroke-linecap="round" stroke-miterlimit="10" d="
		M840.417,490.585c1.588-1.326,11.086-0.088,9.467,2.25c-0.279,0.408-1.451,1.078-1.967,1.232c-0.75,0.222-1.74,0.216-2.523,0.25
		c-1.574,0.067-3.346-0.375-4.645,0.621c-1.32,1.013,0.447,3.202,1.52,3.98c1.127,0.822,2.445,0.964,3.791,1.168
		c1.559,0.238,3.1,0.424,4.678,0.498c1.576,0.074,4.107-0.276,5.436,0.564c1.939,1.229,0.713,3.392-0.861,4.186
		c-2.48,1.252-4.857,2.432-7.748,2c-1.248-0.186-2.391-0.229-3.65-0.332c-0.684-0.056-2.666-0.49-2.668-1.418
		c-0.004-1.318,3.221-1.7,4.168-1.936c2.211-0.551,3.855-0.73,6.092,0.121c1.34,0.513,4.033,0.906,4.584,2.398
		c0.729,1.97-0.609,3.326-2.004,4.418c-1.693,1.322-3.547,1.076-5.563,0.914c-1.523-0.122-3.025-0.148-4.547-0.332
		c-1.074-0.128-1.926-0.564-3-0.29c-1.654,0.42-3.418,1.744-1.646,3.29c1.209,1.058,3.434,1.854,4.986,1.67
		c2.684-0.318,5.311-0.854,7.938,0.412c1.979,0.956,0.152,3.046-1.191,3.732c-2.791,1.426-5.51,1.3-8.398,0.021
		c-2.076-0.92-4.301-2.92-6.746-2.174c-3.355,1.021-0.373,4.968,1.059,6.338c1.402,1.342,3.477,2.532,5.252,3.336
		c1.584,0.716,4.34,1.162,5.936,0.414c0.76-0.354,2.412-1.282,2.422-2.25c0.006-0.888-1.223-1.468-1.893-1.832
		c-3.006-1.63-8.119-2.088-11.283-0.75c-2.529,1.07-2.219,3.656-0.824,5.646c2.037,2.907,4.658,3.502,7.754,4.705
		c1.041,0.404,2.471,1.084,2.811,2.23c0.271,0.916-0.557,1.588-1.254,2.064c-1.17,0.798-2.945,1.203-2.896,2.852"/>
	
		<path clip-path="url(#SVGID_24_)" fill="none" stroke="#000000" stroke-width="2" stroke-linecap="round" stroke-miterlimit="10" d="
		M844.499,490.001c1.662,0.492,3.086,0.51,4.416,1.584"/>
	
		<path clip-path="url(#SVGID_24_)" fill="none" stroke="#000000" stroke-width="2" stroke-linecap="round" stroke-miterlimit="10" d="
		M842.417,498.001c-0.895,2.908,5.127,2.162,6.5,2.25"/>
	
		<path clip-path="url(#SVGID_24_)" fill="none" stroke="#000000" stroke-width="2" stroke-linecap="round" stroke-miterlimit="10" d="
		M856.417,507.585c-0.389,1.32-0.881,1.764-1.73,2.686c-0.646,0.702-1.711,1.681-2.688,1.148"/>
	
		<path clip-path="url(#SVGID_24_)" fill="none" stroke="#000000" stroke-width="2" stroke-linecap="round" stroke-miterlimit="10" d="
		M838.417,518.001c1.352-0.304,2.814-0.107,3.768,0.914c0.531,0.568,0.713,0.782,1.463,1.022c0.674,0.214,1.488,0.229,2.102,0.563"
		/>
	
		<path clip-path="url(#SVGID_24_)" fill="none" stroke="#000000" stroke-width="2" stroke-linecap="round" stroke-miterlimit="10" d="
		M841.835,526.918c1.23,0.626,2.195,1.392,3.664,1.25c0.93-0.09,3.066-0.284,3.586-0.75"/>
	
		<path clip-path="url(#SVGID_24_)" fill="none" stroke="#000000" stroke-width="2" stroke-linecap="round" stroke-miterlimit="10" d="
		M837.667,529.751c0.729-0.134,1.785,0.88,2.332,1.23c0.68,0.43,1.342,0.83,2,1.104"/>
</g>
<text transform="matrix(1 0 0 1 403.54 125.5938)" fill="#757679" font-family="'ArialMT'" font-size="28">Hairy skin</text>
<text transform="matrix(1 0 0 1 731.8408 124.502)" fill="#757679" font-family="'ArialMT'" font-size="28">Glabrous skin</text>
<text transform="matrix(1 0 0 1 1037.04 350.0137)" fill="#757679" font-family="'ArialMT'" font-size="28">Epidermis</text>
<text transform="matrix(1 0 0 1 1037.04 572.6699)" fill="#757679" font-family="'ArialMT'" font-size="28">Dermis</text>
<g>
	<defs>
		<rect id="SVGID_8_" width="1190.56" height="1683.78"/>
	</defs>
	<clipPath id="SVGID_25_">
		<use xlink:href="#SVGID_8_"  overflow="visible"/>
	</clipPath>
	<path clip-path="url(#SVGID_25_)" fill="#757679" d="M1019.538,336.875v7.126c-1.203,0.059-2.184,0.67-2.941,1.836
		s-1.262,2.746-1.512,4.744c-0.25,1.996-0.383,5.428-0.398,10.294c-0.016,4.868-0.063,8.074-0.139,9.618
		c-0.141,2.479-0.402,4.452-0.787,5.924c-0.381,1.473-0.854,2.652-1.418,3.542c-0.563,0.888-1.279,1.566-2.156,2.032
		c-0.594,0.32-1.563,0.48-2.906,0.48h-1.311v-6.862h0.725c1.627,0,2.705-0.548,3.234-1.64c0.533-1.095,0.799-3.549,0.799-7.366
		c0-7.286,0.07-11.906,0.209-13.858c0.25-3.236,0.75-5.822,1.5-7.76c0.75-1.938,1.813-3.446,3.188-4.526
		c-1.795-1.602-3.061-3.722-3.795-6.359c-0.736-2.639-1.102-7.091-1.102-13.354c0-5.684-0.041-9.08-0.119-10.188
		c-0.109-1.952-0.418-3.314-0.926-4.086c-0.508-0.772-1.504-1.16-2.988-1.16h-0.725v-6.862h1.311c1.533,0,2.641,0.231,3.328,0.698
		c1,0.642,1.828,1.72,2.484,3.235c0.656,1.517,1.082,3.425,1.277,5.727c0.197,2.304,0.301,6.078,0.316,11.324
		c0.016,5.245,0.148,8.865,0.398,10.861s0.754,3.578,1.512,4.744S1018.335,336.817,1019.538,336.875"/>
	<path clip-path="url(#SVGID_25_)" fill="#757679" d="M1019.538,557.888v7.126c-1.203,0.058-2.184,0.67-2.941,1.836
		s-1.262,2.746-1.512,4.744c-0.25,1.996-0.383,5.428-0.398,10.294c-0.016,4.868-0.063,162.074-0.139,163.618
		c-0.141,2.478-0.402,4.452-0.787,5.924c-0.381,1.472-0.854,2.652-1.418,3.542c-0.563,0.888-1.279,1.566-2.156,2.032
		c-0.594,0.319-1.563,0.479-2.906,0.479h-1.311v-6.861h0.725c1.627,0,2.705-0.549,3.234-1.641
		c0.533-1.094,0.799-157.548,0.799-161.365c0-7.286,0.07-11.906,0.209-13.858c0.25-3.236,0.75-5.822,1.5-7.76
		c0.75-1.938,1.813-3.446,3.188-4.526c-1.795-1.602-3.061-3.722-3.795-6.359c-0.736-2.639-1.102-7.091-1.102-13.354
		c0-5.685-0.041-143.08-0.119-144.188c-0.109-1.951-0.418-3.313-0.926-4.086c-0.508-0.771-1.504-1.16-2.988-1.16h-0.725v-6.861
		h1.311c1.533,0,2.641,0.231,3.328,0.698c1,0.642,1.828,1.72,2.484,3.235c0.656,1.517,1.082,3.424,1.277,5.727
		c0.197,2.304,0.301,140.078,0.316,145.324c0.016,5.245,0.148,8.865,0.398,10.861s0.754,3.578,1.512,4.744
		S1018.335,557.83,1019.538,557.888"/>
	<line clip-path="url(#SVGID_25_)" fill="#FFFFFF" x1="397.815" y1="118.496" x2="314.831" y2="118.496"/>
	
		<line clip-path="url(#SVGID_25_)" fill="none" stroke="#000000" stroke-miterlimit="10" x1="397.815" y1="118.496" x2="321.892" y2="118.496"/>
	<polygon clip-path="url(#SVGID_25_)" points="314.831,118.496 324.781,114.431 322.419,118.496 324.781,122.561 	"/>
	<line clip-path="url(#SVGID_25_)" fill="#FFFFFF" x1="996.495" y1="118.496" x2="914.692" y2="118.496"/>
	
		<line clip-path="url(#SVGID_25_)" fill="none" stroke="#000000" stroke-miterlimit="10" x1="996.495" y1="118.496" x2="921.753" y2="118.496"/>
	<polygon clip-path="url(#SVGID_25_)" points="914.69,118.496 924.642,114.431 922.28,118.496 924.642,122.561 	"/>
	<line clip-path="url(#SVGID_25_)" fill="#FFFFFF" x1="719.812" y1="118.496" x2="636.226" y2="118.496"/>
	
		<line clip-path="url(#SVGID_25_)" fill="none" stroke="#000000" stroke-miterlimit="10" x1="719.812" y1="118.496" x2="643.284" y2="118.496"/>
	<polygon clip-path="url(#SVGID_25_)" points="636.226,118.496 646.175,114.431 643.813,118.496 646.175,122.561 	"/>
	<line clip-path="url(#SVGID_25_)" fill="#FFFFFF" x1="540.179" y1="118.496" x2="629.313" y2="118.496"/>
	
		<line clip-path="url(#SVGID_25_)" fill="none" stroke="#000000" stroke-miterlimit="10" x1="540.179" y1="118.496" x2="622.253" y2="118.496"/>
	<polygon clip-path="url(#SVGID_25_)" points="629.313,118.496 619.362,122.563 621.726,118.496 619.362,114.433 	"/>
	<line clip-path="url(#SVGID_25_)" fill="#FFFFFF" x1="999.478" y1="279.094" x2="999.478" y2="120.256"/>
	
		<line clip-path="url(#SVGID_25_)" fill="none" stroke="#000000" stroke-miterlimit="10" x1="999.478" y1="279.094" x2="999.478" y2="275.094"/>
	
		<line clip-path="url(#SVGID_25_)" fill="none" stroke="#000000" stroke-miterlimit="10" stroke-dasharray="3.969,3.969" x1="999.478" y1="267.155" x2="999.478" y2="128.226"/>
	
		<line clip-path="url(#SVGID_25_)" fill="none" stroke="#000000" stroke-miterlimit="10" x1="999.478" y1="124.256" x2="999.478" y2="120.256"/>
	<line clip-path="url(#SVGID_25_)" fill="#FFFFFF" x1="633.843" y1="290.139" x2="633.843" y2="118.497"/>
	
		<line clip-path="url(#SVGID_25_)" fill="none" stroke="#000000" stroke-miterlimit="10" x1="633.843" y1="290.139" x2="633.843" y2="286.139"/>
	
		<line clip-path="url(#SVGID_25_)" fill="none" stroke="#000000" stroke-miterlimit="10" stroke-dasharray="3.896,3.896" x1="633.843" y1="278.346" x2="633.843" y2="126.392"/>
	
		<line clip-path="url(#SVGID_25_)" fill="none" stroke="#000000" stroke-miterlimit="10" x1="633.843" y1="122.496" x2="633.843" y2="118.496"/>
	<line clip-path="url(#SVGID_25_)" fill="#FFFFFF" x1="305.199" y1="263.2" x2="305.199" y2="118.496"/>
	
		<line clip-path="url(#SVGID_25_)" fill="none" stroke="#000000" stroke-miterlimit="10" x1="305.199" y1="263.2" x2="305.199" y2="259.2"/>
	
		<line clip-path="url(#SVGID_25_)" fill="none" stroke="#000000" stroke-miterlimit="10" stroke-dasharray="4.021,4.021" x1="305.199" y1="251.159" x2="305.199" y2="126.518"/>
	
		<line clip-path="url(#SVGID_25_)" fill="none" stroke="#000000" stroke-miterlimit="10" x1="305.199" y1="122.496" x2="305.199" y2="118.496"/>
</g>
<text transform="matrix(1 0 0 1 339.2119 813.8174)" font-family="'Arial-ItalicMT'" font-size="20">Pacinian</text>
<text transform="matrix(1 0 0 1 339.2119 837.8174)" font-family="'Arial-ItalicMT'" font-size="20">corpuscle</text>
<g>
	<defs>
		<rect id="SVGID_7_" width="1190.56" height="1683.78"/>
	</defs>
	<clipPath id="SVGID_26_">
		<use xlink:href="#SVGID_7_"  overflow="visible"/>
	</clipPath>
	
		<line clip-path="url(#SVGID_26_)" fill="none" stroke="#757679" stroke-width="0.5" stroke-miterlimit="10" x1="419.376" y1="810.363" x2="457.812" y2="810.363"/>
</g>
<text transform="matrix(1 0 0 1 763.1201 229.1211)" fill="#757679" font-family="'ArialMT'" font-size="20">Papillary Ridges</text>
<g>
	<defs>
		<rect id="SVGID_6_" width="1190.56" height="1683.78"/>
	</defs>
	<clipPath id="SVGID_27_">
		<use xlink:href="#SVGID_6_"  overflow="visible"/>
	</clipPath>
	<path clip-path="url(#SVGID_27_)" fill="none" stroke="#757679" stroke-width="0.25" stroke-miterlimit="10" d="M818.204,234.129
		l-100.148,35.822L818.204,234.129z"/>
	<polyline clip-path="url(#SVGID_27_)" fill="none" stroke="#757679" stroke-width="0.25" stroke-miterlimit="10" points="
		822.827,269.951 818.202,234.129 934.915,282.661 	"/>
</g>
<text transform="matrix(1 0 0 1 719.1787 361.0508)" fill="#757679" font-family="'ArialMT'" font-size="20">Septa</text>
<g>
	<defs>
		<rect id="SVGID_5_" width="1190.56" height="1683.78"/>
	</defs>
	<clipPath id="SVGID_28_">
		<use xlink:href="#SVGID_5_"  overflow="visible"/>
	</clipPath>
	<polyline clip-path="url(#SVGID_28_)" fill="none" stroke="#757679" stroke-width="0.25" stroke-miterlimit="10" points="
		672.194,377.745 735.263,363.563 770.792,387.503 	"/>
</g>
<text transform="matrix(1 0 0 1 548.9521 603.0488)"><tspan x="0" y="0" font-family="'Arial-ItalicMT'" font-size="20">Ruffini</tspan><tspan x="56.689" y="0" font-family="'Arial-ItalicMT'" font-size="20"></tspan><tspan x="60.772" y="0" font-family="'Arial-ItalicMT'" font-size="20">s</tspan></text>
<text transform="matrix(1 0 0 1 548.9521 627.0488)" font-family="'Arial-ItalicMT'" font-size="20"> corpuscle</text>
<text transform="matrix(1 0 0 1 181.332 696.3887)" font-family="'Arial-ItalicMT'" font-size="20">Hair receptor</text>
<g>
	<defs>
		<rect id="SVGID_4_" width="1190.56" height="1683.78"/>
	</defs>
	<clipPath id="SVGID_29_">
		<use xlink:href="#SVGID_4_"  overflow="visible"/>
	</clipPath>
	
		<line clip-path="url(#SVGID_29_)" fill="none" stroke="#757679" stroke-width="0.5" stroke-miterlimit="10" x1="301.822" y1="689.61" x2="321.988" y2="689.61"/>
</g>
<text transform="matrix(1 0 0 1 885.2178 534.8027)"><tspan x="0" y="0" font-family="'Arial-ItalicMT'" font-size="20">Meissne</tspan><tspan x="74.473" y="0" font-family="'Arial-ItalicMT'" font-size="20">r</tspan><tspan x="81.873" y="0" font-family="'Arial-ItalicMT'" font-size="20"></tspan><tspan x="85.956" y="0" font-family="'Arial-ItalicMT'" font-size="20">s</tspan></text>
<text transform="matrix(1 0 0 1 885.2178 558.8027)" font-family="'Arial-ItalicMT'" font-size="20">corpuscle</text>
<g>
	<defs>
		<rect id="SVGID_3_" width="1190.56" height="1683.78"/>
	</defs>
	<clipPath id="SVGID_30_">
		<use xlink:href="#SVGID_3_"  overflow="visible"/>
	</clipPath>
	
		<line clip-path="url(#SVGID_30_)" fill="none" stroke="#757679" stroke-width="0.5" stroke-miterlimit="10" x1="885.218" y1="534.803" x2="859.356" y2="516.869"/>
</g>
<text transform="matrix(1 0 0 1 149.2549 549.7148)" fill="#757679" font-family="'ArialMT'" font-size="20">Sebaceous</text>
<text transform="matrix(1 0 0 1 200.3945 573.7148)" fill="#757679" font-family="'ArialMT'" font-size="20">gland</text>
<text transform="matrix(1 0 0 1 326.375 363.5547)" font-family="'Arial-ItalicMT'" font-size="20">Free nerve</text>
<text transform="matrix(1 0 0 1 363.0352 387.5547)" font-family="'Arial-ItalicMT'" font-size="20">ending</text>
<g>
	<defs>
		<rect id="SVGID_2_" width="1190.56" height="1683.78"/>
	</defs>
	<clipPath id="SVGID_31_">
		<use xlink:href="#SVGID_2_"  overflow="visible"/>
	</clipPath>
	
		<line clip-path="url(#SVGID_31_)" fill="none" stroke="#757679" stroke-width="0.5" stroke-miterlimit="10" x1="410.042" y1="395.226" x2="422.842" y2="439.714"/>
</g>
<text transform="matrix(1 0 0 1 465.9229 369.1865)"><tspan x="0" y="0" font-family="'Arial-ItalicMT'" font-size="20">Merkel</tspan><tspan x="60.01" y="0" font-family="'Arial-ItalicMT'" font-size="20"></tspan><tspan x="64.113" y="0" font-family="'Arial-ItalicMT'" font-size="20">s</tspan></text>
<text transform="matrix(1 0 0 1 465.9229 393.1865)" font-family="'Arial-ItalicMT'" font-size="20">receptor</text>
<g>
	<defs>
		<rect id="SVGID_1_" width="1190.56" height="1683.78"/>
	</defs>
	<clipPath id="SVGID_32_">
		<use xlink:href="#SVGID_1_"  overflow="visible"/>
	</clipPath>
	
		<line clip-path="url(#SVGID_32_)" fill="none" stroke="#757679" stroke-width="0.5" stroke-miterlimit="10" x1="505.552" y1="397.526" x2="485.418" y2="444.25"/>
</g>
</svg>
