<?xml version="1.0" encoding="utf-8"?>
<!-- Generator: Adobe Illustrator 16.2.0, SVG Export Plug-In . SVG Version: 6.00 Build 0)  -->
<!DOCTYPE svg PUBLIC "-//W3C//DTD SVG 1.1//EN" "http://www.w3.org/Graphics/SVG/1.1/DTD/svg11.dtd">
<svg version="1.1" xmlns="http://www.w3.org/2000/svg" xmlns:xlink="http://www.w3.org/1999/xlink" x="0px" y="0px" width="457px"
	 height="159px" viewBox="0 0 457 159" enable-background="new 0 0 457 159" xml:space="preserve">
<g id="Layer_1">
</g>
<g id="Layer_2">
	<g>
		<path fill="#EF5A24" d="M48.493,122.788v7.516c0,9.051-6.544,14.223-19.166,14.223s-19.166-5.172-19.166-14.223v-29.415
			c0-9.051,6.544-14.223,19.166-14.223s19.166,5.172,19.166,14.223v5.495H36.339v-6.061c0-4.041-2.571-5.576-6.662-5.576
			s-6.662,1.535-6.662,5.576v30.546c0,4.041,2.571,5.495,6.662,5.495s6.662-1.454,6.662-5.495v-8.081H48.493z"/>
		<path fill="#EF5A24" d="M97.926,143.88H84.954l-2.221-10.263H66.957l-2.22,10.263H52.933l13.089-56.567h18.816L97.926,143.88z
			 M68.593,125.939H80.98l-6.194-28.606L68.593,125.939z"/>
		<path fill="#EF5A24" d="M95.707,87.313h39.735v8.081h-13.44v48.486h-12.855V95.394H95.707V87.313z"/>
		<path fill="#EF5A24" d="M178.214,143.88h-12.972l-2.221-10.263h-15.777l-2.22,10.263h-11.804l13.089-56.567h18.816L178.214,143.88
			z M148.881,125.939h12.388l-6.194-28.606L148.881,125.939z"/>
		<path fill="#EF5A24" d="M184.175,87.313h12.855v48.486h21.153v8.081h-34.008V87.313z"/>
		<path fill="#EF5A24" d="M222.74,100.889c0-9.051,6.895-14.223,19.517-14.223s19.517,5.172,19.517,14.223v29.415
			c0,9.051-6.895,14.223-19.517,14.223s-19.517-5.172-19.517-14.223V100.889z M235.595,130.869c0,4.041,2.571,5.576,6.662,5.576
			s6.662-1.535,6.662-5.576v-30.546c0-4.041-2.571-5.576-6.662-5.576s-6.662,1.535-6.662,5.576V130.869z"/>
		<path fill="#EF5A24" d="M289.354,112.363h17.998v17.94c0,9.051-6.544,14.223-19.166,14.223s-19.166-5.172-19.166-14.223v-29.415
			c0-9.051,6.544-14.223,19.166-14.223s19.166,5.172,19.166,14.223v5.495h-12.154v-6.061c0-4.041-2.571-5.576-6.662-5.576
			s-6.662,1.535-6.662,5.576v30.546c0,4.041,2.571,5.495,6.662,5.495s6.662-1.454,6.662-5.495v-10.424h-5.844V112.363z"/>
		<path fill="#EF5A24" d="M327.921,87.313v43.638c0,4.04,2.571,5.495,6.661,5.495s6.662-1.455,6.662-5.495V87.313h12.154v43.072
			c0,9.051-6.544,14.223-19.167,14.223c-12.622,0-19.166-5.172-19.166-14.223V87.313H327.921z"/>
		<path fill="#EF5A24" d="M375.018,111.151h17.646v8.081h-17.646v16.566h22.205v8.081h-35.06V87.313h35.06v8.081h-22.205V111.151z"
			/>
	</g>
	<g>
		<path fill="#EF5A24" d="M32.009,11.689c12.504,0,18.932,5.172,18.932,14.223v1.778H38.788v-2.343c0-4.041-2.337-5.576-6.428-5.576
			s-6.428,1.535-6.428,5.576c0,11.637,25.126,13.818,25.126,29.98c0,9.051-6.545,14.223-19.167,14.223s-19.166-5.172-19.166-14.223
			v-3.475H24.88v4.04c0,4.041,2.571,5.495,6.661,5.495s6.662-1.454,6.662-5.495c0-11.637-25.126-13.818-25.126-29.98
			C13.077,16.861,19.504,11.689,32.009,11.689z"/>
		<path fill="#EF5A24" d="M96.52,26.316v7.354c0,9.051-6.311,13.98-19.167,13.98h-6.077v21.253H58.421V12.336h18.932
			C90.208,12.336,96.52,17.266,96.52,26.316z M71.276,20.417v19.152h6.077c4.09,0,6.311-1.293,6.311-5.334V25.75
			c0-4.041-2.221-5.333-6.311-5.333H71.276z"/>
		<path fill="#EF5A24" d="M129.359,68.903c-0.701-1.454-1.169-2.344-1.169-6.95v-8.889c0-5.253-2.571-7.192-8.414-7.192h-4.441
			v23.031H102.48V12.336h19.4c13.323,0,19.049,4.283,19.049,13.011v4.444c0,5.818-2.688,9.616-8.415,11.475
			c6.428,1.859,8.531,6.142,8.531,12.041v8.728c0,2.748,0.117,4.769,1.402,6.869H129.359z M115.335,20.417v17.374h5.025
			c4.792,0,7.713-1.454,7.713-5.979v-5.576c0-4.041-1.987-5.818-6.544-5.818H115.335z"/>
		<path fill="#EF5A24" d="M149.46,12.336h12.855v56.567H149.46V12.336z"/>
		<path fill="#EF5A24" d="M183.116,27.933v40.971h-11.57V12.336h16.128l13.206,33.859V12.336h11.453v56.567h-13.206L183.116,27.933z
			"/>
		<path fill="#EF5A24" d="M240.847,37.387h17.998v17.94c0,9.051-6.544,14.223-19.166,14.223s-19.166-5.172-19.166-14.223V25.912
			c0-9.051,6.544-14.223,19.166-14.223s19.166,5.172,19.166,14.223v5.495h-12.154v-6.061c0-4.041-2.571-5.576-6.662-5.576
			s-6.662,1.535-6.662,5.576v30.546c0,4.041,2.571,5.495,6.662,5.495s6.662-1.454,6.662-5.495V45.468h-5.844V37.387z"/>
	</g>
	<g>
		<path fill="#FFFFFF" d="M315.099,66.8h-37.207v-5.431c0.714-0.819,1.708-1.738,2.978-2.758c1.271-1.018,2.78-2.122,4.527-3.313
			c1.059-0.714,2.329-1.494,3.812-2.341c1.482-0.847,3.163-1.772,5.043-2.776c2.091-1.111,3.699-2.09,4.825-2.937
			c1.125-0.847,2.15-1.891,3.078-3.135c0.608-0.819,1.098-1.845,1.469-3.074c0.37-1.23,0.556-2.982,0.556-5.257
			c0-3.306-0.887-5.733-2.66-7.28c-1.774-1.547-4.051-2.321-6.83-2.321c-1.721,0-3.349,0.338-4.884,1.013
			c-1.536,0.675-2.687,1.608-3.455,2.8c0.185,0.847,0.417,1.853,0.695,3.018c0.278,1.166,0.417,2.303,0.417,3.415
			c0,1.006-0.417,1.9-1.251,2.68c-0.834,0.781-2.072,1.171-3.713,1.171c-1.324,0-2.343-0.457-3.058-1.37
			c-0.715-0.914-1.072-2.138-1.072-3.673c0-1.429,0.397-2.865,1.191-4.308c0.794-1.443,1.932-2.773,3.415-3.991
			c1.456-1.191,3.256-2.158,5.4-2.899c2.145-0.741,4.46-1.112,6.949-1.112c5.426,0,9.735,1.21,12.925,3.629
			c3.19,2.42,4.785,5.652,4.785,9.699c0,1.931-0.285,3.689-0.854,5.275c-0.569,1.587-1.489,2.988-2.76,4.204
			c-1.403,1.349-3.044,2.506-4.924,3.472c-1.88,0.965-4.752,2.307-8.617,4.026c-2.303,1.031-4.447,2.109-6.433,3.232
			c-1.985,1.125-3.614,2.216-4.884,3.272h30.536V66.8z"/>
		<path fill="#FFFFFF" d="M359.732,29.711c1.694,2.039,2.958,4.428,3.792,7.167c0.834,2.74,1.251,5.606,1.251,8.597
			c0,3.601-0.516,6.824-1.549,9.669c-1.032,2.846-2.449,5.208-4.249,7.088c-1.854,1.933-4.05,3.389-6.592,4.368
			c-2.542,0.979-5.375,1.469-8.498,1.469c-3.415,0-6.46-0.569-9.133-1.707c-2.674-1.139-4.845-2.7-6.512-4.686
			c-1.747-2.065-3.051-4.48-3.912-7.247s-1.291-5.751-1.291-8.955c0-3.15,0.417-6.049,1.251-8.696
			c0.834-2.647,2.138-5.043,3.912-7.188c1.694-2.065,3.877-3.693,6.552-4.884c2.673-1.191,5.731-1.787,9.173-1.787
			c3.626,0,6.737,0.609,9.332,1.827C355.854,25.966,358.011,27.621,359.732,29.711z M356,45.476c0-6.3-1.079-11.184-3.236-14.653
			c-2.158-3.468-5.089-5.202-8.795-5.202c-3.759,0-6.725,1.734-8.895,5.202c-2.171,3.469-3.256,8.353-3.256,14.653
			c0,5.983,1.039,10.794,3.117,14.434c2.078,3.641,5.063,5.46,8.955,5.46c3.891,0,6.882-1.819,8.974-5.46
			C354.954,56.271,356,51.459,356,45.476z"/>
		<path fill="#FFFFFF" d="M400.99,66.8h-26.764V63.98c0.794-0.053,2.031-0.165,3.713-0.338c1.681-0.172,2.839-0.351,3.474-0.536
			c0.82-0.264,1.45-0.694,1.886-1.29c0.437-0.596,0.655-1.489,0.655-2.681V31.26h-9.888v-3.335h2.184
			c2.859,0,5.42-0.529,7.684-1.588c2.263-1.059,3.884-2.197,4.864-3.415h3.296c-0.08,1.721-0.159,3.732-0.238,6.036
			c-0.08,2.303-0.119,4.368-0.119,6.195v23.547c0,0.927,0.205,1.754,0.615,2.481c0.41,0.729,0.999,1.265,1.767,1.608
			c0.688,0.292,1.813,0.556,3.375,0.794c1.562,0.238,2.726,0.371,3.494,0.397V66.8z"/>
		<path fill="#FFFFFF" d="M423.147,81.294c-2.489,0-4.765-0.312-6.83-0.934s-3.839-1.463-5.321-2.521
			c-1.483-1.059-2.628-2.277-3.435-3.653c-0.808-1.377-1.211-2.793-1.211-4.249c0-1.297,0.317-2.469,0.953-3.514
			c0.635-1.046,1.654-1.568,3.057-1.568c1.588,0,2.8,0.391,3.634,1.171c0.833,0.78,1.25,1.674,1.25,2.681
			c0,0.847-0.139,1.919-0.417,3.216c-0.278,1.297-0.496,2.224-0.655,2.78c0.186,0.238,0.523,0.556,1.014,0.953
			c0.49,0.396,1.094,0.754,1.81,1.072c0.849,0.396,1.737,0.714,2.666,0.952s2.241,0.357,3.938,0.357
			c1.591,0,3.123-0.265,4.594-0.794c1.472-0.529,2.765-1.377,3.879-2.541c1.167-1.218,2.075-2.641,2.725-4.269
			c0.649-1.629,0.975-3.766,0.975-6.413c0-1.43-0.153-2.846-0.458-4.249s-0.869-2.621-1.692-3.653s-1.944-1.833-3.363-2.402
			c-1.42-0.569-3.218-0.854-5.394-0.854h-5.215v-4.566h3.465c3.663,0,6.305-1.006,7.924-3.018c1.62-2.011,2.43-5.043,2.43-9.093
			c0-3.309-0.783-5.804-2.348-7.485c-1.566-1.681-3.782-2.522-6.647-2.522c-1.38,0-2.514,0.166-3.403,0.497
			c-0.889,0.332-1.612,0.655-2.169,0.973c-0.664,0.371-1.208,0.781-1.632,1.231c-0.424,0.451-0.743,0.781-0.955,0.993
			c0.185,0.847,0.41,1.886,0.675,3.117c0.264,1.231,0.397,2.402,0.397,3.514c0,0.979-0.417,1.86-1.251,2.641
			c-0.834,0.781-2.059,1.171-3.673,1.171c-1.404,0-2.429-0.502-3.078-1.509c-0.649-1.005-0.973-2.17-0.973-3.494
			c0-1.376,0.383-2.78,1.151-4.209c0.768-1.43,1.906-2.766,3.415-4.011c1.509-1.244,3.349-2.25,5.52-3.018
			c2.17-0.768,4.672-1.151,7.505-1.151c3.256,0,5.95,0.483,8.081,1.449c2.13,0.967,3.805,2.138,5.023,3.514
			c1.191,1.35,2.012,2.767,2.462,4.249c0.45,1.483,0.675,2.753,0.675,3.812c0,1.324-0.186,2.654-0.556,3.991
			c-0.371,1.337-0.979,2.575-1.827,3.713c-0.927,1.245-2.151,2.376-3.673,3.395c-1.522,1.02-3.435,1.847-5.738,2.482v0.636
			c1.482,0.133,3.064,0.463,4.746,0.992c1.681,0.529,3.196,1.311,4.546,2.343c1.403,1.086,2.555,2.482,3.455,4.189
			c0.899,1.708,1.35,3.872,1.35,6.492c0,5.083-2.039,9.206-6.115,12.37C434.358,79.712,429.263,81.294,423.147,81.294z"/>
	</g>
</g>
</svg>
