<?xml version="1.0" encoding="utf-8"?>
<!-- Generator: Adobe Illustrator 16.2.0, SVG Export Plug-In . SVG Version: 6.00 Build 0)  -->
<!DOCTYPE svg PUBLIC "-//W3C//DTD SVG 1.1//EN" "http://www.w3.org/Graphics/SVG/1.1/DTD/svg11.dtd">
<svg version="1.1" xmlns="http://www.w3.org/2000/svg" xmlns:xlink="http://www.w3.org/1999/xlink" x="0px" y="0px" width="213px"
	 height="82px" viewBox="0 0 213 82" enable-background="new 0 0 213 82" xml:space="preserve">
<g id="Layer_1">
</g>
<g id="Layer_2">
	<g>
		<g>
			<path fill="#EF5A24" d="M29.534,18.146v4.766c0,5.865-3.635,9.06-11.041,9.06h-3.501v13.773H7.587V9.086h10.906
				C25.899,9.086,29.534,12.281,29.534,18.146z M14.993,14.323v12.411h3.501c2.356,0,3.635-0.838,3.635-3.456v-5.499
				c0-2.618-1.279-3.456-3.635-3.456H14.993z"/>
			<path fill="#EF5A24" d="M60.101,45.744c-0.404-0.942-0.673-1.519-0.673-4.504v-5.76c0-3.404-1.481-4.661-4.848-4.661h-2.558
				v14.925h-7.405V9.086h11.175c7.675,0,10.974,2.775,10.974,8.431v2.88c0,3.771-1.548,6.232-4.847,7.436
				c3.703,1.205,4.915,3.98,4.915,7.803v5.656c0,1.78,0.067,3.09,0.808,4.451H60.101z M52.022,14.323v11.259h2.895
				c2.76,0,4.443-0.943,4.443-3.875v-3.613c0-2.618-1.145-3.771-3.77-3.771H52.022z"/>
			<path fill="#EF5A24" d="M83.329,9.086h7.405v36.658h-7.405V9.086z"/>
			<path fill="#EF5A24" d="M114.365,19.193v26.551H107.7V9.086h9.291l7.607,21.942V9.086h6.597v36.658h-7.607L114.365,19.193z"/>
			<path fill="#EF5A24" d="M169.638,32.076v4.87c0,5.865-3.77,9.217-11.041,9.217c-7.271,0-11.041-3.352-11.041-9.217V17.884
				c0-5.865,3.77-9.217,11.041-9.217c7.271,0,11.041,3.352,11.041,9.217v3.561h-7.001v-3.928c0-2.618-1.481-3.613-3.837-3.613
				c-2.356,0-3.837,0.995-3.837,3.613v19.795c0,2.618,1.481,3.561,3.837,3.561c2.356,0,3.837-0.943,3.837-3.561v-5.237H169.638z"/>
			<path fill="#EF5A24" d="M193.202,24.535h10.166v5.237h-10.166v10.735h12.791v5.237h-20.196V9.086h20.196v5.237h-12.791V24.535z"
				/>
		</g>
		<g>
			<path fill="#FFFFFF" d="M89.054,54.137c0,0.384-0.102,0.708-0.307,0.972c-0.205,0.265-0.516,0.397-0.934,0.397
				c-0.265,0-0.497-0.056-0.697-0.167c-0.201-0.111-0.386-0.26-0.557-0.448c-0.171-0.188-0.329-0.401-0.474-0.64
				s-0.269-0.431-0.371-0.576c-0.571,0.025-1.013,0.423-1.324,1.194c-0.311,0.771-0.467,1.998-0.467,3.683v1.29h3.25v1.229h-3.25
				v9.058c0,0.299,0.058,0.542,0.173,0.729c0.115,0.188,0.296,0.328,0.543,0.422c0.205,0.077,0.478,0.139,0.819,0.186
				s0.635,0.079,0.883,0.096v0.844h-6.653v-0.844c0.196-0.017,0.398-0.034,0.608-0.051c0.208-0.017,0.39-0.051,0.543-0.103
				c0.239-0.077,0.416-0.211,0.531-0.403c0.115-0.192,0.172-0.441,0.172-0.749v-9.186h-2.495v-1.229h2.495v-0.805
				c0-1.916,0.497-3.467,1.491-4.655c0.994-1.188,2.237-1.782,3.729-1.782c0.759,0,1.331,0.149,1.714,0.448
				C88.862,53.348,89.054,53.71,89.054,54.137z"/>
			<path fill="#FFFFFF" d="M104.328,72.176l-4.119,0.282l-0.193-0.179V70.68h-0.076c-0.205,0.213-0.435,0.441-0.69,0.685
				c-0.256,0.243-0.549,0.462-0.881,0.659c-0.383,0.23-0.754,0.405-1.111,0.524c-0.358,0.12-0.864,0.179-1.52,0.179
				c-1.116,0-1.965-0.364-2.548-1.093s-0.875-1.787-0.875-3.176v-6.033c0-0.307-0.058-0.564-0.174-0.773
				c-0.116-0.208-0.285-0.39-0.508-0.543c-0.155-0.102-0.348-0.177-0.58-0.223c-0.232-0.047-0.477-0.079-0.734-0.096v-0.844
				l4.209-0.307l0.192,0.179v8.764c0,0.913,0.205,1.6,0.614,2.06c0.41,0.46,0.9,0.691,1.472,0.691c0.469,0,0.887-0.072,1.253-0.217
				c0.367-0.145,0.674-0.315,0.921-0.511c0.23-0.179,0.433-0.368,0.608-0.568c0.174-0.2,0.309-0.386,0.403-0.556v-7.143
				c0-0.281-0.06-0.53-0.179-0.748s-0.286-0.402-0.499-0.556c-0.153-0.103-0.382-0.165-0.685-0.186s-0.642-0.041-1.017-0.058v-0.844
				l4.593-0.307l0.192,0.179v10.007c0,0.29,0.06,0.537,0.179,0.742c0.119,0.205,0.286,0.379,0.499,0.524
				c0.153,0.094,0.337,0.155,0.55,0.185c0.213,0.03,0.448,0.049,0.704,0.058V72.176z"/>
			<path fill="#FFFFFF" d="M118.155,61.417c0,0.435-0.106,0.821-0.32,1.158c-0.213,0.337-0.542,0.505-0.985,0.505
				c-0.478,0-0.842-0.124-1.094-0.371c-0.251-0.248-0.377-0.521-0.377-0.819c0-0.188,0.015-0.358,0.045-0.512
				c0.03-0.153,0.058-0.307,0.083-0.46c-0.401,0-0.87,0.162-1.408,0.486c-0.537,0.324-0.994,0.785-1.369,1.382v7.344
				c0,0.299,0.057,0.542,0.172,0.729c0.115,0.188,0.296,0.328,0.544,0.422c0.213,0.085,0.488,0.149,0.825,0.192
				c0.337,0.043,0.629,0.073,0.876,0.09v0.844h-6.653v-0.844c0.196-0.017,0.398-0.034,0.607-0.051s0.39-0.051,0.544-0.102
				c0.239-0.077,0.416-0.211,0.531-0.403c0.115-0.191,0.173-0.441,0.173-0.748v-7.782c0-0.264-0.062-0.524-0.186-0.779
				c-0.124-0.256-0.296-0.46-0.518-0.614c-0.162-0.102-0.354-0.177-0.576-0.224c-0.222-0.047-0.461-0.079-0.717-0.096v-0.845
				l4.197-0.281l0.179,0.179v1.778h0.064c0.528-0.691,1.117-1.215,1.766-1.574c0.648-0.358,1.241-0.537,1.778-0.537
				c0.537,0,0.974,0.175,1.311,0.524S118.155,60.828,118.155,61.417z"/>
			<path fill="#FFFFFF" d="M135.783,72.407h-6.167v-0.844c0.196-0.017,0.412-0.034,0.646-0.051c0.234-0.017,0.428-0.051,0.582-0.103
				c0.239-0.077,0.416-0.211,0.531-0.403s0.173-0.441,0.173-0.749v-6.487c0-0.896-0.212-1.586-0.635-2.072
				c-0.423-0.486-0.938-0.729-1.545-0.729c-0.453,0-0.868,0.07-1.244,0.211c-0.376,0.141-0.709,0.313-1,0.519
				c-0.282,0.196-0.507,0.407-0.673,0.633s-0.289,0.407-0.365,0.543v7.254c0,0.29,0.06,0.529,0.179,0.716
				c0.12,0.188,0.299,0.333,0.538,0.435c0.179,0.085,0.373,0.149,0.582,0.192c0.209,0.043,0.424,0.073,0.646,0.09v0.844h-6.179
				v-0.844c0.196-0.017,0.398-0.034,0.607-0.051s0.39-0.051,0.544-0.102c0.239-0.077,0.416-0.211,0.531-0.403
				c0.115-0.191,0.173-0.441,0.173-0.748v-7.782c0-0.29-0.062-0.556-0.186-0.799s-0.296-0.441-0.518-0.594
				c-0.162-0.102-0.354-0.177-0.576-0.224c-0.222-0.047-0.461-0.079-0.717-0.096v-0.845l4.197-0.281l0.179,0.179v1.778h0.064
				c0.205-0.205,0.46-0.45,0.768-0.736c0.307-0.286,0.597-0.518,0.87-0.697c0.315-0.205,0.69-0.375,1.125-0.512
				c0.435-0.136,0.926-0.205,1.472-0.205c1.211,0,2.109,0.377,2.693,1.132c0.584,0.755,0.876,1.759,0.876,3.013v6.563
				c0,0.299,0.051,0.54,0.154,0.723c0.102,0.184,0.277,0.326,0.524,0.429c0.205,0.085,0.381,0.145,0.531,0.179
				c0.149,0.034,0.356,0.06,0.621,0.077V72.407z"/>
			<path fill="#FFFFFF" d="M146.067,72.407h-6.09v-0.844c0.196-0.017,0.398-0.034,0.608-0.051c0.208-0.017,0.39-0.051,0.543-0.102
				c0.239-0.077,0.416-0.211,0.531-0.403c0.115-0.191,0.172-0.441,0.172-0.748v-7.782c0-0.273-0.062-0.522-0.186-0.748
				c-0.124-0.226-0.296-0.416-0.518-0.569c-0.162-0.102-0.396-0.189-0.704-0.262s-0.588-0.117-0.844-0.134v-0.845l4.452-0.281
				l0.179,0.179v10.287c0,0.298,0.057,0.546,0.171,0.742c0.114,0.196,0.294,0.341,0.54,0.435c0.187,0.077,0.369,0.139,0.546,0.186
				s0.377,0.079,0.597,0.096V72.407z M144.468,54.661c0,0.486-0.16,0.911-0.48,1.273c-0.32,0.363-0.714,0.544-1.183,0.544
				c-0.435,0-0.813-0.173-1.132-0.518c-0.32-0.346-0.48-0.74-0.48-1.184c0-0.469,0.16-0.878,0.48-1.228s0.697-0.525,1.132-0.525
				c0.486,0,0.885,0.165,1.196,0.493C144.312,53.845,144.468,54.226,144.468,54.661z"/>
			<path fill="#FFFFFF" d="M158.04,71.856c-0.555,0.23-1.079,0.424-1.574,0.583c-0.495,0.158-1.1,0.236-1.817,0.236
				c-1.058,0-1.802-0.267-2.232-0.799c-0.431-0.533-0.646-1.286-0.646-2.258v-8.546h-2.277v-1.229h2.328v-3.928h2.329v3.928h3.621
				v1.229h-3.595v7.049c0,0.529,0.019,0.97,0.058,1.324c0.038,0.354,0.13,0.664,0.275,0.928c0.136,0.248,0.341,0.435,0.614,0.563
				c0.273,0.128,0.64,0.192,1.1,0.192c0.213,0,0.527-0.02,0.94-0.058c0.414-0.039,0.706-0.087,0.876-0.147V71.856z"/>
			<path fill="#FFFFFF" d="M175.438,72.176l-4.119,0.282l-0.193-0.179V70.68h-0.076c-0.205,0.213-0.435,0.441-0.69,0.685
				c-0.256,0.243-0.549,0.462-0.881,0.659c-0.383,0.23-0.754,0.405-1.111,0.524c-0.358,0.12-0.864,0.179-1.52,0.179
				c-1.116,0-1.965-0.364-2.548-1.093s-0.875-1.787-0.875-3.176v-6.033c0-0.307-0.058-0.564-0.174-0.773
				c-0.116-0.208-0.285-0.39-0.508-0.543c-0.155-0.102-0.348-0.177-0.58-0.223c-0.232-0.047-0.477-0.079-0.734-0.096v-0.844
				l4.209-0.307l0.192,0.179v8.764c0,0.913,0.205,1.6,0.614,2.06c0.41,0.46,0.9,0.691,1.472,0.691c0.469,0,0.887-0.072,1.253-0.217
				c0.367-0.145,0.674-0.315,0.921-0.511c0.23-0.179,0.433-0.368,0.608-0.568c0.174-0.2,0.309-0.386,0.403-0.556v-7.143
				c0-0.281-0.06-0.53-0.179-0.748s-0.286-0.402-0.499-0.556c-0.153-0.103-0.382-0.165-0.685-0.186s-0.642-0.041-1.017-0.058v-0.844
				l4.593-0.307l0.192,0.179v10.007c0,0.29,0.06,0.537,0.179,0.742c0.119,0.205,0.286,0.379,0.499,0.524
				c0.153,0.094,0.337,0.155,0.55,0.185c0.213,0.03,0.448,0.049,0.704,0.058V72.176z"/>
			<path fill="#FFFFFF" d="M189.265,61.417c0,0.435-0.106,0.821-0.32,1.158c-0.213,0.337-0.542,0.505-0.985,0.505
				c-0.478,0-0.842-0.124-1.094-0.371c-0.251-0.248-0.377-0.521-0.377-0.819c0-0.188,0.015-0.358,0.045-0.512
				c0.03-0.153,0.058-0.307,0.083-0.46c-0.401,0-0.87,0.162-1.408,0.486c-0.537,0.324-0.994,0.785-1.369,1.382v7.344
				c0,0.299,0.057,0.542,0.172,0.729c0.115,0.188,0.296,0.328,0.544,0.422c0.213,0.085,0.488,0.149,0.825,0.192
				c0.337,0.043,0.629,0.073,0.876,0.09v0.844h-6.653v-0.844c0.196-0.017,0.398-0.034,0.607-0.051s0.39-0.051,0.544-0.102
				c0.239-0.077,0.416-0.211,0.531-0.403c0.115-0.191,0.173-0.441,0.173-0.748v-7.782c0-0.264-0.062-0.524-0.186-0.779
				c-0.124-0.256-0.296-0.46-0.518-0.614c-0.162-0.102-0.354-0.177-0.576-0.224c-0.222-0.047-0.461-0.079-0.717-0.096v-0.845
				l4.197-0.281l0.179,0.179v1.778h0.064c0.528-0.691,1.117-1.215,1.766-1.574c0.648-0.358,1.241-0.537,1.778-0.537
				c0.537,0,0.974,0.175,1.311,0.524S189.265,60.828,189.265,61.417z"/>
			<path fill="#FFFFFF" d="M204.168,69.438c-0.529,1.006-1.237,1.809-2.124,2.405c-0.887,0.597-1.906,0.896-3.058,0.896
				c-1.015,0-1.904-0.179-2.667-0.537c-0.764-0.358-1.393-0.845-1.887-1.458c-0.495-0.614-0.864-1.331-1.107-2.149
				s-0.364-1.685-0.364-2.597c0-0.819,0.13-1.623,0.39-2.412c0.26-0.789,0.642-1.499,1.145-2.13
				c0.486-0.605,1.089-1.094,1.811-1.465c0.72-0.371,1.529-0.557,2.424-0.557c0.921,0,1.71,0.145,2.367,0.435s1.19,0.687,1.6,1.189
				c0.392,0.478,0.684,1.041,0.876,1.689c0.192,0.648,0.288,1.352,0.288,2.111v0.844h-8.354c0,0.829,0.079,1.582,0.237,2.257
				c0.158,0.675,0.407,1.27,0.748,1.783c0.333,0.496,0.768,0.887,1.305,1.173c0.538,0.287,1.177,0.43,1.919,0.43
				c0.759,0,1.414-0.178,1.964-0.534c0.55-0.356,1.081-0.997,1.593-1.923L204.168,69.438z M201.34,64.628
				c0-0.476-0.041-0.986-0.122-1.531c-0.081-0.544-0.211-0.999-0.39-1.365c-0.196-0.391-0.465-0.71-0.806-0.957
				s-0.78-0.37-1.318-0.37c-0.896,0-1.64,0.372-2.232,1.116s-0.915,1.779-0.966,3.106H201.34z"/>
		</g>
	</g>
</g>
</svg>
