<?xml version="1.0" encoding="utf-8"?>
<!-- Generator: Adobe Illustrator 16.2.0, SVG Export Plug-In . SVG Version: 6.00 Build 0)  -->
<!DOCTYPE svg PUBLIC "-//W3C//DTD SVG 1.1//EN" "http://www.w3.org/Graphics/SVG/1.1/DTD/svg11.dtd">
<svg version="1.1" xmlns="http://www.w3.org/2000/svg" xmlns:xlink="http://www.w3.org/1999/xlink" x="0px" y="0px" width="201px"
	 height="78px" viewBox="0 0 201 78" enable-background="new 0 0 201 78" xml:space="preserve">
<g id="Layer_1">
	<g>
		<defs>
			<rect id="SVGID_3_" x="424.267" y="-48.854" width="350.398" height="349.682"/>
		</defs>
		<clipPath id="SVGID_2_">
			<use xlink:href="#SVGID_3_"  overflow="visible"/>
		</clipPath>
		<circle clip-path="url(#SVGID_2_)" fill="#F0F0F0" cx="424.267" cy="-48.854" r="334.588"/>
	</g>
</g>
<g id="Layer_2">
	<g>
		<g>
			<path fill="#EF5A24" d="M29.818,18.845v4.305c0,5.298-3.283,8.184-9.972,8.184h-3.162v12.44H9.996V10.662h9.851
				C26.535,10.662,29.818,13.547,29.818,18.845z M16.685,15.393v11.21h3.162c2.128,0,3.284-0.757,3.284-3.122v-4.967
				c0-2.365-1.155-3.121-3.284-3.121H16.685z"/>
			<path fill="#EF5A24" d="M57.425,43.773c-0.365-0.852-0.608-1.372-0.608-4.068v-5.203c0-3.074-1.338-4.21-4.378-4.21h-2.311
				v13.481H43.44V10.662h10.094c6.932,0,9.912,2.507,9.912,7.615v2.602c0,3.406-1.398,5.629-4.378,6.717
				c3.344,1.088,4.439,3.596,4.439,7.049v5.108c0,1.608,0.061,2.791,0.729,4.021H57.425z M50.129,15.393v10.17h2.615
				c2.493,0,4.013-0.852,4.013-3.501v-3.264c0-2.365-1.034-3.405-3.405-3.405H50.129z"/>
			<path fill="#EF5A24" d="M78.405,10.662h6.689v33.111h-6.689V10.662z"/>
			<path fill="#EF5A24" d="M106.436,19.791v23.982h-6.02V10.662h8.391l6.871,19.819V10.662h5.959v33.111h-6.871L106.436,19.791z"/>
			<path fill="#EF5A24" d="M156.359,31.428v4.398c0,5.299-3.405,8.326-9.972,8.326c-6.567,0-9.973-3.027-9.973-8.326V18.608
				c0-5.298,3.405-8.325,9.973-8.325c6.567,0,9.972,3.027,9.972,8.325v3.217h-6.324v-3.548c0-2.365-1.337-3.264-3.466-3.264
				c-2.128,0-3.466,0.898-3.466,3.264v17.881c0,2.364,1.338,3.216,3.466,3.216c2.128,0,3.466-0.852,3.466-3.216v-4.73H156.359z"/>
			<path fill="#EF5A24" d="M177.642,24.616h9.182v4.73h-9.182v9.696h11.553v4.73h-18.242V10.662h18.242v4.73h-11.553V24.616z"/>
		</g>
		<g>
			<path fill="#333333" d="M83.575,51.354c0,0.347-0.093,0.64-0.277,0.878c-0.185,0.239-0.466,0.358-0.844,0.358
				c-0.239,0-0.449-0.05-0.63-0.15s-0.349-0.235-0.502-0.404c-0.154-0.17-0.297-0.362-0.428-0.578s-0.243-0.389-0.335-0.52
				c-0.516,0.022-0.915,0.382-1.196,1.078c-0.281,0.695-0.421,1.805-0.421,3.326v1.165h2.935v1.109h-2.935v8.182
				c0,0.27,0.052,0.489,0.156,0.658c0.104,0.17,0.268,0.297,0.491,0.382c0.185,0.069,0.431,0.125,0.74,0.167
				c0.308,0.043,0.574,0.071,0.797,0.087v0.763h-6.009v-0.763c0.177-0.016,0.36-0.03,0.549-0.046
				c0.189-0.016,0.353-0.047,0.491-0.093c0.216-0.069,0.375-0.19,0.479-0.364c0.104-0.173,0.156-0.398,0.156-0.676v-8.297h-2.253
				v-1.109h2.253V55.78c0-1.73,0.449-3.132,1.346-4.204c0.897-1.073,2.02-1.609,3.368-1.609c0.686,0,1.202,0.135,1.549,0.404
				S83.575,50.968,83.575,51.354z"/>
			<path fill="#333333" d="M97.37,67.646L93.649,67.9l-0.174-0.161v-1.444h-0.069c-0.185,0.192-0.393,0.398-0.623,0.618
				c-0.231,0.219-0.496,0.418-0.796,0.595c-0.347,0.208-0.681,0.366-1.004,0.474c-0.323,0.108-0.781,0.162-1.373,0.162
				c-1.008,0-1.775-0.329-2.302-0.987s-0.791-1.614-0.791-2.868V58.84c0-0.277-0.052-0.51-0.157-0.698
				c-0.105-0.188-0.258-0.353-0.459-0.491c-0.14-0.092-0.314-0.159-0.523-0.202c-0.209-0.042-0.43-0.07-0.663-0.086V56.6
				l3.802-0.277l0.173,0.161v7.916c0,0.824,0.185,1.444,0.555,1.86c0.37,0.416,0.813,0.624,1.329,0.624
				c0.424,0,0.801-0.065,1.132-0.196c0.332-0.131,0.609-0.284,0.832-0.462c0.208-0.161,0.391-0.332,0.549-0.514
				c0.158-0.181,0.279-0.348,0.364-0.502v-6.451c0-0.254-0.054-0.479-0.162-0.676c-0.108-0.195-0.258-0.363-0.451-0.502
				c-0.139-0.092-0.345-0.147-0.618-0.167c-0.274-0.02-0.58-0.036-0.919-0.052V56.6l4.148-0.277l0.174,0.161v9.038
				c0,0.262,0.054,0.485,0.162,0.67s0.258,0.343,0.451,0.473c0.139,0.085,0.304,0.141,0.497,0.168
				c0.192,0.027,0.404,0.044,0.636,0.052V67.646z"/>
			<path fill="#333333" d="M109.859,57.929c0,0.393-0.097,0.741-0.289,1.045c-0.193,0.305-0.489,0.457-0.89,0.457
				c-0.432,0-0.761-0.111-0.988-0.335s-0.341-0.47-0.341-0.74c0-0.169,0.013-0.323,0.041-0.462c0.027-0.139,0.052-0.277,0.075-0.416
				c-0.362,0-0.786,0.146-1.271,0.439s-0.898,0.709-1.237,1.248v6.633c0,0.27,0.052,0.489,0.156,0.658
				c0.104,0.17,0.268,0.297,0.491,0.382c0.192,0.077,0.441,0.135,0.745,0.173c0.304,0.039,0.568,0.065,0.792,0.081v0.763h-6.009
				v-0.763c0.177-0.016,0.36-0.03,0.549-0.046c0.188-0.016,0.353-0.046,0.491-0.093c0.215-0.069,0.375-0.19,0.479-0.363
				s0.156-0.398,0.156-0.675v-7.029c0-0.238-0.056-0.474-0.167-0.704s-0.268-0.415-0.468-0.554c-0.146-0.093-0.32-0.16-0.52-0.202
				c-0.201-0.042-0.416-0.071-0.647-0.087v-0.763l3.79-0.254l0.162,0.161v1.606h0.058c0.478-0.624,1.009-1.098,1.595-1.421
				c0.585-0.324,1.121-0.485,1.606-0.485s0.88,0.158,1.185,0.474C109.707,56.973,109.859,57.396,109.859,57.929z"/>
			<path fill="#333333" d="M125.781,67.854h-5.57v-0.763c0.177-0.016,0.372-0.03,0.583-0.046s0.387-0.047,0.526-0.093
				c0.215-0.069,0.375-0.19,0.479-0.364c0.104-0.173,0.156-0.398,0.156-0.676v-5.858c0-0.81-0.191-1.433-0.574-1.872
				s-0.848-0.659-1.396-0.659c-0.409,0-0.784,0.063-1.124,0.191c-0.34,0.127-0.641,0.283-0.903,0.468
				c-0.255,0.177-0.458,0.368-0.608,0.572c-0.15,0.204-0.261,0.367-0.33,0.49v6.553c0,0.262,0.054,0.478,0.162,0.646
				c0.107,0.17,0.27,0.301,0.485,0.394c0.162,0.077,0.337,0.135,0.525,0.173c0.189,0.039,0.383,0.065,0.584,0.081v0.763h-5.582
				v-0.763c0.177-0.016,0.36-0.03,0.549-0.046c0.188-0.016,0.353-0.046,0.491-0.093c0.215-0.069,0.375-0.19,0.479-0.363
				s0.156-0.398,0.156-0.675v-7.029c0-0.262-0.056-0.502-0.167-0.722c-0.112-0.219-0.268-0.397-0.468-0.536
				c-0.146-0.093-0.32-0.16-0.52-0.202c-0.201-0.042-0.416-0.071-0.647-0.087v-0.763l3.79-0.254l0.162,0.161v1.606h0.058
				c0.185-0.185,0.416-0.406,0.693-0.664s0.539-0.468,0.786-0.63c0.285-0.185,0.624-0.339,1.017-0.462
				c0.393-0.123,0.836-0.186,1.329-0.186c1.094,0,1.905,0.341,2.433,1.022c0.527,0.683,0.792,1.59,0.792,2.722v5.928
				c0,0.271,0.046,0.487,0.139,0.653c0.092,0.166,0.25,0.295,0.474,0.387c0.185,0.077,0.345,0.132,0.479,0.162
				c0.135,0.031,0.322,0.054,0.561,0.069V67.854z"/>
			<path fill="#333333" d="M135.069,67.854h-5.5v-0.763c0.177-0.016,0.36-0.03,0.549-0.046c0.189-0.016,0.353-0.046,0.491-0.093
				c0.216-0.069,0.375-0.19,0.479-0.363s0.156-0.398,0.156-0.675v-7.029c0-0.246-0.056-0.472-0.167-0.676
				c-0.112-0.203-0.268-0.375-0.468-0.513c-0.146-0.093-0.358-0.172-0.635-0.237s-0.532-0.105-0.763-0.121v-0.763l4.021-0.254
				l0.162,0.161v9.291c0,0.27,0.051,0.493,0.155,0.67c0.103,0.178,0.266,0.309,0.488,0.394c0.168,0.069,0.333,0.125,0.493,0.167
				c0.161,0.043,0.341,0.071,0.54,0.087V67.854z M133.625,51.827c0,0.438-0.145,0.822-0.434,1.149
				c-0.289,0.328-0.645,0.491-1.069,0.491c-0.393,0-0.733-0.156-1.022-0.468c-0.289-0.313-0.433-0.668-0.433-1.069
				c0-0.423,0.144-0.793,0.433-1.109c0.289-0.315,0.63-0.474,1.022-0.474c0.439,0,0.799,0.148,1.081,0.445
				S133.625,51.434,133.625,51.827z"/>
			<path fill="#333333" d="M145.882,67.357c-0.5,0.208-0.975,0.384-1.421,0.526c-0.447,0.142-0.994,0.213-1.641,0.213
				c-0.956,0-1.627-0.24-2.017-0.722s-0.583-1.161-0.583-2.04v-7.719h-2.057v-1.109h2.103v-3.548h2.103v3.548h3.27v1.109h-3.247
				v6.367c0,0.478,0.018,0.876,0.052,1.196c0.035,0.319,0.117,0.599,0.249,0.838c0.123,0.223,0.308,0.393,0.555,0.508
				c0.246,0.116,0.578,0.174,0.994,0.174c0.192,0,0.476-0.018,0.849-0.053c0.374-0.034,0.638-0.078,0.792-0.133V67.357z"/>
			<path fill="#333333" d="M161.596,67.646l-3.721,0.254l-0.174-0.161v-1.444h-0.069c-0.185,0.192-0.393,0.398-0.623,0.618
				c-0.231,0.219-0.496,0.418-0.796,0.595c-0.347,0.208-0.681,0.366-1.004,0.474c-0.323,0.108-0.781,0.162-1.373,0.162
				c-1.008,0-1.775-0.329-2.302-0.987s-0.791-1.614-0.791-2.868V58.84c0-0.277-0.052-0.51-0.157-0.698
				c-0.105-0.188-0.258-0.353-0.459-0.491c-0.14-0.092-0.314-0.159-0.523-0.202c-0.209-0.042-0.43-0.07-0.663-0.086V56.6
				l3.802-0.277l0.173,0.161v7.916c0,0.824,0.185,1.444,0.555,1.86c0.37,0.416,0.813,0.624,1.329,0.624
				c0.424,0,0.801-0.065,1.132-0.196c0.332-0.131,0.609-0.284,0.832-0.462c0.208-0.161,0.391-0.332,0.549-0.514
				c0.158-0.181,0.279-0.348,0.364-0.502v-6.451c0-0.254-0.054-0.479-0.162-0.676c-0.108-0.195-0.258-0.363-0.451-0.502
				c-0.139-0.092-0.345-0.147-0.618-0.167c-0.274-0.02-0.58-0.036-0.919-0.052V56.6l4.148-0.277l0.174,0.161v9.038
				c0,0.262,0.054,0.485,0.162,0.67s0.258,0.343,0.451,0.473c0.139,0.085,0.304,0.141,0.497,0.168
				c0.192,0.027,0.404,0.044,0.636,0.052V67.646z"/>
			<path fill="#333333" d="M174.085,57.929c0,0.393-0.097,0.741-0.289,1.045c-0.193,0.305-0.489,0.457-0.89,0.457
				c-0.432,0-0.761-0.111-0.988-0.335s-0.341-0.47-0.341-0.74c0-0.169,0.013-0.323,0.041-0.462c0.027-0.139,0.052-0.277,0.075-0.416
				c-0.362,0-0.786,0.146-1.271,0.439s-0.898,0.709-1.237,1.248v6.633c0,0.27,0.052,0.489,0.156,0.658
				c0.104,0.17,0.268,0.297,0.491,0.382c0.192,0.077,0.441,0.135,0.745,0.173c0.304,0.039,0.568,0.065,0.792,0.081v0.763h-6.009
				v-0.763c0.177-0.016,0.36-0.03,0.549-0.046c0.188-0.016,0.353-0.046,0.491-0.093c0.215-0.069,0.375-0.19,0.479-0.363
				s0.156-0.398,0.156-0.675v-7.029c0-0.238-0.056-0.474-0.167-0.704s-0.268-0.415-0.468-0.554c-0.146-0.093-0.32-0.16-0.52-0.202
				c-0.201-0.042-0.416-0.071-0.647-0.087v-0.763l3.79-0.254l0.162,0.161v1.606h0.058c0.478-0.624,1.009-1.098,1.595-1.421
				c0.585-0.324,1.121-0.485,1.606-0.485s0.88,0.158,1.185,0.474C173.933,56.973,174.085,57.396,174.085,57.929z"/>
			<path fill="#333333" d="M187.545,65.174c-0.478,0.909-1.117,1.633-1.918,2.172c-0.801,0.539-1.722,0.81-2.762,0.81
				c-0.917,0-1.72-0.162-2.41-0.485c-0.689-0.324-1.258-0.763-1.704-1.317c-0.447-0.555-0.78-1.202-1-1.941
				c-0.219-0.74-0.329-1.521-0.329-2.346c0-0.74,0.117-1.466,0.353-2.179c0.235-0.712,0.58-1.354,1.034-1.924
				c0.439-0.547,0.984-0.988,1.635-1.323c0.651-0.335,1.381-0.503,2.189-0.503c0.832,0,1.544,0.132,2.138,0.394
				s1.075,0.62,1.445,1.074c0.354,0.432,0.618,0.94,0.792,1.525c0.173,0.586,0.26,1.222,0.26,1.907V61.8h-7.546
				c0,0.748,0.071,1.428,0.214,2.038s0.368,1.146,0.676,1.609c0.3,0.448,0.693,0.802,1.179,1.061
				c0.485,0.258,1.063,0.388,1.733,0.388c0.686,0,1.277-0.161,1.774-0.482c0.497-0.321,0.977-0.9,1.439-1.736L187.545,65.174z
				 M184.991,60.829c0-0.431-0.037-0.892-0.11-1.383s-0.19-0.902-0.353-1.232c-0.177-0.354-0.42-0.642-0.728-0.864
				s-0.705-0.334-1.19-0.334c-0.809,0-1.481,0.336-2.017,1.008s-0.826,1.607-0.873,2.806H184.991z"/>
		</g>
	</g>
</g>
</svg>
