<?xml version="1.0" encoding="utf-8"?>
<!-- Generator: Adobe Illustrator 16.2.0, SVG Export Plug-In . SVG Version: 6.00 Build 0)  -->
<!DOCTYPE svg PUBLIC "-//W3C//DTD SVG 1.1//EN" "http://www.w3.org/Graphics/SVG/1.1/DTD/svg11.dtd">
<svg version="1.1" xmlns="http://www.w3.org/2000/svg" xmlns:xlink="http://www.w3.org/1999/xlink" x="0px" y="0px"
	 width="168.521px" height="18.442px" viewBox="0 0 168.521 18.442" enable-background="new 0 0 168.521 18.442"
	 xml:space="preserve">
<g id="Layer_1">
</g>
<g id="Layer_2">
	<g>
		<g opacity="0.75">
			<path d="M6.823,7.289l-1.881,6.842c-0.32,1.221-0.04,1.561,0.641,1.86c0.319,0.14,0.6,0.26,0.6,0.66c0,0.56-0.64,0.54-1.04,0.54
				H2.842c-0.399,0-1.12-0.02-1.12-0.6c0-0.48,0.34-0.461,0.78-0.681c0.42-0.22,0.96-0.681,1.34-2.101l2.401-8.781h0.06L6.823,7.289
				z M8.963,13.311h-2.92l0.28-1.16h2.44L6.743,3.309l0.26-1.08h4.421l3.001,12.643c0.12,0.561,0.14,0.939,0.7,1.18
				c0.279,0.121,0.5,0.26,0.5,0.621c0,0.539-0.721,0.52-1.101,0.52h-4.98c-0.4,0-0.98-0.04-0.98-0.561c0-0.32,0.12-0.42,0.38-0.56
				c0.521-0.3,0.601-0.44,0.42-1.22L8.963,13.311z"/>
			<path d="M16.982,2.229h2.88v1.16c-1.04,0.74-1.32,2.061-1.5,3.121c-0.06,0.439-0.16,0.959-0.72,0.959
				c-0.601,0-0.66-0.5-0.66-0.58V2.229z M20.763,2.229h4.901v12.723c0,0.74-0.021,0.859,0.68,1.08c0.261,0.08,0.44,0.26,0.44,0.54
				c0,0.58-0.66,0.62-0.74,0.62h-5.661c-0.08,0-0.74-0.04-0.74-0.62c0-0.28,0.18-0.46,0.44-0.54c0.7-0.221,0.68-0.34,0.68-1.08
				V2.229z M29.444,6.889c0,0.08-0.06,0.58-0.66,0.58c-0.56,0-0.66-0.52-0.72-0.959c-0.18-1.061-0.46-2.381-1.5-3.121v-1.16h2.88
				V6.889z"/>
			<path d="M31.422,2.229h2.88v1.16c-1.04,0.74-1.32,2.061-1.5,3.121c-0.06,0.439-0.16,0.959-0.72,0.959
				c-0.601,0-0.66-0.5-0.66-0.58V2.229z M35.202,2.229h4.901v12.723c0,0.74-0.021,0.859,0.68,1.08c0.261,0.08,0.44,0.26,0.44,0.54
				c0,0.58-0.66,0.62-0.74,0.62h-5.661c-0.08,0-0.74-0.04-0.74-0.62c0-0.28,0.18-0.46,0.44-0.54c0.7-0.221,0.68-0.34,0.68-1.08
				V2.229z M43.884,6.889c0,0.08-0.06,0.58-0.66,0.58c-0.56,0-0.66-0.52-0.72-0.959c-0.18-1.061-0.46-2.381-1.5-3.121v-1.16h2.88
				V6.889z"/>
			<path d="M46.542,2.229h5.281v14.963h-5.281c-0.08,0-0.74-0.04-0.74-0.62c0-0.28,0.18-0.46,0.44-0.54
				c0.7-0.221,0.68-0.34,0.68-1.08V4.469c0-0.74,0.021-0.86-0.68-1.08c-0.261-0.08-0.44-0.26-0.44-0.541
				C45.802,2.268,46.462,2.229,46.542,2.229z M52.724,2.229h4.461v4.061c0,0.1-0.021,0.48-0.62,0.48c-0.341,0-0.44-0.2-0.541-0.5
				c-0.52-1.621-1.54-2.602-3.3-2.881V2.229z M52.724,8.91c0.84-0.221,1.22-1.001,1.399-1.761c0.101-0.341,0.221-0.66,0.641-0.66
				c0.62,0,0.521,0.72,0.521,0.88v4.321c0,0.159,0.1,0.88-0.521,0.88c-0.42,0-0.54-0.32-0.641-0.66c-0.18-0.76-0.56-1.54-1.399-1.76
				V8.91z M52.724,16.031c1.62-0.2,2.86-1.301,3.4-2.9c0.14-0.301,0.26-0.621,0.62-0.621c0.64,0,0.58,0.601,0.58,0.681v4.001h-4.601
				V16.031z"/>
			<path d="M61.642,5.989h0.04l1.12,2v6.042c0.32,2.5,1.601,1.72,1.601,2.58c0,0.62-0.82,0.58-1.041,0.58h-2.28
				c-0.22,0-1.04,0.04-1.04-0.58c0-0.86,1.28-0.08,1.601-2.58V5.989z M72.063,12.351v4.841h-2.98L61.762,4.568
				c-0.32-0.56-0.421-0.859-1.081-1.08c-0.34-0.119-0.6-0.199-0.6-0.641c0-0.6,0.6-0.6,1.021-0.619h5.141L72.063,12.351z
				 M70.903,5.85c0-2.861-1.641-2.102-1.641-3.021c0-0.561,0.66-0.6,0.86-0.6h2.721c0.2,0,0.86,0.039,0.86,0.6
				c0,0.92-1.641,0.16-1.641,3.021v4.86h-0.04l-1.12-2.021V5.85z"/>
			<path d="M75.962,2.229h2.88v1.16c-1.04,0.74-1.32,2.061-1.5,3.121c-0.06,0.439-0.16,0.959-0.72,0.959
				c-0.601,0-0.66-0.5-0.66-0.58V2.229z M79.742,2.229h4.901v12.723c0,0.74-0.021,0.859,0.68,1.08c0.261,0.08,0.44,0.26,0.44,0.54
				c0,0.58-0.66,0.62-0.74,0.62h-5.661c-0.08,0-0.74-0.04-0.74-0.62c0-0.28,0.18-0.46,0.44-0.54c0.7-0.221,0.68-0.34,0.68-1.08
				V2.229z M88.424,6.889c0,0.08-0.06,0.58-0.66,0.58c-0.56,0-0.66-0.52-0.72-0.959c-0.18-1.061-0.46-2.381-1.5-3.121v-1.16h2.88
				V6.889z"/>
			<path d="M96.522,14.951c0,0.74-0.021,0.859,0.68,1.08c0.26,0.08,0.44,0.26,0.44,0.54c0,0.58-0.66,0.62-0.74,0.62h-5.661
				c-0.08,0-0.74-0.04-0.74-0.62c0-0.28,0.18-0.46,0.439-0.54c0.7-0.221,0.681-0.34,0.681-1.08V4.469c0-0.74,0.02-0.86-0.681-1.08
				c-0.26-0.08-0.439-0.26-0.439-0.541c0-0.58,0.66-0.619,0.74-0.619h5.661c0.08,0,0.74,0.039,0.74,0.619
				c0,0.281-0.181,0.461-0.44,0.541c-0.7,0.22-0.68,0.34-0.68,1.08V14.951z"/>
			<path d="M106.322,3.088c-0.939,0.341-1.02,0.941-1.02,1.441v10.361c0,0.5,0.08,1.101,1.02,1.44v1.161
				c-4.24-0.381-6.221-3.802-6.221-7.782c0-3.981,1.98-7.401,6.221-7.782V3.088z M107.223,16.331c0.94-0.34,1.021-0.94,1.021-1.44
				V4.529c0-0.5-0.08-1.101-1.021-1.441v-1.16c4.241,0.381,6.222,3.801,6.222,7.782c0,3.98-1.98,7.401-6.222,7.782V16.331z"/>
			<path d="M117.302,5.989h0.04l1.12,2v6.042c0.32,2.5,1.601,1.72,1.601,2.58c0,0.62-0.82,0.58-1.041,0.58h-2.28
				c-0.22,0-1.04,0.04-1.04-0.58c0-0.86,1.28-0.08,1.601-2.58V5.989z M127.724,12.351v4.841h-2.98l-7.321-12.623
				c-0.32-0.56-0.421-0.859-1.081-1.08c-0.34-0.119-0.6-0.199-0.6-0.641c0-0.6,0.6-0.6,1.021-0.619h5.141L127.724,12.351z
				 M126.563,5.85c0-2.861-1.641-2.102-1.641-3.021c0-0.561,0.66-0.6,0.86-0.6h2.721c0.2,0,0.86,0.039,0.86,0.6
				c0,0.92-1.641,0.16-1.641,3.021v4.86h-0.04l-1.12-2.021V5.85z"/>
			<path d="M139.541,2.229h2.88v1.16c-1.04,0.74-1.32,2.061-1.5,3.121c-0.06,0.439-0.16,0.959-0.72,0.959
				c-0.601,0-0.66-0.5-0.66-0.58V2.229z M143.321,2.229h4.901v12.723c0,0.74-0.021,0.859,0.68,1.08c0.261,0.08,0.44,0.26,0.44,0.54
				c0,0.58-0.66,0.62-0.74,0.62h-5.661c-0.08,0-0.74-0.04-0.74-0.62c0-0.28,0.18-0.46,0.44-0.54c0.7-0.221,0.68-0.34,0.68-1.08
				V2.229z M152.003,6.889c0,0.08-0.06,0.58-0.66,0.58c-0.56,0-0.66-0.52-0.72-0.959c-0.18-1.061-0.46-2.381-1.5-3.121v-1.16h2.88
				V6.889z"/>
			<path d="M159.842,3.088c-0.939,0.341-1.02,0.941-1.02,1.441v10.361c0,0.5,0.08,1.101,1.02,1.44v1.161
				c-4.24-0.381-6.221-3.802-6.221-7.782c0-3.981,1.98-7.401,6.221-7.782V3.088z M160.742,16.331c0.94-0.34,1.021-0.94,1.021-1.44
				V4.529c0-0.5-0.08-1.101-1.021-1.441v-1.16c4.241,0.381,6.222,3.801,6.222,7.782c0,3.98-1.98,7.401-6.222,7.782V16.331z"/>
		</g>
		<g>
			<g>
				<path fill="#603813" d="M6.231,6.697l-1.881,6.842c-0.32,1.221-0.04,1.561,0.641,1.86c0.319,0.14,0.6,0.26,0.6,0.66
					c0,0.56-0.64,0.54-1.04,0.54H2.25c-0.399,0-1.12-0.02-1.12-0.6c0-0.48,0.34-0.461,0.78-0.681c0.42-0.22,0.96-0.681,1.34-2.101
					l2.401-8.781h0.06L6.231,6.697z M8.371,12.719h-2.92l0.28-1.16h2.44L6.151,2.717l0.26-1.08h4.421l3.001,12.643
					c0.12,0.561,0.14,0.939,0.7,1.18c0.279,0.121,0.5,0.26,0.5,0.621c0,0.539-0.721,0.52-1.101,0.52h-4.98
					c-0.4,0-0.98-0.04-0.98-0.561c0-0.32,0.12-0.42,0.38-0.56c0.521-0.3,0.601-0.44,0.42-1.22L8.371,12.719z"/>
				<path fill="#603813" d="M16.391,1.637h2.88v1.16c-1.04,0.74-1.32,2.061-1.5,3.121c-0.06,0.439-0.16,0.959-0.72,0.959
					c-0.601,0-0.66-0.5-0.66-0.58V1.637z M20.171,1.637h4.901v12.723c0,0.74-0.021,0.859,0.68,1.08c0.261,0.08,0.44,0.26,0.44,0.54
					c0,0.58-0.66,0.62-0.74,0.62h-5.661c-0.08,0-0.74-0.04-0.74-0.62c0-0.28,0.18-0.46,0.44-0.54c0.7-0.221,0.68-0.34,0.68-1.08
					V1.637z M28.853,6.297c0,0.08-0.06,0.58-0.66,0.58c-0.56,0-0.66-0.52-0.72-0.959c-0.18-1.061-0.46-2.381-1.5-3.121v-1.16h2.88
					V6.297z"/>
				<path fill="#603813" d="M30.83,1.637h2.88v1.16c-1.04,0.74-1.32,2.061-1.5,3.121c-0.06,0.439-0.16,0.959-0.72,0.959
					c-0.601,0-0.66-0.5-0.66-0.58V1.637z M34.61,1.637h4.901v12.723c0,0.74-0.021,0.859,0.68,1.08c0.261,0.08,0.44,0.26,0.44,0.54
					c0,0.58-0.66,0.62-0.74,0.62H34.23c-0.08,0-0.74-0.04-0.74-0.62c0-0.28,0.18-0.46,0.44-0.54c0.7-0.221,0.68-0.34,0.68-1.08
					V1.637z M43.292,6.297c0,0.08-0.06,0.58-0.66,0.58c-0.56,0-0.66-0.52-0.72-0.959c-0.18-1.061-0.46-2.381-1.5-3.121v-1.16h2.88
					V6.297z"/>
				<path fill="#603813" d="M45.95,1.637h5.281V16.6H45.95c-0.08,0-0.74-0.04-0.74-0.62c0-0.28,0.18-0.46,0.44-0.54
					c0.7-0.221,0.68-0.34,0.68-1.08V3.877c0-0.74,0.021-0.86-0.68-1.08c-0.261-0.08-0.44-0.26-0.44-0.541
					C45.21,1.676,45.87,1.637,45.95,1.637z M52.132,1.637h4.461v4.061c0,0.1-0.021,0.48-0.62,0.48c-0.341,0-0.44-0.2-0.541-0.5
					c-0.52-1.621-1.54-2.602-3.3-2.881V1.637z M52.132,8.318c0.84-0.221,1.22-1.001,1.399-1.761c0.101-0.341,0.221-0.66,0.641-0.66
					c0.62,0,0.521,0.72,0.521,0.88v4.321c0,0.159,0.1,0.88-0.521,0.88c-0.42,0-0.54-0.32-0.641-0.66
					c-0.18-0.76-0.56-1.54-1.399-1.76V8.318z M52.132,15.439c1.62-0.2,2.86-1.301,3.4-2.9c0.14-0.301,0.26-0.621,0.62-0.621
					c0.64,0,0.58,0.601,0.58,0.681V16.6h-4.601V15.439z"/>
				<path fill="#603813" d="M61.05,5.397h0.04l1.12,2v6.042c0.32,2.5,1.601,1.72,1.601,2.58c0,0.62-0.82,0.58-1.041,0.58h-2.28
					c-0.22,0-1.04,0.04-1.04-0.58c0-0.86,1.28-0.08,1.601-2.58V5.397z M71.472,11.759V16.6h-2.98L61.17,3.977
					c-0.32-0.56-0.421-0.859-1.081-1.08c-0.34-0.119-0.6-0.199-0.6-0.641c0-0.6,0.6-0.6,1.021-0.619h5.141L71.472,11.759z
					 M70.312,5.258c0-2.861-1.641-2.102-1.641-3.021c0-0.561,0.66-0.6,0.86-0.6h2.721c0.2,0,0.86,0.039,0.86,0.6
					c0,0.92-1.641,0.16-1.641,3.021v4.86h-0.04l-1.12-2.021V5.258z"/>
				<path fill="#603813" d="M75.37,1.637h2.88v1.16c-1.04,0.74-1.32,2.061-1.5,3.121c-0.06,0.439-0.16,0.959-0.72,0.959
					c-0.601,0-0.66-0.5-0.66-0.58V1.637z M79.15,1.637h4.901v12.723c0,0.74-0.021,0.859,0.68,1.08c0.261,0.08,0.44,0.26,0.44,0.54
					c0,0.58-0.66,0.62-0.74,0.62h-5.661c-0.08,0-0.74-0.04-0.74-0.62c0-0.28,0.18-0.46,0.44-0.54c0.7-0.221,0.68-0.34,0.68-1.08
					V1.637z M87.832,6.297c0,0.08-0.06,0.58-0.66,0.58c-0.56,0-0.66-0.52-0.72-0.959c-0.18-1.061-0.46-2.381-1.5-3.121v-1.16h2.88
					V6.297z"/>
				<path fill="#603813" d="M95.931,14.359c0,0.74-0.021,0.859,0.68,1.08c0.26,0.08,0.44,0.26,0.44,0.54c0,0.58-0.66,0.62-0.74,0.62
					h-5.661c-0.08,0-0.74-0.04-0.74-0.62c0-0.28,0.18-0.46,0.439-0.54c0.7-0.221,0.681-0.34,0.681-1.08V3.877
					c0-0.74,0.02-0.86-0.681-1.08c-0.26-0.08-0.439-0.26-0.439-0.541c0-0.58,0.66-0.619,0.74-0.619h5.661
					c0.08,0,0.74,0.039,0.74,0.619c0,0.281-0.181,0.461-0.44,0.541c-0.7,0.22-0.68,0.34-0.68,1.08V14.359z"/>
				<path fill="#603813" d="M105.73,2.496c-0.939,0.341-1.02,0.941-1.02,1.441v10.361c0,0.5,0.08,1.101,1.02,1.44V16.9
					c-4.24-0.381-6.221-3.802-6.221-7.782c0-3.981,1.98-7.401,6.221-7.782V2.496z M106.631,15.739c0.94-0.34,1.021-0.94,1.021-1.44
					V3.938c0-0.5-0.08-1.101-1.021-1.441v-1.16c4.241,0.381,6.222,3.801,6.222,7.782c0,3.98-1.98,7.401-6.222,7.782V15.739z"/>
				<path fill="#603813" d="M116.71,5.397h0.04l1.12,2v6.042c0.32,2.5,1.601,1.72,1.601,2.58c0,0.62-0.82,0.58-1.041,0.58h-2.28
					c-0.22,0-1.04,0.04-1.04-0.58c0-0.86,1.28-0.08,1.601-2.58V5.397z M127.132,11.759V16.6h-2.98L116.83,3.977
					c-0.32-0.56-0.421-0.859-1.081-1.08c-0.34-0.119-0.6-0.199-0.6-0.641c0-0.6,0.6-0.6,1.021-0.619h5.141L127.132,11.759z
					 M125.972,5.258c0-2.861-1.641-2.102-1.641-3.021c0-0.561,0.66-0.6,0.86-0.6h2.721c0.2,0,0.86,0.039,0.86,0.6
					c0,0.92-1.641,0.16-1.641,3.021v4.86h-0.04l-1.12-2.021V5.258z"/>
				<path fill="#603813" d="M138.949,1.637h2.88v1.16c-1.04,0.74-1.32,2.061-1.5,3.121c-0.06,0.439-0.16,0.959-0.72,0.959
					c-0.601,0-0.66-0.5-0.66-0.58V1.637z M142.729,1.637h4.901v12.723c0,0.74-0.021,0.859,0.68,1.08c0.261,0.08,0.44,0.26,0.44,0.54
					c0,0.58-0.66,0.62-0.74,0.62h-5.661c-0.08,0-0.74-0.04-0.74-0.62c0-0.28,0.18-0.46,0.44-0.54c0.7-0.221,0.68-0.34,0.68-1.08
					V1.637z M151.411,6.297c0,0.08-0.06,0.58-0.66,0.58c-0.56,0-0.66-0.52-0.72-0.959c-0.18-1.061-0.46-2.381-1.5-3.121v-1.16h2.88
					V6.297z"/>
				<path fill="#603813" d="M159.25,2.496c-0.939,0.341-1.02,0.941-1.02,1.441v10.361c0,0.5,0.08,1.101,1.02,1.44V16.9
					c-4.24-0.381-6.221-3.802-6.221-7.782c0-3.981,1.98-7.401,6.221-7.782V2.496z M160.15,15.739c0.94-0.34,1.021-0.94,1.021-1.44
					V3.938c0-0.5-0.08-1.101-1.021-1.441v-1.16c4.241,0.381,6.222,3.801,6.222,7.782c0,3.98-1.98,7.401-6.222,7.782V15.739z"/>
			</g>
		</g>
	</g>
</g>
<g id="Layer_3">
</g>
</svg>
