<?xml version="1.0" encoding="utf-8"?>
<!-- Generator: Adobe Illustrator 16.2.0, SVG Export Plug-In . SVG Version: 6.00 Build 0)  -->
<!DOCTYPE svg PUBLIC "-//W3C//DTD SVG 1.1//EN" "http://www.w3.org/Graphics/SVG/1.1/DTD/svg11.dtd">
<svg version="1.1" xmlns="http://www.w3.org/2000/svg" xmlns:xlink="http://www.w3.org/1999/xlink" x="0px" y="0px"
	 width="111.031px" height="46.167px" viewBox="0 0 111.031 46.167" enable-background="new 0 0 111.031 46.167"
	 xml:space="preserve">
<g id="Layer_1">
</g>
<g id="Layer_2">
</g>
<g id="Layer_3">
	<g>
		<defs>
			<rect id="SVGID_74_" x="-15.228" y="-20.084" width="126.25" height="68.666"/>
		</defs>
		<clipPath id="SVGID_1_">
			<use xlink:href="#SVGID_74_"  overflow="visible"/>
		</clipPath>
		<g clip-path="url(#SVGID_1_)">
			
				<linearGradient id="SVGID_2_" gradientUnits="userSpaceOnUse" x1="2464.2715" y1="-199.1392" x2="2492.0801" y2="-199.1392" gradientTransform="matrix(-0.9909 0.1348 0.1348 0.9909 2536.356 -123.2373)">
				<stop  offset="0" style="stop-color:#A07335"/>
				<stop  offset="0.4775" style="stop-color:#9F7736"/>
				<stop  offset="1" style="stop-color:#825023"/>
			</linearGradient>
			<path fill="url(#SVGID_2_)" d="M40.005,14.113c-0.044-1.998,2.353-4.038,11.165-3.028c8.813,1.011,11.654,0.618,13.862-0.284
				c2.05-0.84,2.174-2.978,2.174-2.978l0.537,7.616c-15.649,2.931-26.611,3.238-27.619-0.53
				C40.124,14.909,40.009,14.307,40.005,14.113z"/>
			<path fill="#431300" d="M176.145,40.353l7.261-27.201c0,0,1.746-9.413-20.869-13.318c-18.771-3.242-36.144,0.021-66.395,8.291
				C64.595,16.75,40.78,20.273,40.04,13.958c0,0,3.336,17.913,4.928,25.272c1.737,8.022,19.144,4.761,42.385-0.576
				c15.956-3.665,53.035-9.506,68.303-7.485C180.62,34.472,176.145,40.353,176.145,40.353z"/>
			
				<linearGradient id="SVGID_3_" gradientUnits="userSpaceOnUse" x1="10.9575" y1="108.9292" x2="129.1848" y2="108.9292" gradientTransform="matrix(0.9938 0.1113 -0.1113 0.9938 53.7331 -94.1793)">
				<stop  offset="0.0056" style="stop-color:#A07335"/>
				<stop  offset="0.2584" style="stop-color:#D0A14A"/>
				<stop  offset="0.5169" style="stop-color:#DBA948"/>
				<stop  offset="0.7865" style="stop-color:#D0A14A"/>
				<stop  offset="1" style="stop-color:#A07335"/>
			</linearGradient>
			<path fill="url(#SVGID_3_)" d="M176.239,39.289c-0.188,0.71-0.299,1.122-0.301,1.132C176.047,40.01,176.19,39.68,176.239,39.289z
				 M167.134,4.457c0.118-0.204,0.195-0.422,0.228-0.653c-0.29,0.222-0.457,0.673-0.603,1.03l0.252-0.108
				C167.052,4.635,167.094,4.546,167.134,4.457z M165.517,7.907c-0.042,0.064-0.085,0.129-0.133,0.188
				c-0.035,0.153-0.078,0.307-0.148,0.464C165.341,8.348,165.427,8.126,165.517,7.907z M183.01,11.75
				c-0.687,0.743-0.687,2.329-0.968,3.285c-0.287,0.971-0.603,1.93-0.852,2.918c-0.249,0.999-0.548,1.98-0.75,2.978
				c-0.238-0.41,0.087-1.422,0.146-1.948c0.084-0.744,0.257-1.455,0.341-2.196c0.067-0.605,0.193-1.167,0.311-1.759
				c0.103-0.512,0.332-0.995,0.434-1.499c0.329-1.634,1.066-3.768-0.578-4.827c-0.205-0.131-0.403-0.254-0.574-0.436
				c-0.118-0.125-0.257-0.282-0.331-0.442c-0.044-0.101-0.037-0.251-0.081-0.335c-0.171-0.326-0.191-0.082-0.432-0.152
				c-0.224-0.066-0.335-0.369-0.33-0.601c-0.028,0.062-0.103,0.118-0.135,0.179c-0.169-0.264-0.165-0.704-0.357-0.89
				c-0.035,0.296-0.244,0.646-0.345,0.933c-0.151,0.431-0.381,0.81-0.528,1.246c-0.221,0.648-0.567,1.235-0.802,1.874
				c-0.354,0.964-0.663,1.968-0.988,2.943c-0.428,1.274-0.841,2.541-1.329,3.797c-0.202,0.52-0.414,1.274-0.794,1.69
				c-0.023-0.36,0.181-0.691,0.318-1.01c0.264-0.605,0.497-1.228,0.722-1.85c0.563-1.562,1.195-3.101,1.682-4.692
				c0.268-0.873,0.423-1.772,0.683-2.646c0.147-0.502,0.324-0.986,0.438-1.499c0.06-0.27,0.246-0.631,0.166-0.911
				c-0.086-0.299-0.452-0.431-0.699-0.58c-0.596-0.364-1.209-0.698-1.832-1.009c-0.865-0.432-1.725-0.851-2.675-1.018
				c-0.881-0.155-1.711-0.635-2.552-0.945c-0.151-0.057-0.221-0.154-0.344-0.224c-0.14-0.075-0.291-0.069-0.445-0.125
				c-0.118-0.04-0.123-0.152-0.297-0.178c-0.128-0.019-0.254,0.035-0.383,0.059c-0.74,0.137-0.717,0.945-1.002,1.546
				c-0.178,0.37-0.353,0.764-0.517,1.162l0.029-0.013c-0.078,0.205-0.153,0.411-0.226,0.617c-0.099,0.277-0.203,0.551-0.311,0.824
				c-0.017,0.06-0.039,0.121-0.056,0.181c-0.256,0.955-0.531,1.931-0.847,2.868c-0.23,0.689-0.479,1.375-0.723,2.056
				c-0.158,0.442-0.386,0.988-0.48,1.443c0.138-1.095,0.347-2.193,0.632-3.264c-0.123,0.29-0.243,0.602-0.392,0.836
				c-0.245-0.242,0.02-0.593,0.057-0.87c0.032-0.24-0.058-0.506,0.018-0.738c0.065-0.199,0.181-0.224,0.305-0.365
				c0.017-0.021,0.03-0.048,0.047-0.068c0.058-0.248,0.092-0.496,0.153-0.759c0.148-0.641,0.475-1.288,0.679-1.914
				c0.229-0.71,0.487-1.41,0.729-2.114c0.217-0.628,0.544-1.316,0.049-1.816c-0.491-0.495-1.521-0.537-2.16-0.672
				c-0.873-0.185-1.751-0.352-2.63-0.505c-3.191-0.559-6.415-0.94-9.651-1.131c-0.679-0.04-1.358-0.044-2.02-0.173
				c-0.184-0.036-2.06-0.275-2.091-0.144c-0.124,0.522-0.147,1.053-0.275,1.578c-0.228,0.946-0.614,1.9-0.906,2.831
				c-0.259,0.822-0.453,1.675-0.809,2.46c0.172-1.095,0.33-2.191,0.543-3.281c0.168-0.866,0.316-1.738,0.518-2.598
				c0.085-0.361,0.148-0.647,0.081-1.011c-0.32,0.028-0.505,0.663-0.614,0.932c-0.219,0.536-0.326,1.585-0.825,1.918
				c-0.148-0.238,0.014-0.802,0.049-1.088c0.064-0.511,0.259-1.025,0.237-1.543c-0.276,0.293-0.309,0.793-0.623,1.077
				c-0.021-0.343,0.208-0.657,0.16-0.994c-0.208,0.312-0.425,0.804-0.57,1.198c-0.111,0.304-0.248,1.058-0.498,1.226
				c-0.089-0.865,0.478-1.641,0.479-2.49c-0.165-0.037-0.395,0.029-0.582,0.017c-0.007,0.345-0.434,0.853-0.541,1.199
				c-0.194,0.618-0.327,1.253-0.491,1.879c-0.061,0.229-0.167,1.073-0.413,1.145c-0.045-0.793,0.146-1.769,0.323-2.538
				c0.119-0.523,0.668-1.673-0.167-1.648c-1.28,0.035-2.565,0.142-3.842,0.25c-0.588,0.05-1.185,0.084-1.76,0.205
				c-0.274,0.059-0.204,0.041-0.485-0.074c-0.232-0.094-0.478-0.061-0.722-0.059c-0.186,0.001-0.354,0.096-0.538,0.105
				c-0.133,0.007-0.385-0.12-0.506-0.044c-0.211,0.132-0.378,0.874-0.461,1.124c-0.22,0.661-0.377,1.349-0.583,2.016
				c-0.236,0.767-0.374,1.685-0.781,2.377c-0.018-0.815,0.179-1.703,0.27-2.515c0.068-0.594,0.248-1.175,0.225-1.777
				c-0.009-0.252-0.036-0.621-0.294-0.725c-0.288-0.112-0.913,0.115-1.215,0.159c-0.455,0.064-0.869,0.145-1.305,0.28
				c-0.408,0.126-0.846,0.091-1.261,0.179c-0.743,0.159-1.499,0.208-2.251,0.283c-0.615,0.061-1.19-0.051-1.767,0.229
				c-0.434,0.211-0.868,0.298-1.334,0.389c-0.989,0.196-1.978,0.397-2.965,0.606c-3.973,0.842-7.926,1.79-11.865,2.793
				c-4.53,1.153-9.042,2.382-13.547,3.639c-2.45,0.684-4.905,1.349-7.365,1.989c-1.271,0.331-2.543,0.656-3.815,0.976
				c-1.063,0.266-2.115,0.726-3.187,0.916c-0.41,0.073-0.831,0.165-1.235,0.239c-0.223,0.042-0.365,0.053-0.604,0.032
				c-0.247-0.021-0.444,0.055-0.688,0.064c-0.248,0.011-0.38-0.054-0.594,0.107c-0.146,0.11-0.179,0.37-0.388,0.133
				c-0.084,0.091-0.278,0.169-0.337,0.267c-0.105,0.178,0.003,0.384,0.004,0.563c0.001,0.818,0.068,1.815-0.082,2.606
				c-0.377-0.857-0.312-1.795-0.425-2.706c0.098,1.221-0.235,2.535-0.356,3.755c0.088-0.591-0.076-1.271-0.146-1.853
				c-0.084-0.702-0.109-1.488-0.313-2.164c-0.098,0.995-0.171,1.975-0.323,2.954c-0.071-0.276-0.097-0.572-0.13-0.856
				c-0.053-0.456,0.062-1.143-0.114-1.559c-0.16,0.378-0.029,0.967-0.012,1.36c0.018,0.378-0.012,0.723-0.051,1.097
				c0.054-0.435-0.205-2.734-0.557-2.62c-0.27,0.09-0.162,0.74-0.164,0.965c-0.01,0.73,0.174,1.493,0.182,2.241
				c0.006,0.604-0.018,1.224,0.002,1.836c-0.153-1.01-0.395-2.004-0.664-2.983c-0.165-0.596-0.509-2.085-1.363-1.882
				c-0.165,0.04-0.289,0.197-0.448,0.264c-0.258,0.106-0.585,0.125-0.857,0.183c-0.582,0.12-1.163,0.239-1.747,0.357
				c-2.378,0.478-4.762,0.919-7.152,1.315c-3.347,0.555-6.709,1.022-10.084,1.298c-1.381,0.112-2.764,0.191-4.146,0.212
				c-0.607,0.009-1.215,0.007-1.821-0.01c-0.292-0.01-0.727-0.17-0.896,0.114c-0.124,0.21-0.066,0.601-0.058,0.835
				c0.017,0.558,0.023,1.12,0.111,1.684c0.067,0.437,0.096,0.866,0.139,1.304c0.047,0.496,0.183,0.971,0.231,1.463
				c0.12,1.199,0.507,2.304,0.414,3.539c-0.232-0.575-0.168-1.374-0.25-2c-0.084-0.648-0.177-1.299-0.268-1.948
				c-0.14-0.999-0.312-1.993-0.486-2.984c-0.095-0.542-0.149-1.148-0.332-1.666c-0.303-0.86-0.965-0.028-1.488-0.479
				c-0.026,0.065-0.093,0.109-0.111,0.196c-0.021-0.067-0.078-0.137-0.096-0.206c-0.052,0.193-0.048,0.408-0.098,0.603
				c-0.231-0.153-0.095-0.846-0.165-1.114c-0.036,0.487-0.12,0.971-0.155,1.458c-0.103-0.239,0.036-1.271-0.311-1.198
				c-0.091,0.414-0.039,0.91-0.011,1.345c0.035,0.528,0.105,1.062,0.18,1.585c0.062,0.434,0.313,0.97,0.24,1.405
				c0.024-0.643-0.303-1.419-0.432-2.048c-0.103-0.504-0.151-1.025-0.221-1.536c-0.026-0.187-0.007-0.591-0.104-0.749
				c-0.14-0.226-0.679-0.263-0.93-0.352c-1.109-0.393-2.134-1.031-2.387-2.316c0.002,0.007,3.323,16.91,4.845,24.21
				c0.217,1.039,0.949,1.795,1.795,2.3c0.971,0.58,1.94,0.739,3.052,0.71c0.214-0.671-0.126-1.493,0.044-2.21
				c0.325-0.049,0.643,1.079,0.742,1.351c0.152,0.42,0.291,0.882,0.453,1.268c0.164,0.392,0.191,0.367,0.564,0.362
				c0.263-0.005,0.483-0.022,0.742-0.006c0.084-0.211-0.031-0.389,0.002-0.601c0,0.132,0.08,0.237,0.172,0.331
				c0.181,0.188,0.212,0.108,0.455,0.128c0.07,0.006,0.128,0.095,0.219,0.096c0.09,0,0.139-0.13,0.233-0.127
				c0.188,0.007,0.32,0.153,0.506,0.203c0.5,0.134,1.031-0.155,1.541-0.142c0.394,0.01,0.765,0.117,1.153,0.146
				c0.908,0.073,1.87-0.055,2.781-0.116c1.984-0.137,3.966-0.35,5.942-0.612c4.224-0.561,8.427-1.338,12.602-2.248
				c3.384-0.738,6.75-1.565,10.092-2.497c1.572-0.439,3.156-0.83,4.743-1.196c0.826-0.19,1.71-0.297,2.512-0.587
				c0.633-0.229,1.205-0.528,1.867-0.68c0.379-0.087,0.777-0.007,1.086-0.354c0.237-0.266,0.402-1.131,0.926-0.865
				c0.345,0.174,0.723,0.817,1.201,0.672c0.241-0.073,0.37-0.296,0.638-0.319c0.21-0.017,0.438,0.06,0.648,0.058
				c0.745-0.009,1.49-0.188,2.235-0.271c0.543-0.063,1.063-0.076,1.603-0.223c0.473-0.128,0.946-0.094,1.421-0.153
				c0.508-0.065,1.016-0.165,1.522-0.245c1.03-0.163,2.062-0.321,3.094-0.474c1.391-0.206,2.892-0.251,4.256-0.601
				c0.408-0.104,0.52-0.378,0.734-0.721c0.224-0.355,0.392-0.384,0.59,0.033c0.051-0.049,0.178-0.109,0.23-0.179
				c-0.05,0.127-0.05,0.261,0.047,0.348c0.145-0.107,0.358-0.351,0.53-0.301c0.008,0.187,0.075,0.479,0.236,0.567
				c0.041-0.15,0.041-0.308,0.083-0.456c0.001,0.002,0.049,0.1,0.056,0.147c0.177,0.084,0.227-0.146,0.38-0.174
				c0.168-0.03,0.23,0.201,0.439-0.013c0.127,0.245,0.729,0.071,0.981,0.063c0.42-0.016,0.888-0.053,1.302-0.157
				c0.343-0.087,0.66-0.202,0.996-0.208c0.417-0.006,0.799,0.019,1.211-0.044c0.37-0.056,0.757,0.004,1.131-0.031
				c0.42-0.04,0.788-0.134,1.204-0.148c0.338-0.014,0.638,0.015,0.991,0.017c0.556,0.004,1.11-0.168,1.661-0.221
				c0.684-0.064,1.366-0.126,2.05-0.186c3.983-0.346,7.975-0.607,11.97-0.727c3.346-0.1,6.703-0.11,10.04,0.128
				c0.979,0.07,1.955,0.162,2.927,0.293c4.27,0.575,8.564,1.32,12.668,2.688c1.375,0.459,2.733,0.992,4.016,1.684
				c0.892,0.479,2.4,1.219,2.832,2.218c0.393-0.461,0.546-1.269,0.702-1.872c0.202-0.782,0.463-1.54,0.703-2.313
				c0.105-0.333,0.235-0.698,0.354-1.069c-0.205,0.733-0.444,1.461-0.568,2.207c-0.19,1.149-0.429,2.262-0.579,3.425
				c0.795-1.942,1.205-4.037,1.928-6.038c-0.047,0.252-0.069,0.52-0.105,0.715c-0.117,0.633-0.337,1.299-0.526,1.914
				c-0.275,0.896-0.345,1.907-0.55,2.832c-0.098,0.442-0.341,0.868-0.374,1.324c-0.029,0.407,0.168,0.744,0.208,1.148
				c0.018,0.175,0.01,0.331-0.01,0.479c1.359-5.1,6.857-25.729,6.857-25.729C183.183,13.083,183.189,12.201,183.01,11.75z
				 M76.187,21.167c0.041,0.177,0.082,0.353,0.116,0.526C76.234,21.542,76.206,21.356,76.187,21.167z M166.212,6.453
				c0.002-0.004,0.003-0.008,0.003-0.012c0.049-0.188,0.091-0.404,0.137-0.621c-0.129,0.308-0.265,0.615-0.385,0.928
				c-0.147,0.384-0.293,0.774-0.45,1.159c0.257-0.397,0.44-0.896,0.628-1.309C166.168,6.549,166.19,6.501,166.212,6.453z
				 M165.879,7.602c-0.206,0.553-0.375,1.122-0.529,1.698c0.046-0.108,0.092-0.213,0.139-0.311c0.479-0.98,0.937-1.96,1.335-2.974
				c0.138-0.475,0.312-0.956,0.507-1.429l-0.319,0.138c-0.261,0.579-0.534,1.151-0.799,1.728
				C166.117,6.827,166.014,7.24,165.879,7.602z M166.759,4.833l-0.127,0.055c-0.132,0.26-0.211,0.6-0.28,0.932
				c0.118-0.282,0.229-0.566,0.351-0.846C166.721,4.931,166.74,4.88,166.759,4.833z"/>
			<path fill="#431300" d="M1.495,33.94c0,0,9.664,7.002,22.096,5.287c6.883-0.946,13.66-3.726,19.969-5.517
				c-1.368-6.786-2.926-16.053-3.339-18.148c0.035,0.187,0.081,0.418,0.137,0.697c-0.205-0.516-0.274-1.076-0.3-1.712
				c-0.087-1.996,2.353-4.039,11.166-3.029c8.813,1.011,11.813,0.532,13.738-0.195c2.261-0.854,2.298-3.066,2.298-3.066
				s0.978-5.645-5.917-6.26c-8.427-0.752-14.202,1.045-32.016,6.585C13.936,13.369,4.108,11.946,1.93,11.424
				c-0.351-0.083,0.706,0.749,0.706,0.749s5.239,5.798,10.218,9.063c4.979,3.265,6.742,3.551,6.742,3.551s-2.373,2.57-7.091,4.598
				c-4.572,1.967-9.53,3.181-10.92,3.568C1.333,33.025,1.495,33.94,1.495,33.94z M40.176,15.345l0.001-0.002
				c0.01,0.05,0.021,0.108,0.034,0.172C40.198,15.45,40.187,15.397,40.176,15.345z"/>
			
				<linearGradient id="SVGID_4_" gradientUnits="userSpaceOnUse" x1="2464.207" y1="-194.6787" x2="2532.8955" y2="-194.6787" gradientTransform="matrix(-0.9909 0.1348 0.1348 0.9909 2536.356 -123.2373)">
				<stop  offset="0.0674" style="stop-color:#A37536"/>
				<stop  offset="0.4157" style="stop-color:#D0A14A"/>
				<stop  offset="0.6348" style="stop-color:#D0A14A"/>
				<stop  offset="1" style="stop-color:#A07335"/>
			</linearGradient>
			<path fill="url(#SVGID_4_)" d="M1.444,33.505c0,0,9.177,5.308,21.607,3.595c3.654-0.504,7.497-1.126,10.992-2.399
				c0.387-0.142,0.842-0.39,1.205-0.484c0.415-0.108,0.831,0.067,1.154-0.31c0.041,0.396,0.353,0.615,0.664,0.655
				c-0.258-0.998-0.308-2.411-0.297-3.475c0.655,0.733,0.053,2.325,1.336,2.494c0.752,0.098,2.224-0.352,2.399-1.242
				c0.192-0.975-0.178-2.322-0.343-3.28c-0.194-1.124-0.442-2.236-0.688-3.351c-0.31-1.402-0.862-2.688-1.128-4.104
				c-0.142-0.755-0.22-1.674-0.5-2.381c0.756,1.855,0.979,3.99,1.702,5.875c0.491,1.272,0.968,2.645,1.279,3.986
				c0.273,1.177,0.606,2.417,0.916,3.514c-0.178-0.082-0.217-0.178-0.316-0.325c0.027-0.032,0.058-0.035,0.087-0.008
				c-0.013-0.086-0.004-0.252,0.022-0.336c0.308,0.162,0.672,0.861,0.867,0.086c-0.05,0.198,0.058,0.466,0.157,0.617
				c0.187-0.393,0.62-0.411,0.981-0.514c-1.367-6.786-2.963-14.895-3.376-16.989c0.036,0.187,0.081,0.416,0.136,0.695
				c-0.205-0.517-0.273-1.076-0.299-1.712c-0.085-1.995,2.353-4.038,11.165-3.028c8.813,1.011,11.813,0.532,13.739-0.196
				c2.26-0.854,2.297-3.065,2.297-3.065c0.014-0.826-0.098-1.464-0.646-2.108c-0.636-0.748-1.564-1.173-2.458-1.459
				c-0.751-0.241-1.528-0.383-2.308-0.479c-0.381-0.048-0.693,0.035-1.014,0.055c-0.388,0.025-0.57-0.086-0.968-0.169
				c-0.42-0.088-0.692,0.108-1.059,0.156c-0.709,0.093-1.472,0.002-2.075-0.18c-0.036,0.126-0.155,0.276-0.18,0.375
				c-0.023-0.18-0.109-0.362-0.127-0.538c-0.063,0.896,0.063,1.96-0.191,2.807c-0.268-0.443-0.197-1.134-0.322-1.641
				c-0.052,0.062-0.115,0.087-0.192,0.079c-0.189-0.354-0.19-0.805-0.298-1.197c-0.257,0.208-0.17,0.531-0.265,0.825
				c0.003-0.007-0.291-0.734-0.327-0.766c-0.188-0.163-0.783-0.102-1.021-0.114c-1.486-0.083-2.986,0.31-4.459,0.544
				c-6.673,1.055-13.22,3.132-19.69,5.145c-17.818,5.542-26.97,2.599-27.022,2.582c0.609,0.197,1.039,1.107,1.661,1.375
				c0.317,0.138,0.619,0.081,0.868,0.36c0.182,0.204,0.115,0.464,0.343,0.666c0.81,0.716,2.667,0.295,3.649,0.336
				c-0.739,0.51-2.453,0.126-2.915,0.877c0.462,0.045,0.911,0.269,1.368,0.367c-0.049,0.045-0.097,0.165-0.141,0.221
				c0.42,0.462,1.12,0.176,1.615,0.525c-0.318,0.142-0.646,0.075-0.97,0.078c0.186,0.295,1.006,0.201,1.38,0.301
				c-0.091,0.324-0.301,0.509-0.047,0.85c0.171,0.23,0.667,0.381,0.915,0.558c1.114,0.79,2.161,1.61,3.309,2.362
				c4.963,3.254,6.968,4.128,6.981,4.134c-0.143-0.063-1.573,1.235-1.727,1.347c-0.646,0.466-1.315,0.984-2.021,1.341
				c-0.579,0.293-1.159,0.444-1.706,0.832c0.315,0.072,0.932-0.026,1.057,0.398c-0.226-0.115-0.928,0.103-1.281,0.103
				c0.205,0.244,0.507,0.287,0.71,0.516c-0.274-0.081-0.418,0.036-0.692,0.067c-0.396,0.045-0.965-0.034-1.341,0.11
				c-0.668,0.257-0.348,0.486-0.061,0.924c-0.514,0.025-1.038-0.138-1.551-0.116c0.067,0.271,0.257,0.316,0.467,0.492
				c-0.408-0.059-0.967-0.224-1.381-0.171c-0.296,0.039-0.597,0.289-0.889,0.367c-0.782,0.209-1.481,0.024-2.171,0.409
				c-0.615,0.345-1.313,0.612-1.963,0.852C4.582,32.758,2.958,33.101,1.444,33.505z M40.124,14.91L40.124,14.91
				c0.01,0.05,0.021,0.107,0.034,0.171C40.146,15.016,40.134,14.962,40.124,14.91z"/>
		</g>
	</g>
</g>
</svg>
