<?xml version="1.0" encoding="utf-8"?>
<!-- Generator: Adobe Illustrator 16.2.0, SVG Export Plug-In . SVG Version: 6.00 Build 0)  -->
<!DOCTYPE svg PUBLIC "-//W3C//DTD SVG 1.1//EN" "http://www.w3.org/Graphics/SVG/1.1/DTD/svg11.dtd">
<svg version="1.1" xmlns="http://www.w3.org/2000/svg" xmlns:xlink="http://www.w3.org/1999/xlink" x="0px" y="0px"
	 width="117.25px" height="57.25px" viewBox="0 0 117.25 57.25" enable-background="new 0 0 117.25 57.25" xml:space="preserve">
<g id="Layer_1">
</g>
<g id="Layer_2">
</g>
<g id="Layer_3">
	<g>
		<defs>
			<rect id="SVGID_59_" x="0.083" y="-5.417" width="126.25" height="68.667"/>
		</defs>
		<clipPath id="SVGID_1_">
			<use xlink:href="#SVGID_59_"  overflow="visible"/>
		</clipPath>
		<g clip-path="url(#SVGID_1_)">
			<path fill="#431300" d="M30.752,48.022l-0.023-1.446c0.33-2.107,2.452-5.714,13.282-5.189
				c15.167,0.735,19.822,4.464,21.154,0.161l3.62-24.754c6.029-1.199,12.134-1.692,20.794-1.352
				c13.805,0.542,23.506,11.523,25.286,13.809c0.234,0.3-1.047,0.129-1.047,0.129c-3.536-1.087-3.598-1.196-11.039-1.35
				c-7.128-0.147-10.572,2.644-10.572,2.644s0.84,0.314,6.651,6.468c5.812,6.156,7.192,18.741,7.192,18.741
				s-3.231-3.955-6.496-6.165c-3.264-2.211-9.186-3.249-20.406-2.299c-11.221,0.949-26.018,7.039-40.005,7.271
				C30.341,54.837,30.752,48.022,30.752,48.022z"/>
			
				<linearGradient id="SVGID_2_" gradientUnits="userSpaceOnUse" x1="2269.3262" y1="-238.5342" x2="2354.708" y2="-238.5342" gradientTransform="matrix(-0.9697 0.2443 0.2443 0.9697 2372.8147 -293.9368)">
				<stop  offset="0.0674" style="stop-color:#A37536"/>
				<stop  offset="0.4157" style="stop-color:#D0A14A"/>
				<stop  offset="0.6348" style="stop-color:#D0A14A"/>
				<stop  offset="1" style="stop-color:#A07335"/>
			</linearGradient>
			<path fill="url(#SVGID_2_)" d="M30.652,47.597c0-0.005-0.023-1.447-0.023-1.447c0.329-2.107,2.452-5.713,13.28-5.189
				c15.168,0.736,19.823,4.465,21.155,0.161c0,0,3.517-23.451,3.518-23.458c0.04-0.262,3.825-0.706,4.231-0.772
				c1.328-0.216,2.699-0.53,4.037-0.297c0.384,0.067,0.215-0.229,0.504,0.233c0.181,0.29,0.117,0.782,0.128,1.106
				c0.383-0.074,0.692-0.488,1.012-0.62c-0.189,0.703-0.468,1.374-0.549,2.103c0.633-0.527,1.22-1.703,1.467-2.543
				c-0.166,0.758-0.313,1.463-0.593,2.187c0.673-0.762,1.005-1.892,1.72-2.583c-0.109,0.621-0.325,1.723-0.593,2.256
				c0.07-0.293,0.26-0.48,0.431-0.759c0.309-0.505,0.475-1.198,0.798-1.666c0.321-0.462,0.227-0.609,0.871-0.456
				c0.314,0.075,0.595,0.256,0.958,0.294c0.308,0.033,0.6-0.017,0.924-0.004c0.305,0.012,0.619-0.03,0.923,0.001
				c0.292,0.029,0.669,0.202,0.92,0.175c0.414-0.044,0.621-0.518,0.962-0.632c0.477-0.158,0.999,0.215,1.472,0.24
				c0.425,0.023,0.903-0.058,1.346-0.041c15.618,0.613,24.398,13.167,24.401,13.17c-0.358-0.512-2.047-0.767-2.571-0.92
				c-0.958-0.28-2.136-0.321-3.04-0.72c-0.37-0.162-0.443-0.399-0.753-0.627c-0.402-0.297-0.899-0.287-1.337-0.487
				c-0.821-0.375-1.577-0.862-2.432-1.169c0.825-0.03,1.625,0.378,2.386,0.665c-0.803,0.542-2.524,0.18-3.44,0.156
				c0.768,0.382,2.13,0.552,2.986,0.667c-0.586-0.012-1.229-0.07-1.803,0.033c0.141,0.178,0.446,0.156,0.726,0.127
				c-1.4,0-2.964-0.182-4.266,0.168c-1.19,0.319-2.359,0.321-3.554,0.508c-1.152,0.181-2.34,0.685-3.417,1.143
				c-1.05,0.447-2.123,0.956-3.065,1.632c0,0,2.391,1.245,8.202,7.398c5.811,6.154,6.702,16.711,6.702,16.711
				s-2.432-3.461-5.696-5.67c-1.188-0.804-2.675-1.933-4.107-2.093c-0.555-0.062-1.157-0.275-1.693-0.291
				c-0.587-0.017-1.248,0.433-1.835,0.256c0.1-0.131,0.073-0.329,0.122-0.429c-0.435-0.084-0.901,0.016-1.338-0.053
				c-0.064-0.263-0.146-0.508-0.208-0.772c-0.471-0.114-0.728,0.559-1.027,0.784c0.08-0.193,0.122-0.413,0.107-0.613
				c-0.086-0.019-0.172-0.037-0.259-0.057c0.008-1.967-1.412-0.047-2.012,0.125c0.164-0.19,0.204-0.481,0.115-0.738
				c-0.41,0.091-0.421,0.449-0.668,0.702c-0.291,0.299-0.123,0.23-0.592,0.32c-0.63,0.121-1.372,0.018-2.015,0.04
				c-1.514,0.052-3.026,0.149-4.536,0.277c-3.944,0.333-7.843,1.148-11.71,2.005c-2.163,0.479-4.32,0.983-6.48,1.474
				c-1.826,0.415-3.653,0.907-5.532,0.896c-0.62-0.004-1.04,0.196-1.573,0.291c-1.13,0.202-2.246,0.328-3.353,0.564
				c-1.227,0.262-2.401,0.267-3.695,0.291c-0.4,0.008-0.688,0.135-1.046,0.209c-0.257,0.053-0.457,0.002-0.689-0.004
				c-0.415-0.011-1.066,0.45-1.37-0.18c-0.313,0.096-0.617,0.16-0.908,0.294c-0.254,0.117-0.114,0.278-0.443,0.343
				c-0.672,0.134-0.77-0.587-1.231-0.681c-0.112-0.023-1.013,0.49-1.13,0.625c-0.301,0.347-0.014,0.605-0.566,0.707
				c-0.434,0.079-0.807-0.283-1.236-0.339c-0.436-0.057-0.703,0.14-1.082,0.184c-0.146,0.017-0.153-0.179-0.295-0.193
				c-0.118,0.026-0.227,0.077-0.324,0.154c-0.12-0.038-0.299-0.093-0.419-0.173c-0.289-0.193-0.295-0.626-0.616-0.766
				c-0.028,0.142-0.133,0.314-0.153,0.426c-0.047-0.221-0.057-0.476-0.027-0.711c-0.277,0.36-0.302,0.796-0.35,1.238
				c-0.443-0.407,0.058-1.666,0.042-2.229c-0.244,0.631-0.369,1.24-0.631,1.865c0.027-0.846-0.074-1.725,0-2.565
				c0.087-0.983,0.511-1.882,0.478-2.899c-0.381,0.884-0.663,1.649-0.812,2.605c-0.081,0.516-0.161,1.429-0.496,1.829
				c-0.544,0.651-1.342-0.267-1.833-0.757C31.414,49.89,30.67,48.73,30.652,47.597z"/>
			<g>
				<path fill="#431300" d="M30.752,48.022l-0.023-1.446C30.598,47.419,30.752,48.022,30.752,48.022z M30.538,34.514l0.191,12.063
					c0.33-2.107,2.875-5.771,13.329-4.779c16.571,1.573,19.938,4.066,21.107-0.249c0,0,3.831-7.604-21.435-8.14
					C40.229,33.334,35.667,33.771,30.538,34.514z"/>
				<linearGradient id="SVGID_3_" gradientUnits="userSpaceOnUse" x1="30.437" y1="40.2856" x2="65.272" y2="40.2856">
					<stop  offset="0.0056" style="stop-color:#431300"/>
					<stop  offset="1" style="stop-color:#825023"/>
				</linearGradient>
				<path fill="url(#SVGID_3_)" d="M30.652,47.597l-0.023-1.447C30.498,46.993,30.652,47.597,30.652,47.597z M30.437,34.088
					l0.192,12.062c0.329-2.107,2.452-5.713,13.28-5.189c15.168,0.736,19.985,4.478,21.155,0.161c0,0,3.83-7.604-21.435-8.139
					C40.129,32.909,35.565,33.345,30.437,34.088z"/>
			</g>
			<path fill="#431300" d="M65.262,41.03l4.188-27.84c0,0,0.688-9.548-22.222-10.913C28.214,1.146,11.311,6.322-17.831,17.909
				c-30.391,12.083-53.665,18.236-55.103,12.042c0,0,5.309,17.43,7.71,24.566c2.619,7.779,19.554,2.601,42.056-5.291
				c15.449-5.417,51.647-15.35,67.045-15.042C69.055,34.688,65.262,41.03,65.262,41.03z"/>
			<linearGradient id="SVGID_4_" gradientUnits="userSpaceOnUse" x1="-60.4072" y1="29.8911" x2="57.8201" y2="29.8911">
				<stop  offset="0.0056" style="stop-color:#A07335"/>
				<stop  offset="0.2584" style="stop-color:#D0A14A"/>
				<stop  offset="0.5169" style="stop-color:#DBA948"/>
				<stop  offset="0.7865" style="stop-color:#D0A14A"/>
				<stop  offset="1" style="stop-color:#A07335"/>
			</linearGradient>
			<path fill="url(#SVGID_4_)" d="M65.238,39.963c-0.109,0.727-0.172,1.147-0.173,1.158C65.127,40.701,65.233,40.356,65.238,39.963z
				 M52.312,6.36c0.096-0.215,0.147-0.44,0.154-0.674c-0.263,0.253-0.38,0.72-0.484,1.091l0.238-0.136
				C52.25,6.547,52.282,6.455,52.312,6.36z M51.089,9.969c-0.035,0.07-0.071,0.138-0.111,0.201
				c-0.018,0.156-0.043,0.313-0.097,0.477C50.962,10.428,51.024,10.198,51.089,9.969z M68.9,11.841
				c-0.599,0.815-0.422,2.391-0.596,3.373c-0.176,0.997-0.384,1.985-0.52,2.995c-0.138,1.021-0.324,2.028-0.414,3.042
				c-0.284-0.381-0.073-1.423-0.073-1.953c0-0.749,0.093-1.474,0.093-2.22c0.001-0.61,0.063-1.181,0.113-1.782
				c0.045-0.52,0.22-1.026,0.264-1.538c0.146-1.661,0.641-3.863-1.111-4.732c-0.219-0.108-0.429-0.208-0.62-0.37
				c-0.131-0.111-0.287-0.252-0.377-0.403c-0.056-0.095-0.065-0.245-0.118-0.323c-0.207-0.306-0.2-0.061-0.446-0.104
				c-0.23-0.04-0.375-0.329-0.396-0.561c-0.02,0.064-0.088,0.129-0.113,0.193c-0.196-0.243-0.242-0.681-0.454-0.844
				c-0.002,0.297-0.171,0.668-0.239,0.965c-0.103,0.445-0.289,0.848-0.388,1.298c-0.146,0.668-0.426,1.29-0.588,1.95
				c-0.245,0.998-0.439,2.029-0.654,3.035c-0.283,1.315-0.553,2.62-0.898,3.921c-0.143,0.539-0.269,1.313-0.6,1.769
				c-0.063-0.355,0.103-0.708,0.205-1.04c0.194-0.63,0.356-1.275,0.51-1.917c0.387-1.616,0.842-3.215,1.15-4.851
				c0.168-0.898,0.223-1.809,0.383-2.706c0.091-0.516,0.212-1.017,0.269-1.539c0.03-0.274,0.175-0.655,0.063-0.924
				c-0.119-0.287-0.497-0.376-0.759-0.499c-0.633-0.295-1.28-0.559-1.934-0.799c-0.909-0.333-1.808-0.653-2.771-0.713
				c-0.893-0.056-1.771-0.44-2.641-0.656c-0.157-0.039-0.236-0.129-0.367-0.183c-0.146-0.06-0.296-0.036-0.456-0.074
				c-0.122-0.028-0.139-0.139-0.314-0.145c-0.129-0.004-0.25,0.063-0.374,0.101c-0.722,0.218-0.607,1.019-0.825,1.648
				c-0.134,0.388-0.264,0.797-0.383,1.213l0.028-0.016c-0.055,0.212-0.106,0.426-0.156,0.638c-0.066,0.288-0.14,0.571-0.216,0.853
				c-0.011,0.062-0.026,0.125-0.036,0.187c-0.147,0.978-0.313,1.979-0.521,2.945c-0.153,0.711-0.325,1.419-0.49,2.123
				c-0.107,0.458-0.273,1.025-0.317,1.488c0.015-1.104,0.101-2.219,0.265-3.314c-0.09,0.303-0.174,0.625-0.296,0.875
				c-0.27-0.214-0.047-0.592-0.041-0.872c0.006-0.242-0.114-0.496-0.064-0.735c0.042-0.206,0.154-0.243,0.261-0.397
				c0.015-0.022,0.026-0.05,0.04-0.073c0.03-0.252,0.036-0.502,0.067-0.771c0.076-0.652,0.329-1.332,0.461-1.978
				c0.149-0.729,0.328-1.454,0.491-2.181c0.146-0.649,0.394-1.37-0.155-1.812c-0.542-0.437-1.571-0.365-2.221-0.427
				c-0.888-0.086-1.778-0.155-2.668-0.209c-3.235-0.199-6.48-0.221-9.718-0.049c-0.679,0.036-1.355,0.108-2.026,0.054
				c-0.187-0.016-2.077-0.045-2.094,0.089c-0.064,0.534-0.03,1.063-0.097,1.599c-0.122,0.965-0.4,1.957-0.586,2.915
				c-0.165,0.846-0.264,1.715-0.529,2.534c0.049-1.106,0.084-2.215,0.174-3.321c0.071-0.88,0.121-1.763,0.225-2.639
				c0.043-0.369,0.076-0.66-0.033-1.013c-0.313,0.063-0.427,0.715-0.506,0.995c-0.157,0.557-0.148,1.611-0.607,1.998
				c-0.173-0.221-0.075-0.798-0.071-1.087c0.006-0.515,0.142-1.047,0.064-1.56c-0.243,0.323-0.219,0.823-0.5,1.14
				c-0.06-0.338,0.133-0.676,0.048-1.006c-0.172,0.333-0.333,0.846-0.433,1.255c-0.077,0.313-0.13,1.078-0.359,1.273
				c-0.184-0.851,0.292-1.684,0.198-2.528c-0.167-0.019-0.388,0.073-0.575,0.082c0.03,0.343-0.336,0.895-0.405,1.252
				c-0.124,0.635-0.185,1.281-0.278,1.921c-0.035,0.235-0.046,1.085-0.284,1.184c-0.132-0.783-0.051-1.773,0.04-2.559
				c0.061-0.533,0.478-1.736-0.35-1.619c-1.268,0.179-2.532,0.426-3.79,0.676c-0.579,0.115-1.168,0.216-1.726,0.399
				c-0.267,0.088-0.198,0.063-0.491-0.02C22,4.688,21.76,4.75,21.519,4.778c-0.184,0.022-0.342,0.135-0.523,0.165
				c-0.132,0.022-0.396-0.077-0.508,0.012c-0.195,0.156-0.278,0.911-0.333,1.168c-0.145,0.683-0.225,1.382-0.355,2.069
				c-0.149,0.788-0.183,1.715-0.512,2.448c-0.107-0.808-0.012-1.712-0.011-2.529c0.001-0.597,0.114-1.195,0.025-1.792
				c-0.038-0.25-0.105-0.613-0.373-0.686c-0.299-0.081-0.895,0.215-1.19,0.292c-0.445,0.116-0.848,0.241-1.266,0.424
				c-0.392,0.171-0.83,0.185-1.232,0.319c-0.721,0.24-1.467,0.373-2.206,0.531c-0.604,0.129-1.188,0.082-1.729,0.423
				c-0.408,0.258-0.83,0.394-1.283,0.536C9.061,8.464,8.101,8.775,7.143,9.092c-3.854,1.278-7.677,2.661-11.481,4.097
				c-4.373,1.651-8.72,3.373-13.057,5.124c-2.359,0.952-4.725,1.886-7.098,2.797c-1.226,0.47-2.454,0.935-3.684,1.394
				c-1.026,0.382-2.021,0.957-3.064,1.266c-0.399,0.118-0.807,0.255-1.201,0.375c-0.217,0.066-0.356,0.092-0.597,0.099
				c-0.248,0.007-0.435,0.104-0.676,0.141c-0.246,0.038-0.384-0.012-0.578,0.173c-0.133,0.126-0.137,0.388-0.372,0.175
				c-0.073,0.1-0.258,0.199-0.305,0.302c-0.085,0.189,0.045,0.381,0.066,0.56c0.092,0.813,0.27,1.796,0.21,2.599
				c-0.471-0.81-0.51-1.75-0.724-2.642c0.232,1.203,0.048,2.545,0.063,3.771c0.022-0.597-0.217-1.254-0.351-1.826
				c-0.162-0.688-0.275-1.466-0.553-2.114c0.013,1,0.049,1.981,0.007,2.971c-0.102-0.267-0.16-0.557-0.224-0.836
				c-0.103-0.448-0.067-1.144-0.287-1.537c-0.117,0.394,0.078,0.964,0.14,1.354c0.06,0.373,0.069,0.72,0.072,1.096
				c0.005-0.438-0.508-2.695-0.844-2.542c-0.258,0.119-0.08,0.753-0.057,0.977c0.073,0.728,0.34,1.465,0.431,2.208
				c0.074,0.6,0.118,1.218,0.206,1.823c-0.265-0.985-0.615-1.947-0.993-2.89c-0.23-0.573-0.737-2.016-1.563-1.718
				c-0.16,0.058-0.265,0.227-0.416,0.311c-0.245,0.136-0.568,0.19-0.832,0.277c-0.565,0.185-1.13,0.368-1.696,0.549
				c-2.31,0.74-4.63,1.444-6.962,2.104c-3.264,0.923-6.554,1.764-9.877,2.413c-1.359,0.265-2.725,0.498-4.097,0.672
				c-0.603,0.076-1.207,0.142-1.812,0.192c-0.291,0.023-0.742-0.087-0.877,0.214c-0.1,0.223,0,0.604,0.034,0.836
				c0.08,0.553,0.149,1.11,0.299,1.662c0.116,0.425,0.192,0.849,0.283,1.28c0.102,0.487,0.291,0.944,0.394,1.428
				c0.252,1.179,0.76,2.234,0.805,3.471c-0.296-0.545-0.32-1.347-0.471-1.959c-0.156-0.635-0.321-1.271-0.483-1.906
				c-0.249-0.977-0.532-1.946-0.815-2.912c-0.155-0.528-0.276-1.125-0.516-1.619c-0.396-0.821-0.962,0.08-1.532-0.31
				c-0.02,0.069-0.081,0.119-0.089,0.208c-0.029-0.065-0.092-0.127-0.118-0.193c-0.03,0.196-0.001,0.409-0.03,0.608
				c-0.247-0.126-0.188-0.83-0.288-1.088c0.018,0.488-0.011,0.978,0.008,1.466c-0.128-0.228-0.106-1.267-0.441-1.157
				c-0.044,0.422,0.063,0.909,0.139,1.338c0.093,0.521,0.223,1.042,0.355,1.555c0.109,0.424,0.418,0.929,0.395,1.37
				c-0.047-0.642-0.459-1.376-0.657-1.987c-0.158-0.49-0.265-1.002-0.391-1.502c-0.046-0.183-0.072-0.586-0.187-0.732
				c-0.164-0.209-0.704-0.186-0.963-0.247c-1.146-0.267-2.235-0.787-2.63-2.036c0.002,0.007,5.186,16.434,7.51,23.521
				c0.331,1.008,1.144,1.677,2.04,2.085c1.029,0.469,2.011,0.519,3.111,0.366c0.138-0.69-0.291-1.469-0.202-2.201
				c0.318-0.084,0.759,1.001,0.888,1.26c0.198,0.401,0.388,0.845,0.592,1.21c0.208,0.371,0.231,0.343,0.602,0.296
				c0.259-0.033,0.477-0.075,0.736-0.088c0.061-0.218-0.075-0.383-0.065-0.597c0.015,0.132,0.105,0.228,0.207,0.311
				c0.202,0.166,0.223,0.083,0.467,0.076c0.07-0.002,0.138,0.079,0.228,0.069c0.089-0.01,0.123-0.143,0.218-0.151
				c0.187-0.015,0.335,0.116,0.525,0.145c0.512,0.078,1.007-0.269,1.516-0.313c0.392-0.034,0.772,0.031,1.162,0.019
				c0.912-0.029,1.853-0.263,2.75-0.427c1.958-0.356,3.903-0.789,5.837-1.27c4.136-1.027,8.226-2.268,12.273-3.637
				c3.28-1.11,6.534-2.307,9.751-3.605c1.514-0.611,3.043-1.176,4.581-1.717c0.799-0.281,1.666-0.485,2.43-0.863
				c0.603-0.298,1.139-0.658,1.779-0.883c0.368-0.129,0.773-0.094,1.041-0.473c0.206-0.29,0.274-1.168,0.824-0.963
				c0.361,0.135,0.809,0.732,1.269,0.534c0.231-0.1,0.334-0.334,0.598-0.387c0.207-0.041,0.441,0.01,0.651-0.016
				c0.74-0.092,1.461-0.351,2.191-0.519c0.533-0.123,1.049-0.195,1.568-0.399c0.456-0.18,0.93-0.199,1.395-0.312
				c0.498-0.122,0.991-0.276,1.485-0.413c1.006-0.276,2.013-0.549,3.021-0.815c1.359-0.36,2.846-0.571,4.163-1.07
				c0.395-0.149,0.474-0.434,0.65-0.798c0.183-0.377,0.346-0.425,0.59-0.032c0.045-0.054,0.165-0.129,0.209-0.204
				c-0.035,0.131-0.021,0.265,0.085,0.341c0.132-0.124,0.317-0.39,0.493-0.359c0.029,0.185,0.129,0.468,0.299,0.538
				c0.023-0.154,0.005-0.311,0.032-0.463c0,0.002,0.059,0.094,0.071,0.141c0.186,0.063,0.209-0.17,0.359-0.214
				c0.163-0.049,0.251,0.173,0.435-0.062c0.153,0.229,0.733-0.011,0.983-0.047c0.416-0.061,0.875-0.15,1.276-0.301
				c0.332-0.125,0.633-0.274,0.967-0.317c0.414-0.053,0.796-0.07,1.199-0.179c0.36-0.096,0.752-0.08,1.12-0.157
				c0.413-0.086,0.769-0.221,1.181-0.282c0.334-0.05,0.635-0.057,0.987-0.093c0.553-0.058,1.084-0.292,1.626-0.405
				c0.672-0.14,1.344-0.277,2.016-0.412c3.921-0.787,7.858-1.493,11.814-2.055c3.315-0.471,6.65-0.856,9.993-0.991
				c0.98-0.039,1.961-0.056,2.941-0.034c4.306,0.096,8.658,0.358,12.889,1.261c1.417,0.302,2.826,0.681,4.178,1.226
				c0.938,0.378,2.521,0.944,3.061,1.889c0.339-0.5,0.401-1.322,0.489-1.938c0.114-0.8,0.288-1.583,0.442-2.376
				c0.067-0.343,0.156-0.721,0.231-1.102c-0.122,0.751-0.278,1.501-0.319,2.256c-0.062,1.163-0.174,2.295-0.194,3.467
				c0.574-2.018,0.749-4.145,1.245-6.214c-0.019,0.255-0.012,0.524-0.026,0.721c-0.046,0.643-0.19,1.329-0.31,1.961
				c-0.174,0.92-0.13,1.934-0.23,2.876c-0.048,0.45-0.242,0.901-0.225,1.358c0.016,0.408,0.25,0.72,0.333,1.118
				c0.037,0.172,0.046,0.328,0.044,0.478c0.783-5.22,3.95-26.333,3.95-26.333C69.221,13.148,69.129,12.27,68.9,11.841z
				 M-36.21,33.092c0.06,0.17,0.121,0.34,0.173,0.51C-36.121,33.458-36.169,33.277-36.21,33.092z M51.618,8.447
				c0.001-0.004,0.001-0.008,0.002-0.012c0.027-0.191,0.044-0.411,0.066-0.633c-0.094,0.321-0.194,0.641-0.279,0.966
				c-0.104,0.398-0.206,0.802-0.318,1.202c0.211-0.423,0.337-0.938,0.479-1.371C51.584,8.548,51.602,8.498,51.618,8.447z
				 M51.415,9.627c-0.144,0.571-0.248,1.157-0.337,1.746c0.033-0.112,0.067-0.222,0.104-0.325c0.367-1.027,0.711-2.051,0.996-3.104
				c0.083-0.486,0.203-0.984,0.344-1.475l-0.302,0.172c-0.194,0.604-0.402,1.204-0.601,1.806C51.564,8.83,51.509,9.252,51.415,9.627
				z M51.981,6.777l-0.12,0.068c-0.102,0.273-0.143,0.618-0.175,0.956c0.085-0.292,0.164-0.587,0.253-0.878
				C51.953,6.879,51.968,6.826,51.981,6.777z"/>
		</g>
	</g>
</g>
</svg>
