<?xml version="1.0" encoding="utf-8"?>
<!-- Generator: Adobe Illustrator 16.2.0, SVG Export Plug-In . SVG Version: 6.00 Build 0)  -->
<!DOCTYPE svg PUBLIC "-//W3C//DTD SVG 1.1//EN" "http://www.w3.org/Graphics/SVG/1.1/DTD/svg11.dtd">
<svg version="1.1" xmlns="http://www.w3.org/2000/svg" xmlns:xlink="http://www.w3.org/1999/xlink" x="0px" y="0px"
	 width="313.001px" height="43.321px" viewBox="0 0 313.001 43.321" enable-background="new 0 0 313.001 43.321"
	 xml:space="preserve">
<g id="Layer_1">
</g>
<g id="Layer_2">
	<g>
		<g opacity="0.75">
			<path d="M2.025,4.826h6.713v2.703c-2.424,1.725-3.077,4.802-3.496,7.272c-0.14,1.025-0.373,2.237-1.678,2.237
				c-1.398,0-1.539-1.165-1.539-1.352V4.826z M10.836,4.826h11.421v29.647c0,1.725-0.047,2.004,1.585,2.517
				c0.606,0.187,1.025,0.606,1.025,1.259c0,1.353-1.538,1.445-1.725,1.445H9.95c-0.187,0-1.725-0.093-1.725-1.445
				c0-0.652,0.419-1.072,1.025-1.259c1.631-0.513,1.585-0.792,1.585-2.517V4.826z M31.067,15.688c0,0.187-0.14,1.352-1.538,1.352
				c-1.305,0-1.539-1.212-1.678-2.237c-0.419-2.471-1.072-5.548-3.496-7.272V4.826h6.712V15.688z"/>
			<path d="M51.3,34.474c0,1.725-0.046,2.004,1.585,2.517c0.606,0.187,1.026,0.606,1.026,1.259c0,1.353-1.539,1.445-1.725,1.445
				H38.994c-0.187,0-1.725-0.093-1.725-1.445c0-0.652,0.419-1.072,1.026-1.259c1.631-0.513,1.585-0.792,1.585-2.517V10.047
				c0-1.725,0.046-2.005-1.585-2.518c-0.606-0.187-1.026-0.605-1.026-1.259c0-1.352,1.539-1.444,1.725-1.444h13.192
				c0.187,0,1.725,0.093,1.725,1.444c0,0.653-0.42,1.072-1.026,1.259C51.254,8.042,51.3,8.322,51.3,10.047V34.474z M57.5,23.332
				h-4.103v-2.703H57.5V10.047c0-1.725,0.046-2.005-1.585-2.518C55.31,7.343,54.89,6.924,54.89,6.271
				c0-1.352,1.539-1.444,1.725-1.444h13.192c0.187,0,1.725,0.093,1.725,1.444c0,0.653-0.419,1.072-1.026,1.259
				c-1.631,0.513-1.584,0.793-1.584,2.518v24.427c0,1.725-0.047,2.004,1.584,2.517c0.606,0.187,1.026,0.606,1.026,1.259
				c0,1.353-1.539,1.445-1.725,1.445H56.615c-0.187,0-1.725-0.093-1.725-1.445c0-0.652,0.42-1.072,1.026-1.259
				c1.631-0.513,1.585-0.792,1.585-2.517V23.332z"/>
			<path d="M88.27,16.619l-4.382,15.943c-0.746,2.843-0.093,3.636,1.492,4.335c0.746,0.326,1.398,0.605,1.398,1.538
				c0,1.306-1.492,1.259-2.424,1.259h-5.36c-0.933,0-2.611-0.047-2.611-1.398c0-1.119,0.792-1.072,1.818-1.585
				c0.979-0.513,2.237-1.585,3.123-4.895l5.594-20.464h0.14L88.27,16.619z M93.257,30.651h-6.806l0.653-2.704h5.687L88.083,7.343
				l0.606-2.517h10.302l6.992,29.461c0.28,1.305,0.326,2.19,1.631,2.75c0.653,0.28,1.166,0.606,1.166,1.445
				c0,1.259-1.678,1.212-2.564,1.212H94.609c-0.933,0-2.284-0.093-2.284-1.306c0-0.745,0.279-0.979,0.885-1.305
				c1.212-0.699,1.399-1.025,0.979-2.844L93.257,30.651z"/>
			<path d="M117.127,13.59h0.093l2.61,4.661v14.078c0.746,5.827,3.729,4.009,3.729,6.014c0,1.444-1.912,1.352-2.424,1.352h-5.314
				c-0.513,0-2.424,0.093-2.424-1.352c0-2.005,2.983-0.187,3.729-6.014V13.59z M141.414,28.413v11.281h-6.946L117.407,10.28
				c-0.746-1.306-0.979-2.005-2.518-2.518c-0.792-0.279-1.398-0.466-1.398-1.492c0-1.398,1.398-1.398,2.377-1.444h11.98
				L141.414,28.413z M138.71,13.264c0-6.666-3.822-4.896-3.822-7.039c0-1.306,1.538-1.398,2.004-1.398h6.339
				c0.466,0,2.005,0.093,2.005,1.398c0,2.144-3.823,0.373-3.823,7.039v11.327h-0.093l-2.61-4.708V13.264z"/>
			<path d="M166.123,34.474c0,1.725-0.046,2.004,1.585,2.517c0.606,0.187,1.026,0.606,1.026,1.259c0,1.353-1.539,1.445-1.725,1.445
				h-13.192c-0.187,0-1.725-0.093-1.725-1.445c0-0.652,0.419-1.072,1.026-1.259c1.631-0.513,1.585-0.792,1.585-2.517V10.047
				c0-1.725,0.046-2.005-1.585-2.518c-0.606-0.187-1.026-0.605-1.026-1.259c0-1.352,1.539-1.444,1.725-1.444h13.192
				c0.187,0,1.725,0.093,1.725,1.444c0,0.653-0.42,1.072-1.026,1.259c-1.631,0.513-1.585,0.793-1.585,2.518V34.474z M183.697,34.613
				c0.419,1.025,0.56,1.818,1.631,2.331c0.699,0.326,1.119,0.605,1.119,1.491c0,1.352-1.539,1.259-2.471,1.259h-11.701
				c-1.072,0-2.471,0-2.471-1.445c0-1.538,1.912-1.259,1.912-2.284c0-0.373-0.233-1.072-0.373-1.398l-2.89-8.67
				c-0.28-0.886-0.606-1.865-0.606-2.844c0-0.979,0.513-1.585,1.072-2.378l5.408-7.691c0.652-0.886,1.212-1.817,1.212-2.937
				c0-1.259-0.653-1.911-1.771-2.378c-0.746-0.326-1.445-0.513-1.445-1.444c0-1.445,1.305-1.398,2.284-1.398h7.971
				c1.119,0,2.471,0.046,2.471,1.538c0,1.072-0.886,1.398-1.725,1.725c-3.216,1.212-4.289,2.983-6.247,5.641l-0.885,1.212
				L183.697,34.613z"/>
			<path d="M218.57,26.176l-7.039-16.688c-0.326-0.839-0.559-1.445-1.352-1.958c-0.606-0.326-1.072-0.56-1.072-1.352
				c0-1.445,1.492-1.352,2.471-1.352h11.514c1.025,0,2.563-0.094,2.563,1.398c0,0.699-0.513,1.072-1.025,1.398
				c-0.513,0.279-0.886,0.466-0.886,1.118c0,0.606,0.233,1.212,0.466,1.771l5.78,13.192v10.769c0,1.725-0.047,2.004,1.585,2.517
				c0.606,0.187,1.025,0.606,1.025,1.259c0,1.353-1.538,1.445-1.725,1.445h-13.192c-0.187,0-1.725-0.093-1.725-1.445
				c0-0.652,0.419-1.072,1.025-1.259c1.631-0.513,1.585-0.792,1.585-2.517V26.176z M229.478,17.832l2.424-5.408
				c0.373-0.792,0.699-1.538,0.699-2.471c0-2.797-3.17-1.771-3.17-3.683c0-1.678,1.911-1.444,3.03-1.444h5.174
				c1.072,0,2.377,0.093,2.377,1.491c0,0.793-0.513,1.119-1.166,1.398c-1.911,0.793-2.424,1.492-3.31,3.403l-4.568,10.022
				L229.478,17.832z"/>
			<path d="M256.937,6.83c-2.191,0.793-2.377,2.191-2.377,3.356v24.147c0,1.165,0.187,2.563,2.377,3.355v2.704
				c-9.882-0.886-14.498-8.857-14.498-18.134s4.615-17.247,14.498-18.133V6.83z M259.034,37.689c2.191-0.792,2.377-2.19,2.377-3.355
				V10.187c0-1.165-0.187-2.563-2.377-3.356V4.127c9.883,0.886,14.497,8.856,14.497,18.133s-4.614,17.248-14.497,18.134V37.689z"/>
			<path d="M296.33,40.394c-3.683,0-6.526-0.047-9.743-1.818c-4.195-2.33-4.755-4.102-4.755-6.433V10.047
				c0-1.725,0.047-2.005-1.585-2.518c-0.605-0.187-1.025-0.605-1.025-1.259c0-1.352,1.539-1.444,1.725-1.444h13.192
				c0.187,0,1.725,0.093,1.725,1.444c0,0.653-0.419,1.072-1.025,1.259c-1.631,0.513-1.585,0.793-1.585,2.518v22.422
				c0,0.467-0.419,4.149,3.077,5.175V40.394z M304.674,12.191c-0.745-5.827-3.729-4.009-3.729-6.014
				c0-1.445,1.911-1.352,2.424-1.352h5.313c0.514,0,2.425-0.094,2.425,1.352c0,2.005-2.983,0.187-3.729,6.014v17.574
				c-0.373,7.691-5.92,10.488-8.95,10.535V37.55c4.288-1.305,5.967-3.729,6.246-7.878V12.191z"/>
		</g>
		<g>
			<g>
				<path fill="#603813" d="M1.025,3.826h6.713v2.703c-2.424,1.725-3.077,4.802-3.496,7.272c-0.14,1.025-0.373,2.237-1.678,2.237
					c-1.398,0-1.539-1.165-1.539-1.352V3.826z M9.836,3.826h11.421v29.647c0,1.725-0.047,2.004,1.585,2.517
					c0.606,0.187,1.025,0.606,1.025,1.259c0,1.353-1.538,1.445-1.725,1.445H8.95c-0.187,0-1.725-0.093-1.725-1.445
					c0-0.652,0.419-1.072,1.025-1.259c1.631-0.513,1.585-0.792,1.585-2.517V3.826z M30.067,14.688c0,0.187-0.14,1.352-1.538,1.352
					c-1.305,0-1.539-1.212-1.678-2.237c-0.419-2.471-1.072-5.548-3.496-7.272V3.826h6.712V14.688z"/>
				<path fill="#603813" d="M50.3,33.474c0,1.725-0.046,2.004,1.585,2.517c0.606,0.187,1.026,0.606,1.026,1.259
					c0,1.353-1.539,1.445-1.725,1.445H37.994c-0.187,0-1.725-0.093-1.725-1.445c0-0.652,0.419-1.072,1.026-1.259
					c1.631-0.513,1.585-0.792,1.585-2.517V9.047c0-1.725,0.046-2.005-1.585-2.518c-0.606-0.187-1.026-0.605-1.026-1.259
					c0-1.352,1.539-1.444,1.725-1.444h13.192c0.187,0,1.725,0.093,1.725,1.444c0,0.653-0.42,1.072-1.026,1.259
					C50.254,7.042,50.3,7.322,50.3,9.047V33.474z M56.5,22.332h-4.103v-2.703H56.5V9.047c0-1.725,0.046-2.005-1.585-2.518
					C54.31,6.343,53.89,5.924,53.89,5.271c0-1.352,1.539-1.444,1.725-1.444h13.192c0.187,0,1.725,0.093,1.725,1.444
					c0,0.653-0.419,1.072-1.026,1.259c-1.631,0.513-1.584,0.793-1.584,2.518v24.427c0,1.725-0.047,2.004,1.584,2.517
					c0.606,0.187,1.026,0.606,1.026,1.259c0,1.353-1.539,1.445-1.725,1.445H55.615c-0.187,0-1.725-0.093-1.725-1.445
					c0-0.652,0.42-1.072,1.026-1.259c1.631-0.513,1.585-0.792,1.585-2.517V22.332z"/>
				<path fill="#603813" d="M87.27,15.619l-4.382,15.943c-0.746,2.843-0.093,3.636,1.492,4.335c0.746,0.326,1.398,0.605,1.398,1.538
					c0,1.306-1.492,1.259-2.424,1.259h-5.36c-0.933,0-2.611-0.047-2.611-1.398c0-1.119,0.792-1.072,1.818-1.585
					c0.979-0.513,2.237-1.585,3.123-4.895l5.594-20.464h0.14L87.27,15.619z M92.257,29.651h-6.806l0.653-2.704h5.687L87.083,6.343
					l0.606-2.517h10.302l6.992,29.461c0.28,1.305,0.326,2.19,1.631,2.75c0.653,0.28,1.166,0.606,1.166,1.445
					c0,1.259-1.678,1.212-2.564,1.212H93.609c-0.933,0-2.284-0.093-2.284-1.306c0-0.745,0.279-0.979,0.885-1.305
					c1.212-0.699,1.399-1.025,0.979-2.844L92.257,29.651z"/>
				<path fill="#603813" d="M116.127,12.59h0.093l2.61,4.661v14.078c0.746,5.827,3.729,4.009,3.729,6.014
					c0,1.444-1.912,1.352-2.424,1.352h-5.314c-0.513,0-2.424,0.093-2.424-1.352c0-2.005,2.983-0.187,3.729-6.014V12.59z
					 M140.414,27.413v11.281h-6.946L116.407,9.28c-0.746-1.306-0.979-2.005-2.518-2.518c-0.792-0.279-1.398-0.466-1.398-1.492
					c0-1.398,1.398-1.398,2.377-1.444h11.98L140.414,27.413z M137.71,12.264c0-6.666-3.822-4.896-3.822-7.039
					c0-1.306,1.538-1.398,2.004-1.398h6.339c0.466,0,2.005,0.093,2.005,1.398c0,2.144-3.823,0.373-3.823,7.039v11.327h-0.093
					l-2.61-4.708V12.264z"/>
				<path fill="#603813" d="M165.123,33.474c0,1.725-0.046,2.004,1.585,2.517c0.606,0.187,1.026,0.606,1.026,1.259
					c0,1.353-1.539,1.445-1.725,1.445h-13.192c-0.187,0-1.725-0.093-1.725-1.445c0-0.652,0.419-1.072,1.026-1.259
					c1.631-0.513,1.585-0.792,1.585-2.517V9.047c0-1.725,0.046-2.005-1.585-2.518c-0.606-0.187-1.026-0.605-1.026-1.259
					c0-1.352,1.539-1.444,1.725-1.444h13.192c0.187,0,1.725,0.093,1.725,1.444c0,0.653-0.42,1.072-1.026,1.259
					c-1.631,0.513-1.585,0.793-1.585,2.518V33.474z M182.697,33.613c0.419,1.025,0.56,1.818,1.631,2.331
					c0.699,0.326,1.119,0.605,1.119,1.491c0,1.352-1.539,1.259-2.471,1.259h-11.701c-1.072,0-2.471,0-2.471-1.445
					c0-1.538,1.912-1.259,1.912-2.284c0-0.373-0.233-1.072-0.373-1.398l-2.89-8.67c-0.28-0.886-0.606-1.865-0.606-2.844
					c0-0.979,0.513-1.585,1.072-2.378l5.408-7.691c0.652-0.886,1.212-1.817,1.212-2.937c0-1.259-0.653-1.911-1.771-2.378
					c-0.746-0.326-1.445-0.513-1.445-1.444c0-1.445,1.305-1.398,2.284-1.398h7.971c1.119,0,2.471,0.046,2.471,1.538
					c0,1.072-0.886,1.398-1.725,1.725c-3.216,1.212-4.289,2.983-6.247,5.641l-0.885,1.212L182.697,33.613z"/>
				<path fill="#603813" d="M217.57,25.176l-7.039-16.688c-0.326-0.839-0.559-1.445-1.352-1.958
					c-0.606-0.326-1.072-0.56-1.072-1.352c0-1.445,1.492-1.352,2.471-1.352h11.514c1.025,0,2.563-0.094,2.563,1.398
					c0,0.699-0.513,1.072-1.025,1.398c-0.513,0.279-0.886,0.466-0.886,1.118c0,0.606,0.233,1.212,0.466,1.771l5.78,13.192v10.769
					c0,1.725-0.047,2.004,1.585,2.517c0.606,0.187,1.025,0.606,1.025,1.259c0,1.353-1.538,1.445-1.725,1.445h-13.192
					c-0.187,0-1.725-0.093-1.725-1.445c0-0.652,0.419-1.072,1.025-1.259c1.631-0.513,1.585-0.792,1.585-2.517V25.176z
					 M228.478,16.832l2.424-5.408c0.373-0.792,0.699-1.538,0.699-2.471c0-2.797-3.17-1.771-3.17-3.683
					c0-1.678,1.911-1.444,3.03-1.444h5.174c1.072,0,2.377,0.093,2.377,1.491c0,0.793-0.513,1.119-1.166,1.398
					c-1.911,0.793-2.424,1.492-3.31,3.403l-4.568,10.022L228.478,16.832z"/>
				<path fill="#603813" d="M255.937,5.83c-2.191,0.793-2.377,2.191-2.377,3.356v24.147c0,1.165,0.187,2.563,2.377,3.355v2.704
					c-9.882-0.886-14.498-8.857-14.498-18.134s4.615-17.247,14.498-18.133V5.83z M258.034,36.689
					c2.191-0.792,2.377-2.19,2.377-3.355V9.187c0-1.165-0.187-2.563-2.377-3.356V3.127c9.883,0.886,14.497,8.856,14.497,18.133
					s-4.614,17.248-14.497,18.134V36.689z"/>
				<path fill="#603813" d="M295.33,39.394c-3.683,0-6.526-0.047-9.743-1.818c-4.195-2.33-4.755-4.102-4.755-6.433V9.047
					c0-1.725,0.047-2.005-1.585-2.518c-0.605-0.187-1.025-0.605-1.025-1.259c0-1.352,1.539-1.444,1.725-1.444h13.192
					c0.187,0,1.725,0.093,1.725,1.444c0,0.653-0.419,1.072-1.025,1.259c-1.631,0.513-1.585,0.793-1.585,2.518v22.422
					c0,0.467-0.419,4.149,3.077,5.175V39.394z M303.674,11.191c-0.745-5.827-3.729-4.009-3.729-6.014
					c0-1.445,1.911-1.352,2.424-1.352h5.313c0.514,0,2.425-0.094,2.425,1.352c0,2.005-2.983,0.187-3.729,6.014v17.574
					c-0.373,7.691-5.92,10.488-8.95,10.535V36.55c4.288-1.305,5.967-3.729,6.246-7.878V11.191z"/>
			</g>
		</g>
	</g>
</g>
<g id="Layer_3">
</g>
</svg>
